<svg width="93" height="67" viewBox="0 0 93 67" fill="none" xmlns="http://www.w3.org/2000/svg">
<path d="M46.426 13.0997C42.3943 13.0915 38.4509 14.2796 35.0947 16.5136C31.7386 18.7475 29.1206 21.9269 27.5721 25.6493C26.0236 29.3718 25.6143 33.4699 26.3958 37.4251C27.1774 41.3803 29.1147 45.0147 31.9626 47.8684C34.8106 50.7221 38.4411 52.6667 42.3947 53.4563C46.3483 54.2458 50.4472 53.8447 54.1728 52.3037C57.8983 50.7628 61.083 48.1512 63.3237 44.7996C65.5644 41.4479 66.7604 37.5069 66.7605 33.4752C66.754 28.0804 64.6108 22.9078 60.7999 19.0892C56.9891 15.2706 51.8208 13.117 46.426 13.0997Z" fill="#F5B952"/>
<path d="M46.426 13.0997C42.3943 13.0915 38.4509 14.2796 35.0947 16.5136C31.7386 18.7475 29.1206 21.9269 27.5721 25.6493C26.0236 29.3718 25.6143 33.4699 26.3958 37.4251C27.1774 41.3803 29.1147 45.0147 31.9626 47.8684C34.8106 50.7221 38.4411 52.6667 42.3947 53.4563C46.3483 54.2458 50.4472 53.8447 54.1728 52.3037C57.8983 50.7628 61.083 48.1512 63.3237 44.7996C65.5644 41.4479 66.7604 37.5069 66.7605 33.4752C66.754 28.0804 64.6108 22.9078 60.7999 19.0892C56.9891 15.2706 51.8208 13.117 46.426 13.0997Z" stroke="black" stroke-width="4" stroke-miterlimit="10" stroke-linecap="round" stroke-linejoin="round"/>
<path d="M46.3931 13.0998V2" stroke="black" stroke-width="4" stroke-miterlimit="10" stroke-linecap="round" stroke-linejoin="round"/>
<path d="M46.6069 53.9004V65.0002" stroke="black" stroke-width="4" stroke-miterlimit="10" stroke-linecap="round" stroke-linejoin="round"/>
<path d="M66.9004 33.3926H78.0002" stroke="black" stroke-width="4" stroke-miterlimit="10" stroke-linecap="round" stroke-linejoin="round"/>
<path d="M26.0998 33.6074H15" stroke="black" stroke-width="4" stroke-miterlimit="10" stroke-linecap="round" stroke-linejoin="round"/>
<path d="M32.0073 19.1552L24.1528 11.3008" stroke="black" stroke-width="4" stroke-miterlimit="10" stroke-linecap="round" stroke-linejoin="round"/>
<path d="M61.0015 47.8525L68.8477 55.6988" stroke="black" stroke-width="4" stroke-miterlimit="10" stroke-linecap="round" stroke-linejoin="round"/>
<path d="M60.8535 19.0058L68.6998 11.1514" stroke="black" stroke-width="4" stroke-miterlimit="10" stroke-linecap="round" stroke-linejoin="round"/>
<path d="M32.1548 48.002L24.3003 55.8482" stroke="black" stroke-width="4" stroke-miterlimit="10" stroke-linecap="round" stroke-linejoin="round"/>
</svg>
