<svg width="93" height="67" viewBox="0 0 93 67" fill="none" xmlns="http://www.w3.org/2000/svg">
<path d="M46.5494 9.00005C41.7017 8.99028 36.96 10.4189 32.9245 13.105C28.889 15.7912 25.7411 19.6141 23.8792 24.09C22.0172 28.5659 21.525 33.4936 22.4648 38.2494C23.4045 43.0052 25.734 47.3753 29.1584 50.8066C32.5828 54.2379 36.9482 56.5763 41.7021 57.5256C46.456 58.475 51.3846 57.9927 55.8643 56.1398C60.344 54.2869 64.1733 51.1467 66.8675 47.1166C69.5618 43.0866 71 38.3478 71 33.5C70.9922 27.0132 68.4152 20.7935 63.8329 16.202C59.2507 11.6105 53.0362 9.02095 46.5494 9.00005Z" fill="#EAD88C"/>
<path d="M46.5494 9.00005C41.7017 8.99028 36.96 10.4189 32.9245 13.105C28.889 15.7912 25.7411 19.6141 23.8792 24.09C22.0172 28.5659 21.525 33.4936 22.4648 38.2494C23.4045 43.0052 25.734 47.3753 29.1584 50.8066C32.5828 54.2379 36.9482 56.5763 41.7021 57.5256C46.456 58.475 51.3846 57.9927 55.8643 56.1398C60.344 54.2869 64.1733 51.1467 66.8675 47.1166C69.5618 43.0866 71 38.3478 71 33.5C70.9922 27.0132 68.4152 20.7935 63.8329 16.202C59.2507 11.6105 53.0362 9.02095 46.5494 9.00005Z" fill="#EAD88C" stroke="black" stroke-width="3.5" stroke-miterlimit="10" stroke-linecap="round" stroke-linejoin="round"/>
</svg>
