<svg width="93" height="67" viewBox="0 0 93 67" fill="none" xmlns="http://www.w3.org/2000/svg">
<path d="M67.4713 54.5417H12.7852C10.497 54.5417 7.45306 52.7363 6.58186 50.7735C5.62757 49.2909 5.08477 47.5812 5.00915 45.8197C4.93352 44.0582 5.32779 42.3083 6.15151 40.7494C7.1129 39.0194 8.55345 37.6038 10.3 36.6728C12.0466 35.7418 14.0249 35.335 15.9971 35.5013C17.645 35.5852 17.9809 34.9869 18.1908 33.6119C19.0343 28.4299 21.4824 23.6432 25.1901 19.926C28.8978 16.2089 33.6783 13.7487 38.8582 12.8921H38.9841C44.8249 12.0722 50.7682 13.3277 55.7783 16.4399C56.2716 16.7443 56.765 17.0696 57.2478 17.4895C60.0031 19.567 62.3096 22.1806 64.0285 25.1728L64.8262 26.4324" fill="#CAE3F6"/>
<path d="M41.4194 40.7409C41.7342 38.5147 42.7339 36.4415 44.2799 34.809C45.8259 33.1765 47.8416 32.0655 50.0474 31.6301C50.7423 31.5253 51.444 31.4726 52.1467 31.4727C54.9379 31.4719 57.629 32.5124 59.6936 34.3906C61.1503 35.7411 62.2009 37.4715 62.727 39.3869" fill="#CAE3F6"/>
<path d="M56.188 32.1394C59.3369 27.2691 66.6319 25.4742 72.4468 26.6708C75.004 27.1431 77.3646 28.3605 79.2321 30.1701C81.0995 31.9797 82.3906 34.3008 82.9432 36.8418C83.6779 40.0432 83.9194 41.2712 86.3965 42.9821C89.9233 45.4278 89.6714 50.8964 86.8163 53.4785C86.05 54.1243 85.0889 54.494 84.0873 54.5281H65.1939" fill="#CAE3F6"/>
<path d="M67.471 53.8908H12.785C10.4968 53.8908 7.45281 52.0854 6.58161 50.1331C5.62743 48.6486 5.08476 46.9372 5.00915 45.1741C4.93353 43.4109 5.32768 41.6594 6.15126 40.0986C7.11264 38.3685 8.55319 36.9529 10.2998 36.0219C12.0463 35.0909 14.0246 34.6841 15.9968 34.8504C17.6448 34.9344 17.9807 34.3361 18.1906 32.9716C19.0321 27.7877 21.4792 22.9986 25.1871 19.2794C28.895 15.5602 33.6766 13.0985 38.8579 12.2412H38.9839C44.8244 11.4286 50.7652 12.6836 55.778 15.789C56.2714 16.0934 56.7647 16.4293 57.2475 16.8386C60.0005 18.9187 62.3065 21.5317 64.0282 24.522L64.8259 25.7815" stroke="black" stroke-width="3" stroke-miterlimit="10" stroke-linecap="round"/>
<path d="M41.4194 40.0876C41.7347 37.8626 42.7348 35.791 44.2809 34.1603C45.827 32.5295 47.8424 31.4205 50.0474 30.9872C50.7703 30.8835 51.5007 30.8413 52.2307 30.8612C55.024 30.8593 57.7167 31.9041 59.7776 33.7897C61.1988 35.1334 62.2197 36.8447 62.727 38.7335" stroke="black" stroke-width="3" stroke-miterlimit="10" stroke-linecap="round"/>
<path d="M56.188 31.4994C59.3369 26.6186 66.6319 24.8237 72.4468 26.0203C75.0034 26.4939 77.3633 27.7117 79.2306 29.5211C81.0979 31.3305 82.3894 33.6509 82.9432 36.1913C83.6779 39.4032 83.9194 40.6208 86.3965 42.3422C89.9233 44.7773 89.6714 50.2459 86.8163 52.8385C86.05 53.4843 85.0889 53.854 84.0873 53.8882H80.571" stroke="black" stroke-width="3" stroke-miterlimit="10" stroke-linecap="round"/>
<path d="M73.4126 53.875H75.9212" stroke="black" stroke-width="3" stroke-miterlimit="10" stroke-linecap="round"/>
</svg>
