<svg width="50" height="50" viewBox="0 0 50 50" fill="none" xmlns="http://www.w3.org/2000/svg">
<path d="M25.5889 2.46324C38.0864 3.92779 47.0689 15.0583 45.8973 27.6534C44.7257 40.1509 33.4975 49.231 21.0977 47.8641C18.1686 47.4736 15.5324 46.6925 12.7986 45.2279C14.3608 44.1539 15.7277 42.9823 16.9969 41.6154C21.3906 37.5147 24.4173 32.2423 25.3937 26.2865C26.4677 19.0614 24.5149 12.1292 22.2693 7.34506C21.4882 5.78288 20.7071 4.02542 19.7308 2.56088C21.5858 2.26797 23.5386 2.26797 25.5889 2.46324Z" fill="#EAD88C"/>
<path d="M45.8973 27.6534C47.0689 15.0583 38.0864 3.92779 25.5889 2.46324C23.5386 2.26797 21.5858 2.26797 19.7308 2.56088C19.7308 2.56088 23.2891 15.7273 22 24C20.6573 32.6169 12.7986 45.2279 12.7986 45.2279C15.5324 46.6925 18.1686 47.4736 21.0977 47.8641C33.4975 49.231 44.7257 40.1509 45.8973 27.6534Z" fill="#EAD88C" stroke="#232020" stroke-width="3" stroke-miterlimit="10" stroke-linejoin="round"/>
</svg>
