<svg width="50" height="50" viewBox="0 0 50 50" fill="none" xmlns="http://www.w3.org/2000/svg">
<g clip-path="url(#clip0_115_1015)">
<path d="M25.0464 2.00005C20.4954 1.99087 16.0441 3.332 12.2557 5.85368C8.46723 8.37537 5.51205 11.9643 3.76412 16.1661C2.01619 20.368 1.55409 24.994 2.43631 29.4586C3.31853 33.9232 5.5054 38.0258 8.72015 41.247C11.9349 44.4683 16.033 46.6634 20.4958 47.5546C24.9587 48.4459 29.5856 47.9931 33.791 46.2537C37.9964 44.5142 41.5912 41.5663 44.1206 37.783C46.6499 33.9996 48 29.551 48 25C47.9927 18.9103 45.5735 13.0715 41.2717 8.76106C36.97 4.45064 31.1361 2.01966 25.0464 2.00005Z" fill="#EAD88C"/>
<path d="M25.0464 2.00005C20.4954 1.99087 16.0441 3.332 12.2557 5.85368C8.46723 8.37537 5.51205 11.9643 3.76412 16.1661C2.01619 20.368 1.55409 24.994 2.43631 29.4586C3.31853 33.9232 5.5054 38.0258 8.72015 41.247C11.9349 44.4683 16.033 46.6634 20.4958 47.5546C24.9587 48.4459 29.5856 47.9931 33.791 46.2537C37.9964 44.5142 41.5912 41.5663 44.1206 37.783C46.6499 33.9996 48 29.551 48 25C47.9927 18.9103 45.5735 13.0715 41.2717 8.76106C36.97 4.45064 31.1361 2.01966 25.0464 2.00005Z" fill="#EAD88C" stroke="#232020" stroke-width="3" stroke-miterlimit="10" stroke-linecap="round" stroke-linejoin="round"/>
</g>
<defs>
<clipPath id="clip0_115_1015">
<rect width="50" height="50" fill="white"/>
</clipPath>
</defs>
</svg>
