<svg width="93" height="67" viewBox="0 0 93 67" fill="none" xmlns="http://www.w3.org/2000/svg">
<path d="M29.5873 51.6511C33.0503 51.6511 35.8576 48.8437 35.8576 45.3807C35.8576 41.9177 33.0503 39.1104 29.5873 39.1104C26.1242 39.1104 23.3169 41.9177 23.3169 45.3807C23.3169 48.8437 26.1242 51.6511 29.5873 51.6511Z" fill="#CAE3F6"/>
<path d="M45.9418 51.6511C49.4048 51.6511 52.2121 48.8437 52.2121 45.3807C52.2121 41.9177 49.4048 39.1104 45.9418 39.1104C42.4787 39.1104 39.6714 41.9177 39.6714 45.3807C39.6714 48.8437 42.4787 51.6511 45.9418 51.6511Z" fill="#CAE3F6"/>
<path d="M62.7411 51.6511C66.2041 51.6511 69.0114 48.8437 69.0114 45.3807C69.0114 41.9177 66.2041 39.1104 62.7411 39.1104C59.278 39.1104 56.4707 41.9177 56.4707 45.3807C56.4707 48.8437 59.278 51.6511 62.7411 51.6511Z" fill="#CAE3F6"/>
<path d="M37.9587 64.9994C40.4756 64.9994 42.516 62.959 42.516 60.4421C42.516 57.9252 40.4756 55.8848 37.9587 55.8848C35.4418 55.8848 33.4014 57.9252 33.4014 60.4421C33.4014 62.959 35.4418 64.9994 37.9587 64.9994Z" fill="#CAE3F6"/>
<path d="M52.592 64.9994C55.1089 64.9994 57.1493 62.959 57.1493 60.4421C57.1493 57.9252 55.1089 55.8848 52.592 55.8848C50.0751 55.8848 48.0347 57.9252 48.0347 60.4421C48.0347 62.959 50.0751 64.9994 52.592 64.9994Z" fill="#CAE3F6"/>
<path d="M61.7469 32.7591H22.2258C21.309 32.7053 20.4198 32.4256 19.6373 31.9448C18.8549 31.464 18.2035 30.7972 17.7412 30.0037C16.9979 28.8558 16.5934 27.5216 16.574 26.1542C16.5546 24.7868 16.9211 23.4417 17.6315 22.2732C18.3419 21.1047 19.3673 20.1601 20.5902 19.548C21.813 18.9358 23.1837 18.6808 24.5449 18.8123C25.7327 18.877 25.9832 18.4326 26.161 17.4306C26.7435 13.6583 28.4919 10.1628 31.1611 7.43419C33.8303 4.70559 37.2864 2.88067 41.045 2.21527H41.1339C45.3545 1.6246 49.6481 2.54628 53.2544 4.81715C53.61 5.0434 53.9655 5.28581 54.313 5.55246C56.3131 7.08729 57.9816 9.01141 59.2178 11.2087L59.7915 12.1864" fill="#CAE3F6"/>
<path d="M42.9116 22.6434C43.1282 21.0233 43.8422 19.5104 44.9552 18.3134C46.0682 17.1165 47.5253 16.2945 49.1254 15.9609C49.6355 15.8774 50.152 15.8395 50.6688 15.8478C52.6921 15.8469 54.6408 16.6119 56.123 17.9891C57.1705 18.9833 57.918 20.2515 58.2805 21.6495" fill="#CAE3F6"/>
<path d="M53.5859 16.3405C55.8727 12.7609 61.133 11.4438 65.3348 12.3003C67.1969 12.6539 68.9127 13.5509 70.2658 14.8782C71.619 16.2054 72.5489 17.9035 72.9384 19.7585C73.4798 22.1099 73.6495 22.9906 75.4353 24.2673C77.9887 26.0612 77.8109 30.069 75.7423 31.9598C75.1981 32.4488 74.5015 32.7343 73.7707 32.7679H60.0987" fill="#CAE3F6"/>
<path d="M29.5873 51.6511C33.0503 51.6511 35.8576 48.8437 35.8576 45.3807C35.8576 41.9177 33.0503 39.1104 29.5873 39.1104C26.1242 39.1104 23.3169 41.9177 23.3169 45.3807C23.3169 48.8437 26.1242 51.6511 29.5873 51.6511Z" stroke="#231F20" stroke-width="3" stroke-miterlimit="10" stroke-linecap="round" stroke-linejoin="round"/>
<path d="M45.9418 51.6511C49.4048 51.6511 52.2121 48.8437 52.2121 45.3807C52.2121 41.9177 49.4048 39.1104 45.9418 39.1104C42.4787 39.1104 39.6714 41.9177 39.6714 45.3807C39.6714 48.8437 42.4787 51.6511 45.9418 51.6511Z" stroke="#231F20" stroke-width="3" stroke-miterlimit="10" stroke-linecap="round" stroke-linejoin="round"/>
<path d="M62.7411 51.6511C66.2041 51.6511 69.0114 48.8437 69.0114 45.3807C69.0114 41.9177 66.2041 39.1104 62.7411 39.1104C59.278 39.1104 56.4707 41.9177 56.4707 45.3807C56.4707 48.8437 59.278 51.6511 62.7411 51.6511Z" stroke="#231F20" stroke-width="3" stroke-miterlimit="10" stroke-linecap="round" stroke-linejoin="round"/>
<path d="M37.9587 64.9994C40.4756 64.9994 42.516 62.959 42.516 60.4421C42.516 57.9252 40.4756 55.8848 37.9587 55.8848C35.4418 55.8848 33.4014 57.9252 33.4014 60.4421C33.4014 62.959 35.4418 64.9994 37.9587 64.9994Z" stroke="#231F20" stroke-width="3" stroke-miterlimit="10" stroke-linecap="round" stroke-linejoin="round"/>
<path d="M52.592 64.9994C55.1089 64.9994 57.1493 62.959 57.1493 60.4421C57.1493 57.9252 55.1089 55.8848 52.592 55.8848C50.0751 55.8848 48.0347 57.9252 48.0347 60.4421C48.0347 62.959 50.0751 64.9994 52.592 64.9994Z" stroke="#231F20" stroke-width="3" stroke-miterlimit="10" stroke-linecap="round" stroke-linejoin="round"/>
<path d="M61.4238 32.4604H21.6522C20.734 32.4067 19.8427 32.1299 19.0557 31.654C18.2686 31.1781 17.6094 30.5174 17.1353 29.7292C16.4497 28.6508 16.0604 27.4109 16.0065 26.1342C15.9526 24.8575 16.236 23.5892 16.8283 22.4569C17.529 21.201 18.5771 20.1739 19.847 19.4988C21.1168 18.8238 22.5545 18.5294 23.9875 18.651C25.1834 18.7156 25.4339 18.2793 25.6035 17.2854C26.2105 13.5127 27.9856 10.0253 30.6789 7.31461C33.3723 4.60388 36.8481 2.80633 40.6169 2.17513H40.7138C44.9483 1.58568 49.2557 2.4946 52.8909 4.74468C53.2465 4.96555 53.602 5.20796 53.9576 5.47192C55.9595 6.98486 57.6382 8.88336 58.8947 11.0555L59.4684 12.0251" stroke="black" stroke-width="3" stroke-miterlimit="10" stroke-linecap="round" stroke-linejoin="round"/>
<path d="M42.4756 22.4331C42.7025 20.8127 43.4293 19.3034 44.5548 18.1157C45.6802 16.928 47.1482 16.121 48.754 15.8072C49.2675 15.7315 49.7867 15.7017 50.3055 15.7183C52.3346 15.7138 54.2919 16.469 55.792 17.8354C56.836 18.8222 57.588 20.0775 57.9657 21.4635" stroke="black" stroke-width="3" stroke-miterlimit="10" stroke-linecap="round" stroke-linejoin="round"/>
<path d="M53.2144 16.1784C55.5173 12.6392 60.8099 11.3301 65.0359 12.2028C66.8996 12.5402 68.6214 13.4228 69.9835 14.7388C71.3456 16.0549 72.2868 17.7453 72.688 19.5964C73.2294 21.9316 73.3991 22.8285 75.201 24.0648C77.7706 25.8425 77.6252 29.818 75.5162 31.6927C74.9573 32.1676 74.2534 32.4383 73.5203 32.4603H70.9427" stroke="black" stroke-width="3" stroke-miterlimit="10" stroke-linecap="round" stroke-linejoin="round"/>
<path d="M65.2114 32.46H66.2114" stroke="black" stroke-width="3" stroke-miterlimit="10" stroke-linecap="round" stroke-linejoin="round"/>
</svg>
