<svg width="50" height="50" viewBox="0 0 50 50" fill="none" xmlns="http://www.w3.org/2000/svg">
<path d="M24.4111 2.46324C11.9136 3.92779 2.93107 15.0583 4.1027 27.6534C5.27434 40.1509 16.5025 49.231 28.9023 47.8641C31.8314 47.4736 34.4676 46.6925 37.2014 45.2279C35.6392 44.1539 34.2723 42.9823 33.0031 41.6154C28.6094 37.5147 25.5827 32.2423 24.6063 26.2865C23.5323 19.0614 25.4851 12.1292 27.7307 7.34506C28.5118 5.78288 29.2929 4.02542 30.2692 2.56088C28.4142 2.26797 26.4614 2.26797 24.4111 2.46324Z" fill="#EAD88C"/>
<path d="M4.1027 27.6534C2.93107 15.0583 11.9136 3.92779 24.4111 2.46324C26.4614 2.26797 28.4142 2.26797 30.2692 2.56088C30.2692 2.56088 26.7109 15.7273 28 24C29.3427 32.6169 37.2014 45.2279 37.2014 45.2279C34.4676 46.6925 31.8314 47.4736 28.9023 47.8641C16.5025 49.231 5.27434 40.1509 4.1027 27.6534Z" fill="#EAD88C" stroke="#232020" stroke-width="3" stroke-miterlimit="10" stroke-linejoin="round"/>
</svg>
