<svg width="13" height="19" viewBox="0 0 13 19" fill="none" xmlns="http://www.w3.org/2000/svg">
<path d="M6.5 0C2.90643 0 0 2.90643 0 6.50001C0 8.11572 0.464285 9.62929 1.30929 10.9943C2.19143 12.4243 3.35214 13.65 4.24357 15.08C4.68 15.7764 4.99571 16.4264 5.33 17.1786C5.57143 17.6893 5.76643 18.5714 6.5 18.5714C7.23357 18.5714 7.42857 17.6893 7.66071 17.1786C8.00429 16.4264 8.31071 15.7764 8.74714 15.08C9.63857 13.6593 10.7993 12.4336 11.6814 10.9943C12.5357 9.62929 13 8.11572 13 6.50001C13 2.90643 10.0936 0 6.5 0ZM6.5 9.05358C5.21857 9.05358 4.17857 8.01358 4.17857 6.73215C4.17857 5.45072 5.21857 4.41072 6.5 4.41072C7.78143 4.41072 8.82143 5.45072 8.82143 6.73215C8.82143 8.01358 7.78143 9.05358 6.5 9.05358Z" fill="white"/>
</svg>
