<svg width="93" height="67" viewBox="0 0 93 67" fill="none" xmlns="http://www.w3.org/2000/svg">
<path d="M21.9085 9.37213C10.331 10.7289 2.00976 21.04 3.09514 32.7079C4.27098 44.2853 14.5821 52.6066 26.0691 51.4307C28.7826 51.0689 31.2247 50.3454 33.7572 48.9886C32.31 47.9937 31.0438 46.9083 29.8679 45.642C25.7977 41.8432 22.9938 36.959 22.0894 31.4416C21.0944 24.7484 22.9034 18.3265 24.9837 13.8946C25.7073 12.4474 26.4309 10.8193 27.3354 9.46258C25.6169 9.10078 23.7174 9.10078 21.9085 9.37213Z" fill="#EAD88C"/>
<path d="M21.9085 9.37213C10.331 10.7289 2.00976 21.04 3.09514 32.7079C4.27098 44.2853 14.5821 52.6066 26.0691 51.4307C28.7826 51.0689 31.2247 50.3454 33.7572 48.9886C32.31 47.9937 31.0438 46.9083 29.8679 45.642C25.7977 41.8432 22.9938 36.959 22.0894 31.4416C21.0944 24.7484 22.9034 18.3265 24.9837 13.8946C25.7073 12.4474 26.4309 10.8193 27.3354 9.46258C25.6169 9.10078 23.7174 9.10078 21.9085 9.37213Z" stroke="black" stroke-width="3" stroke-miterlimit="10" stroke-linecap="round" stroke-linejoin="round"/>
<path d="M72.3782 60.6559H25.2545C23.2646 60.6559 20.6416 59.1183 19.918 57.3998C18.1995 54.7768 18.1091 51.5206 19.5562 48.7167C21.2748 45.6415 24.5309 43.9229 28.0584 44.1943C29.5056 44.2847 29.7769 43.7421 29.9578 42.5662C31.4955 33.4309 38.6409 26.195 47.7762 24.7478H47.8667C52.8413 24.0243 57.9969 25.1096 62.3384 27.8231C62.7907 28.0944 63.1525 28.3658 63.6047 28.6371C65.9564 30.4461 67.9463 32.7073 69.4839 35.2399L70.2075 36.4157" fill="#CAE3F6"/>
<path d="M49.9473 48.8077C50.49 44.9184 53.4748 41.7527 57.364 40.9387C57.9972 40.8483 58.5399 40.7578 59.173 40.7578C61.6151 40.7578 63.8764 41.6623 65.6853 43.2904C66.9516 44.4662 67.8561 45.9134 68.3083 47.6319" fill="#CAE3F6"/>
<path d="M62.7002 41.3908C65.4137 37.2301 71.7451 35.602 76.7197 36.6874C81.2422 37.5015 84.7697 40.9385 85.7646 45.4609C86.3977 48.2648 86.5786 49.2598 88.7494 50.7974C91.8247 52.8777 91.5533 57.5811 89.1112 59.8423C88.478 60.385 87.664 60.7468 86.7595 60.7468H70.4788" fill="#CAE3F6"/>
<path d="M72.3782 60.5661H25.2545C23.2646 60.5661 20.6416 59.0285 19.918 57.3099C18.1995 54.6869 18.1091 51.4308 19.5562 48.7173C21.2748 45.6421 24.5309 43.9236 28.0584 44.1949C29.5056 44.2853 29.7769 43.7427 29.9578 42.5668C31.405 33.4315 38.6409 26.1956 47.7762 24.658H47.8667C52.8413 23.9344 57.9969 25.0198 62.3384 27.7333C62.7907 28.0046 63.2429 28.2759 63.6047 28.5473C65.9564 30.3563 67.9463 32.6175 69.4839 35.15L70.2075 36.3259" stroke="black" stroke-width="3" stroke-miterlimit="10" stroke-linecap="round" stroke-linejoin="round"/>
<path d="M49.9473 48.6268C50.49 44.7375 53.4748 41.5718 57.364 40.7578C57.9972 40.6673 58.5399 40.5769 59.173 40.6673C61.6151 40.6673 63.8764 41.5718 65.6853 43.1999C66.9516 44.3757 67.8561 45.8229 68.3083 47.5414" stroke="black" stroke-width="3" stroke-miterlimit="10" stroke-linecap="round" stroke-linejoin="round"/>
<path d="M62.7002 41.3005C65.4137 37.1398 71.7451 35.6022 76.7197 36.5972C81.2422 37.4112 84.7697 40.8482 85.7646 45.3707C86.3977 48.0841 86.5786 49.1695 88.7494 50.7071C91.8247 52.7875 91.5533 57.4908 89.1112 59.752C88.478 60.2947 87.664 60.6565 86.7595 60.6565H83.7747" stroke="black" stroke-width="3" stroke-miterlimit="10" stroke-linecap="round" stroke-linejoin="round"/>
<path d="M76.7246 60.5664H78.7246" stroke="black" stroke-width="3" stroke-miterlimit="10" stroke-linecap="round" stroke-linejoin="round"/>
</svg>
