<svg width="93" height="67" viewBox="0 0 93 67" fill="none" xmlns="http://www.w3.org/2000/svg">
<path d="M33.8529 14.1514C29.9113 14.1498 26.0577 15.3173 22.7797 17.5061C19.5016 19.695 16.9464 22.807 15.4373 26.4483C13.9281 30.0896 13.5328 34.0967 14.3014 37.9627C15.07 41.8287 16.968 45.3799 19.7551 48.1671C22.5423 50.9543 26.0935 52.8522 29.9595 53.6208C33.8255 54.3894 37.8326 53.9941 41.4739 52.485C45.1153 50.9758 48.2272 48.4206 50.4161 45.1426C52.605 41.8645 53.7724 38.011 53.7709 34.0693C53.7645 28.7887 51.6639 23.7262 47.93 19.9922C44.196 16.2583 39.1335 14.1577 33.8529 14.1514Z" fill="#F5B952"/>
<path d="M74.508 63.2594H32.6635C30.9039 63.2594 28.5738 61.8774 27.907 60.383C27.1778 59.2459 26.7638 57.9355 26.7074 56.5859C26.6509 55.2363 26.954 53.8959 27.5856 52.7018C28.3201 51.3782 29.4214 50.2949 30.757 49.5822C32.0925 48.8695 33.6055 48.5578 35.114 48.6845C36.3755 48.7488 36.6406 48.2828 36.7933 47.2383C37.4383 43.2675 39.3124 39.5991 42.1519 36.7495C44.9914 33.9 48.6531 32.0128 52.6216 31.3538H52.718C57.1899 30.7285 61.7393 31.6925 65.5734 34.0775C65.943 34.3025 66.3207 34.5596 66.6903 34.8328C68.7979 36.4269 70.5654 38.4266 71.8887 40.7141L72.4913 41.7345" fill="#CAE3F6"/>
<path d="M54.5742 52.6699C54.8156 50.9647 55.5821 49.3769 56.767 48.1271C57.952 46.8774 59.4968 46.0276 61.1867 45.6958C61.7177 45.6073 62.2555 45.5669 62.7937 45.5753C64.9311 45.57 66.9927 46.3671 68.5706 47.8089C69.6751 48.8411 70.466 50.1639 70.8524 51.6254" fill="#CAE3F6"/>
<path d="M65.8789 46.0894C68.2893 42.3533 73.8734 40.9794 78.3246 41.8953C80.2816 42.2578 82.088 43.19 83.5174 44.5751C84.9467 45.9601 85.9353 47.7363 86.3592 49.6809C86.9297 52.1395 87.1065 53.0715 89.0027 54.3892C91.7023 56.2613 91.5175 60.4393 89.3321 62.4239C88.7456 62.9238 88.0054 63.2074 87.235 63.2273H72.7726" fill="#CAE3F6"/>
<path d="M52.1885 26.3001C50.9852 23.3573 49.0949 20.7453 46.6757 18.6825C44.2564 16.6197 41.3785 15.166 38.2825 14.4429C35.1866 13.7198 31.9625 13.7483 28.8798 14.5261C25.7971 15.3039 22.9454 16.8083 20.563 18.9135C18.1806 21.0188 16.3369 23.6638 15.1858 26.6274C14.0347 29.591 13.6098 32.7871 13.9465 35.9485C14.2833 39.1099 15.3719 42.1448 17.1214 44.7994C18.871 47.4541 21.2306 49.6513 24.0029 51.2075" stroke="black" stroke-width="3" stroke-miterlimit="10" stroke-linecap="round"/>
<path d="M33.7007 13.8548V3" stroke="black" stroke-width="3" stroke-miterlimit="10" stroke-linecap="round"/>
<path d="M13.8548 33.9092H3" stroke="black" stroke-width="3" stroke-miterlimit="10" stroke-linecap="round"/>
<path d="M19.6323 19.7768L11.9512 12.0957" stroke="black" stroke-width="3" stroke-miterlimit="10" stroke-linecap="round"/>
<path d="M47.8413 19.6313L55.5144 11.9502" stroke="black" stroke-width="3" stroke-miterlimit="10" stroke-linecap="round"/>
<path d="M19.7763 47.9863L12.0952 55.6594" stroke="black" stroke-width="3" stroke-miterlimit="10" stroke-linecap="round"/>
<path d="M74.508 63.2594H32.6635C30.9039 63.2594 28.5738 61.8774 27.907 60.383C27.1778 59.2459 26.7638 57.9355 26.7074 56.5859C26.6509 55.2363 26.954 53.8959 27.5856 52.7018C28.3201 51.3782 29.4214 50.2949 30.757 49.5822C32.0925 48.8695 33.6055 48.5578 35.114 48.6845C36.3755 48.7488 36.6406 48.2828 36.7933 47.2383C37.4383 43.2675 39.3124 39.5991 42.1519 36.7495C44.9914 33.9 48.6531 32.0128 52.6216 31.3538H52.718C57.1899 30.7285 61.7393 31.6925 65.5734 34.0775C65.943 34.3025 66.3207 34.5596 66.6903 34.8328C68.7979 36.4269 70.5654 38.4266 71.8887 40.7141L72.4913 41.7345" stroke="black" stroke-width="3" stroke-miterlimit="10" stroke-linecap="round"/>
<path d="M54.5742 52.6699C54.8156 50.9647 55.5821 49.3769 56.767 48.1271C57.952 46.8774 59.4968 46.0276 61.1867 45.6958C61.7177 45.6073 62.2555 45.5669 62.7937 45.5753C64.9311 45.57 66.9927 46.3671 68.5706 47.8089C69.6751 48.8411 70.466 50.1639 70.8524 51.6254" stroke="black" stroke-width="3" stroke-miterlimit="10" stroke-linecap="round"/>
<path d="M65.8789 46.0894C68.2893 42.3533 73.8734 40.9794 78.3246 41.8953C80.2816 42.2578 82.088 43.19 83.5174 44.5751C84.9467 45.9601 85.9353 47.7363 86.3592 49.6809C86.9297 52.1395 87.1065 53.0715 89.0027 54.3892C91.7023 56.2613 91.5175 60.4393 89.3321 62.4239C88.7456 62.9238 88.0054 63.2074 87.235 63.2273H84.5354" stroke="black" stroke-width="3" stroke-miterlimit="10" stroke-linecap="round"/>
<path d="M78.457 63.2197H79.7957" stroke="black" stroke-width="3" stroke-miterlimit="10" stroke-linecap="round"/>
</svg>
