<svg width="93" height="67" viewBox="0 0 93 67" fill="none" xmlns="http://www.w3.org/2000/svg">
<g clip-path="url(#clip0_114_866)">
<path d="M28.3567 3.92662C18.954 5.0285 12.1958 13.4028 13.0773 22.879C14.0322 32.2817 22.4065 39.0399 31.8093 38.085C34.013 37.7911 35.9964 37.2035 38.0533 36.1016C36.8779 35.2935 35.8495 34.412 34.8945 33.3836C31.5889 30.2983 29.3117 26.3316 28.5771 21.8506C27.769 16.4146 29.2382 11.199 30.9278 7.59956C31.5154 6.42422 32.1031 5.10196 32.8377 4.00008C31.3685 3.70624 29.8259 3.70624 28.3567 3.92662Z" fill="#EAD88C"/>
<path d="M28.3567 3.92662C18.954 5.0285 12.1958 13.4028 13.0773 22.879C14.0322 32.2817 22.4065 39.0399 31.8093 38.085C34.013 37.7911 35.9964 37.2035 38.0533 36.1016C36.8779 35.2935 35.8495 34.412 34.8945 33.3836C31.5889 30.2983 29.3117 26.3316 28.5771 21.8506C27.769 16.4146 29.2382 11.199 30.9278 7.59956C31.5154 6.42422 32.1031 5.10196 32.8377 4.00008C31.3685 3.70624 29.8259 3.70624 28.3567 3.92662Z" stroke="black" stroke-width="2.5" stroke-miterlimit="10" stroke-linecap="round" stroke-linejoin="round"/>
<path d="M66.0412 42.7136H30.2667C28.5772 42.6402 27.0346 41.6852 26.2265 40.216C24.2431 37.1308 25.1981 33.0171 28.2834 31.1071C29.5322 30.2991 30.9279 30.0053 32.397 30.0787C33.4989 30.1522 33.7193 29.7114 33.8662 28.8299C34.9681 21.7779 40.3306 16.2685 47.3826 15.0197H47.4561C51.276 14.5055 55.1693 15.3135 58.4015 17.3703C58.6953 17.5907 59.0626 17.8111 59.3564 18.0315C61.1194 19.4272 62.6621 21.1902 63.764 23.1001L64.2782 23.9816" fill="#CAE3F6"/>
<path d="M48.999 33.5307C49.3663 30.5189 51.6435 28.0947 54.6554 27.5071C55.0961 27.4336 55.6103 27.4336 56.0511 27.4336C57.8875 27.4336 59.6505 28.0947 60.9728 29.3435C61.9278 30.225 62.5889 31.4004 62.9562 32.6492" fill="#CAE3F6"/>
<path d="M58.6216 28.5352C60.6784 25.303 65.4533 24.1276 69.2731 24.8622C72.7257 25.5234 75.4437 28.1679 76.1782 31.6204C76.6925 33.7508 76.8394 34.5588 78.4555 35.7341C80.7327 37.3502 80.5858 40.9497 78.7493 42.7127C78.2351 43.1535 77.6474 43.3739 76.9863 43.4473H64.6452" fill="#CAE3F6"/>
<path d="M33.7925 64.1627L37.7593 59.9756L41.6526 64.0158" stroke="black" stroke-width="2.5" stroke-miterlimit="10" stroke-linecap="round"/>
<path d="M41.6526 47.8545L37.6858 52.0416L33.7925 48.0014" stroke="black" stroke-width="2.5" stroke-miterlimit="10" stroke-linecap="round"/>
<path d="M37.686 45.8721V65.9998" stroke="black" stroke-width="2.5" stroke-miterlimit="10" stroke-linecap="round"/>
<path d="M45.913 59.8286L41.7993 55.9353L45.8396 52.042" stroke="black" stroke-width="2.5" stroke-miterlimit="10" stroke-linecap="round"/>
<path d="M29.6792 52.042L33.7929 56.0088L29.7527 59.8286" stroke="black" stroke-width="2.5" stroke-miterlimit="10" stroke-linecap="round"/>
<path d="M27.6958 56.0098H47.7501" stroke="black" stroke-width="2.5" stroke-miterlimit="10" stroke-linecap="round"/>
<path d="M74.1951 59.168L69.6406 63.502" stroke="black" stroke-width="3" stroke-miterlimit="10" stroke-linecap="round"/>
<path d="M58.6951 59.168L54.1406 63.502" stroke="black" stroke-width="3" stroke-miterlimit="10" stroke-linecap="round"/>
<path d="M74.1951 50.5L69.6406 54.8341" stroke="black" stroke-width="3" stroke-miterlimit="10" stroke-linecap="round"/>
<path d="M58.6951 50.5L54.1406 54.8341" stroke="black" stroke-width="3" stroke-miterlimit="10" stroke-linecap="round"/>
<path d="M65.9679 43.0804H29.8261C28.1366 43.0069 26.5939 42.052 25.7124 40.5828C24.4636 38.5994 24.3167 36.0283 25.4186 33.9715C26.7408 31.6208 29.2384 30.2986 31.883 30.5189C32.9848 30.5924 33.2052 30.1516 33.3521 29.2701C34.454 22.2181 39.9634 16.7087 47.0155 15.5333H47.0889C50.9088 15.0191 54.8756 15.8272 58.1812 17.884C58.4751 18.1044 58.8424 18.3248 59.1362 18.5451C60.9727 19.9409 62.5153 21.6304 63.6172 23.6138L64.1314 24.4953" stroke="black" stroke-width="2.5" stroke-miterlimit="10" stroke-linecap="round" stroke-linejoin="round"/>
<path d="M46.7466 33.2369C47.1873 30.2251 49.4646 27.8009 52.4764 27.2133C52.9171 27.1398 53.4313 27.0663 53.8721 27.1398C55.7086 27.1398 57.4716 27.8009 58.8673 29.0497C59.8223 29.9312 60.4834 31.1066 60.8507 32.3554" stroke="black" stroke-width="2.5" stroke-miterlimit="10" stroke-linecap="round" stroke-linejoin="round"/>
<path d="M58.313 28.2565C60.5044 24.9926 65.4162 23.8058 69.3456 24.6217C72.8972 25.2894 75.6931 27.9598 76.5244 31.4463C77.0533 33.5975 77.2045 34.4134 78.8669 35.5261C81.285 37.1581 81.1339 40.7929 79.1692 42.499C78.6402 42.9441 77.9601 43.1666 77.28 43.1666H74.8619" stroke="black" stroke-width="2.5" stroke-miterlimit="10" stroke-linecap="round" stroke-linejoin="round"/>
<path d="M69.4814 43.3623H71.5132" stroke="black" stroke-width="2.5" stroke-miterlimit="10" stroke-linecap="round" stroke-linejoin="round"/>
</g>
<defs>
<clipPath id="clip0_114_866">
<rect width="93" height="67" fill="white"/>
</clipPath>
</defs>
</svg>
