<svg width="93" height="67" viewBox="0 0 93 67" fill="none" xmlns="http://www.w3.org/2000/svg">
<path d="M37.1015 9.60645C34.2356 9.60645 31.4341 10.4564 29.0514 12.0487C26.6686 13.641 24.8115 15.9042 23.7151 18.5521C22.6186 21.1999 22.3321 24.1134 22.8917 26.9241C23.4512 29.7348 24.8318 32.3165 26.8587 34.3425C28.8856 36.3685 31.4679 37.7479 34.2788 38.3063C37.0898 38.8646 40.0032 38.5768 42.6505 37.4792C45.2979 36.3816 47.5603 34.5235 49.1516 32.14C50.7428 29.7565 51.5915 26.9546 51.5902 24.0888C51.5852 20.2483 50.0568 16.5666 47.3406 13.8516C44.6243 11.1365 40.942 9.60983 37.1015 9.60645Z" fill="#F5B952"/>
<path d="M65.6942 44.5123H36.1278C35.4444 44.474 34.7808 44.269 34.1949 43.9152C33.609 43.5614 33.1186 43.0696 32.7665 42.4827C32.2513 41.6802 31.9584 40.7553 31.9179 39.8025C31.8774 38.8497 32.0907 37.9032 32.536 37.0599C33.0576 36.1277 33.8369 35.3656 34.7805 34.8648C35.7241 34.3641 36.792 34.1459 37.8564 34.2364C38.7528 34.2812 38.9384 33.9547 39.0473 33.212C39.5005 30.409 40.8218 27.8189 42.825 25.8065C44.8282 23.7941 47.4122 22.461 50.2131 21.9949H50.2771C53.4285 21.561 56.6325 22.2403 59.3366 23.9157C59.5991 24.0757 59.868 24.2614 60.1305 24.4535C61.6182 25.5801 62.8655 26.9929 63.7991 28.6086L64.2217 29.3321" fill="#CAE3F6"/>
<path d="M51.6025 37.0532C51.774 35.8488 52.3161 34.7277 53.1536 33.8454C53.9911 32.9632 55.0825 32.3635 56.2763 32.1297C56.6554 32.0697 57.0386 32.0398 57.4224 32.04C58.9332 32.041 60.3895 32.6048 61.5071 33.6214C62.2869 34.351 62.8459 35.285 63.1205 36.3169" fill="#CAE3F6"/>
<path d="M59.5928 32.4051C61.3022 29.7737 65.2397 28.8006 68.3833 29.4472C69.7684 29.701 71.0476 30.3585 72.0603 31.337C73.0729 32.3155 73.7739 33.5713 74.0751 34.9469C74.472 36.682 74.6001 37.3414 75.9446 38.2698C77.8653 39.5887 77.7181 42.5466 76.1687 43.9423C75.7531 44.292 75.2325 44.4926 74.6897 44.5122H64.4458" fill="#CAE3F6"/>
<path d="M36.9155 63.3933L40.3536 59.7695L43.7341 63.2845" stroke="black" stroke-width="2" stroke-miterlimit="10" stroke-linecap="round"/>
<path d="M43.7341 49.2178L40.3024 52.8352L36.9155 49.3202" stroke="black" stroke-width="2" stroke-miterlimit="10" stroke-linecap="round"/>
<path d="M40.2959 47.4834V65.0005" stroke="black" stroke-width="2" stroke-miterlimit="10" stroke-linecap="round"/>
<path d="M47.4734 59.6545L43.8496 56.2164L47.3645 52.8359" stroke="black" stroke-width="2" stroke-miterlimit="10" stroke-linecap="round"/>
<path d="M33.2983 52.8359L36.9157 56.2676L33.4072 59.6545" stroke="black" stroke-width="2" stroke-miterlimit="10" stroke-linecap="round"/>
<path d="M31.5693 56.2666H49.0864" stroke="black" stroke-width="2" stroke-miterlimit="10" stroke-linecap="round"/>
<path d="M72.1223 59.0391L68.1528 62.8037" stroke="black" stroke-width="2" stroke-miterlimit="10" stroke-linecap="round"/>
<path d="M58.6136 59.0391L54.6377 62.8037" stroke="black" stroke-width="2" stroke-miterlimit="10" stroke-linecap="round"/>
<path d="M72.1223 51.4912L68.1528 55.2558" stroke="black" stroke-width="2" stroke-miterlimit="10" stroke-linecap="round"/>
<path d="M58.6136 51.4912L54.6377 55.2558" stroke="black" stroke-width="2" stroke-miterlimit="10" stroke-linecap="round"/>
<path d="M49.842 18.4986C48.9876 16.4227 47.6493 14.5811 45.9389 13.1273C44.2284 11.6735 42.1952 10.6496 40.0088 10.1409C37.8223 9.63214 35.546 9.65338 33.3694 10.2028C31.1928 10.7522 29.1791 11.8139 27.4961 13.2994C25.813 14.7849 24.5094 16.6512 23.6939 18.7426C22.8783 20.8341 22.5745 23.0902 22.8076 25.3229C23.0408 27.5556 23.8043 29.7002 25.0344 31.578C26.2644 33.4558 27.9255 35.0124 29.8792 36.1181" stroke="black" stroke-width="2.5" stroke-miterlimit="10" stroke-linecap="round"/>
<path d="M36.749 9.68933V2" stroke="black" stroke-width="2.5" stroke-miterlimit="10" stroke-linecap="round"/>
<path d="M22.6893 23.8965H15" stroke="black" stroke-width="2.5" stroke-miterlimit="10" stroke-linecap="round"/>
<path d="M26.7805 13.8825L21.3384 8.44043" stroke="black" stroke-width="2.5" stroke-miterlimit="10" stroke-linecap="round"/>
<path d="M46.7622 13.7809L52.1979 8.33887" stroke="black" stroke-width="2.5" stroke-miterlimit="10" stroke-linecap="round"/>
<path d="M26.883 33.8643L21.4409 39.2999" stroke="black" stroke-width="2.5" stroke-miterlimit="10" stroke-linecap="round"/>
<path d="M65.6625 44.6598H36.0128C35.3275 44.6229 34.6618 44.4179 34.0744 44.0628C33.4871 43.7077 32.9962 43.2135 32.6451 42.6238C32.1317 41.823 31.8398 40.9003 31.7993 39.9499C31.7588 38.9995 31.9711 38.0553 32.4146 37.2137C32.9361 36.2776 33.7167 35.5119 34.6628 35.0088C35.6089 34.5056 36.6802 34.2864 37.7479 34.3774C38.6442 34.4223 38.8299 34.0957 38.9387 33.3531C39.39 30.5359 40.7151 27.9318 42.7267 25.9087C44.7384 23.8856 47.3349 22.5457 50.1494 22.0784H50.2198C53.3774 21.6415 56.5884 22.3208 59.2985 23.9991C59.561 24.1656 59.8299 24.3448 60.0924 24.5369C61.5874 25.6644 62.8395 27.0821 63.7738 28.7049L64.2027 29.4284" stroke="black" stroke-width="2.5" stroke-miterlimit="10" stroke-linecap="round"/>
<path d="M51.5322 37.2137C51.7034 36.0069 52.2459 34.8832 53.0846 33.9987C53.9232 33.1141 55.0164 32.5126 56.2124 32.2774C56.5954 32.2143 56.9831 32.1843 57.3713 32.1878C58.8845 32.1859 60.3438 32.75 61.4624 33.7692C62.2388 34.4948 62.7994 35.421 63.0822 36.4454" stroke="black" stroke-width="2.5" stroke-miterlimit="10" stroke-linecap="round"/>
<path d="M59.5415 32.5205C61.2574 29.8763 65.2013 28.8904 68.3577 29.5306C69.7466 29.7859 71.0291 30.4459 72.0441 31.4279C73.059 32.4098 73.7612 33.6698 74.0622 35.0495C74.4656 36.7846 74.5936 37.4504 75.9382 38.3788C77.8589 39.7041 77.718 42.6684 76.1686 44.0705C75.7506 44.4203 75.228 44.6208 74.6833 44.6404H72.7625" stroke="black" stroke-width="2.5" stroke-miterlimit="10" stroke-linecap="round"/>
<path d="M68.7432 44.6592H69.7432" stroke="black" stroke-width="2.5" stroke-miterlimit="10" stroke-linecap="round"/>
</svg>
