<svg width="93" height="67" viewBox="0 0 93 67" fill="none" xmlns="http://www.w3.org/2000/svg">
<g clip-path="url(#clip0_114_828)">
<path d="M65.8361 40.9578H15.2073C13.0889 40.9578 10.2708 39.2864 9.46424 37.4692C8.58436 36.0989 8.08387 34.5196 8.01388 32.8926C7.94388 31.2656 8.30688 29.6492 9.06582 28.2083C9.95587 26.6066 11.2895 25.2961 12.9065 24.4341C14.5235 23.5722 16.355 23.1956 18.1809 23.3495C19.7066 23.4273 20.0176 22.8734 20.2119 21.6004C20.9891 16.7993 23.2539 12.3634 26.6868 8.91823C30.1198 5.47309 34.5476 3.19258 39.3459 2.39836H39.4625C44.8699 1.6393 50.3723 2.80167 55.0107 5.68291C55.4674 5.96472 55.9241 6.26597 56.3711 6.65467C58.922 8.57806 61.0574 10.9977 62.6487 13.768L63.3873 14.9341" fill="#CAE3F6"/>
<path d="M41.7168 28.2076C42.0082 26.1465 42.9337 24.2272 44.365 22.7158C45.7963 21.2044 47.6625 20.1758 49.7047 19.7727C50.348 19.6756 50.9976 19.6269 51.6482 19.627C54.2323 19.6262 56.7237 20.5895 58.6352 22.3284C59.9792 23.5707 60.9515 25.1621 61.4435 26.9249" fill="#CAE3F6"/>
<path d="M55.3896 20.2198C58.3049 15.7108 65.0587 14.0491 70.4422 15.1569C72.8097 15.5942 74.9951 16.7212 76.724 18.3966C78.453 20.0719 79.6483 22.2208 80.1598 24.5733C80.8401 27.4886 81.0636 28.6741 83.3569 30.2581C86.622 32.5223 86.3888 37.5852 83.7456 39.9757C83.0361 40.5736 82.1463 40.9158 81.2191 40.9475H63.7274" fill="#CAE3F6"/>
<path d="M72.0361 60.2861L66.0015 66.0001" stroke="black" stroke-width="3" stroke-miterlimit="10" stroke-linecap="round"/>
<path d="M31.0083 60.2861L24.9834 66.0001" stroke="black" stroke-width="3" stroke-miterlimit="10" stroke-linecap="round"/>
<path d="M51.522 60.2861L45.4971 66.0001" stroke="black" stroke-width="3" stroke-miterlimit="10" stroke-linecap="round"/>
<path d="M72.0361 47.8564L66.0015 53.5704" stroke="black" stroke-width="3" stroke-miterlimit="10" stroke-linecap="round"/>
<path d="M31.0083 47.8564L24.9834 53.5704" stroke="black" stroke-width="3" stroke-miterlimit="10" stroke-linecap="round"/>
<path d="M51.522 47.8564L45.4971 53.5704" stroke="black" stroke-width="3" stroke-miterlimit="10" stroke-linecap="round"/>
<path d="M65.8361 40.7828H15.2074C13.0889 40.7828 10.2708 39.1114 9.46427 37.3039C8.58088 35.9295 8.07848 34.3451 8.00847 32.7128C7.93847 31.0805 8.30337 29.4589 9.06584 28.0139C9.9559 26.4122 11.2896 25.1016 12.9066 24.2397C14.5236 23.3777 16.3551 23.0011 18.181 23.1551C19.7066 23.2328 20.0176 22.6789 20.2119 21.4156C20.991 16.6163 23.2566 12.1826 26.6894 8.73932C30.1222 5.29606 34.549 3.01698 39.3459 2.22334H39.4625C44.8697 1.47095 50.3698 2.63284 55.0107 5.50789C55.4674 5.7897 55.9242 6.10066 56.3712 6.47965C58.9199 8.4054 61.0548 10.8246 62.6487 13.5929L63.3873 14.7591" stroke="black" stroke-width="3" stroke-miterlimit="10" stroke-linecap="round"/>
<path d="M41.7168 28.0042C42.0087 25.9444 42.9346 24.0265 44.366 22.5167C45.7974 21.0069 47.6633 19.9802 49.7047 19.5791C50.3739 19.483 51.0501 19.444 51.7259 19.4625C54.312 19.4606 56.8049 20.428 58.7129 22.1737C60.0286 23.4176 60.9739 25.0019 61.4435 26.7507" stroke="black" stroke-width="3" stroke-miterlimit="10" stroke-linecap="round"/>
<path d="M55.3896 20.0556C58.3049 15.5369 65.0587 13.8752 70.4422 14.983C72.8091 15.4215 74.994 16.5489 76.7227 18.2241C78.4514 19.8992 79.6471 22.0474 80.1598 24.3994C80.8401 27.373 81.0636 28.5002 83.3569 30.0939C86.622 32.3484 86.3888 37.4113 83.7456 39.8115C83.0361 40.4094 82.1463 40.7516 81.2191 40.7833H77.9637" stroke="black" stroke-width="3" stroke-miterlimit="10" stroke-linecap="round"/>
<path d="M70.3926 40.7725H72.6304" stroke="black" stroke-width="3" stroke-miterlimit="10" stroke-linecap="round"/>
</g>
<defs>
<clipPath id="clip0_114_828">
<rect width="93" height="67" fill="white"/>
</clipPath>
</defs>
</svg>
