<svg width="93" height="67" viewBox="0 0 93 67" fill="none" xmlns="http://www.w3.org/2000/svg">
<g clip-path="url(#clip0_114_845)">
<path d="M64.5302 37.7567H17.9909C16.0428 37.7567 13.5022 36.2216 12.7122 34.5518C11.9013 33.2898 11.4407 31.8348 11.3776 30.3361C11.3145 28.8374 11.6512 27.3489 12.3531 26.0232C13.1672 24.5486 14.3899 23.3405 15.8742 22.5442C17.3586 21.7479 19.0413 21.3972 20.7201 21.5344C22.1296 21.6062 22.4168 21.0945 22.5874 19.9364C23.3114 15.5288 25.3979 11.4587 28.5539 8.29792C31.7099 5.1371 35.7768 3.04434 40.1833 2.31363H40.291C45.2455 1.62318 50.2855 2.68707 54.5383 5.32108C54.9602 5.57245 55.3732 5.85973 55.7862 6.16497C58.1366 7.94702 60.103 10.1852 61.5677 12.7455L62.232 13.8856" fill="#CAE3F6"/>
<path d="M42.3555 26.0143C42.6209 24.1192 43.4711 22.3543 44.7875 20.9654C46.1039 19.5766 47.8209 18.6332 49.6991 18.2667C50.2925 18.1692 50.8931 18.1212 51.4945 18.1231C53.87 18.1194 56.1605 19.0067 57.9135 20.6099C59.1447 21.7582 60.0282 23.2297 60.4631 24.8562" fill="#CAE3F6"/>
<path d="M54.9238 18.6978C57.6171 14.5502 63.8115 13.0241 68.7581 14.0385C70.9412 14.4348 72.9584 15.4679 74.5558 17.0079C76.1532 18.5478 77.2595 20.5257 77.7356 22.6928C78.364 25.3861 78.5615 26.4634 80.6713 27.9267C83.6697 30.0095 83.4633 34.6598 81.0304 36.8503C80.3784 37.4026 79.5592 37.7189 78.7052 37.748H62.5906" fill="#CAE3F6"/>
<path d="M20.7915 63.7473L25.6034 58.666L30.3435 63.5947" stroke="black" stroke-width="3" stroke-miterlimit="10" stroke-linecap="round"/>
<path d="M30.3435 43.8701L25.5316 48.9424L20.7915 44.0138" stroke="black" stroke-width="3" stroke-miterlimit="10" stroke-linecap="round"/>
<path d="M25.5317 41.4463V65.9997" stroke="black" stroke-width="3" stroke-miterlimit="10" stroke-linecap="round"/>
<path d="M35.5864 58.5044L30.5142 53.6835L35.4428 48.9434" stroke="black" stroke-width="3" stroke-miterlimit="10" stroke-linecap="round"/>
<path d="M15.71 48.9434L20.7912 53.7643L15.8626 58.5044" stroke="black" stroke-width="3" stroke-miterlimit="10" stroke-linecap="round"/>
<path d="M13.2866 53.7646H37.849" stroke="black" stroke-width="3" stroke-miterlimit="10" stroke-linecap="round"/>
<path d="M70.159 57.6416L64.584 62.9204" stroke="black" stroke-width="3" stroke-miterlimit="10" stroke-linecap="round"/>
<path d="M51.2076 57.6416L45.6416 62.9204" stroke="black" stroke-width="3" stroke-miterlimit="10" stroke-linecap="round"/>
<path d="M70.159 46.1602L64.584 51.4389" stroke="black" stroke-width="3" stroke-miterlimit="10" stroke-linecap="round"/>
<path d="M51.2076 46.1602L45.6416 51.4389" stroke="black" stroke-width="3" stroke-miterlimit="10" stroke-linecap="round"/>
<path d="M64.4311 37.829H17.6584C15.7013 37.829 13.0979 36.2849 12.3527 34.6151C11.5366 33.3453 11.0725 31.8816 11.0078 30.3736C10.9432 28.8656 11.2803 27.3675 11.9847 26.0326C12.8069 24.5529 14.039 23.3421 15.5329 22.5458C17.0267 21.7496 18.7187 21.4016 20.4055 21.5438C21.815 21.6157 22.1023 21.1039 22.2818 19.9369C23.0016 15.5031 25.0946 11.407 28.2659 8.22603C31.4373 5.04503 35.527 2.93953 39.9585 2.20633H40.0662C45.0616 1.51125 50.1428 2.58464 54.4302 5.24072C54.8522 5.50107 55.2741 5.78835 55.6871 6.13847C58.0417 7.91754 60.014 10.1525 61.4865 12.71L62.1688 13.7873" stroke="black" stroke-width="3" stroke-miterlimit="10" stroke-linecap="round"/>
<path d="M42.1494 26.0233C42.4191 24.1203 43.2745 22.3484 44.5968 20.9537C45.9192 19.5589 47.643 18.6104 49.5289 18.2398C50.1472 18.151 50.7719 18.115 51.3962 18.132C53.7854 18.1303 56.0884 19.024 57.851 20.6368C59.0666 21.786 59.9398 23.2496 60.3737 24.8652" stroke="black" stroke-width="3" stroke-miterlimit="10" stroke-linecap="round"/>
<path d="M54.7803 18.6801C57.4735 14.5056 63.7129 12.9705 68.6864 13.9939C70.8731 14.3989 72.8915 15.4405 74.4885 16.9881C76.0856 18.5356 77.1902 20.5203 77.6639 22.6931C78.2923 25.4402 78.4988 26.4816 80.6175 27.9539C83.6339 30.0367 83.4184 34.7139 80.9766 36.9314C80.3211 37.4837 79.4991 37.7999 78.6424 37.8291H75.635" stroke="black" stroke-width="3" stroke-miterlimit="10" stroke-linecap="round"/>
<path d="M69.7168 37.8193H70.7168" stroke="black" stroke-width="3" stroke-miterlimit="10" stroke-linecap="round"/>
</g>
<defs>
<clipPath id="clip0_114_845">
<rect width="93" height="67" fill="white"/>
</clipPath>
</defs>
</svg>
