<svg width="93" height="67" viewBox="0 0 93 67" fill="none" xmlns="http://www.w3.org/2000/svg">
<path d="M27.8252 3.9861C18.1356 5.1216 11.1712 13.7514 12.0796 23.5167C12.988 33.2063 21.6935 40.2464 31.3074 39.1866C33.5784 38.8838 35.6223 38.2782 37.7419 37.1427C36.5307 36.31 35.4709 35.4016 34.4868 34.3418C31.0803 31.1624 28.7336 27.0746 27.9766 22.4569C27.1439 16.8551 28.6579 11.4804 30.399 7.7711C31.0046 6.5599 31.6102 5.1973 32.3672 4.0618C30.9289 3.759 29.3392 3.759 27.8252 3.9861Z" fill="#EAD88C"/>
<path d="M27.8252 3.9861C18.1356 5.1216 11.1712 13.7514 12.0796 23.5167C12.988 33.2063 21.6935 40.2464 31.3074 39.1866C33.5784 38.8838 35.6223 38.2782 37.7419 37.1427C36.5307 36.31 35.4709 35.4016 34.4868 34.3418C31.0803 31.1624 28.7336 27.0746 27.9766 22.4569C27.1439 16.8551 28.6579 11.4804 30.399 7.7711C31.0046 6.5599 31.6102 5.1973 32.3672 4.0618C30.9289 3.759 29.3392 3.759 27.8252 3.9861Z" stroke="black" stroke-width="3" stroke-miterlimit="10" stroke-linecap="round" stroke-linejoin="round"/>
<path d="M65.9781 46.9831H28.5066C26.7655 46.9074 25.1758 45.9233 24.2674 44.4093C22.9048 42.3654 22.8291 39.7159 23.9646 37.5206C25.3272 35.0982 27.9767 33.7356 30.7019 33.9627C31.8374 34.0384 32.0645 33.5842 32.2159 32.6758C33.4271 25.4086 39.1046 19.6554 46.3718 18.4442H46.4475C50.4596 17.9143 54.4717 18.747 57.9539 20.8666C58.2567 21.0937 58.6352 21.3208 58.938 21.5479C60.8305 22.9862 62.4202 24.803 63.6314 26.8469L64.1613 27.7553" fill="#CAE3F6"/>
<path d="M48.1128 37.521C48.567 34.4173 50.9137 31.9192 54.0174 31.2379C54.4716 31.1622 55.0015 31.0865 55.4557 31.1622C57.3482 31.1622 59.2407 31.8435 60.6033 33.1304C61.5874 34.0388 62.2687 35.25 62.6472 36.5369" fill="#CAE3F6"/>
<path d="M58.1812 31.6927C60.3765 28.3619 65.3727 27.1507 69.3091 27.9077C72.867 28.589 75.7436 31.3142 76.5006 34.8721C77.0305 37.0674 77.1819 37.9001 78.8473 39.1113C81.2697 40.7767 81.1183 44.5617 79.1501 46.3028C78.6202 46.757 77.9389 47.0598 77.2576 47.0598H64.3129" fill="#CAE3F6"/>
<path d="M66.0538 46.5289H28.8094C27.0683 46.4532 25.4786 45.4691 24.5702 43.9551C23.2833 41.9112 23.1319 39.2617 24.2674 37.1421C25.63 34.7197 28.2038 33.3571 31.0047 33.5842C32.1402 33.6599 32.3673 33.2057 32.5187 32.2973C33.6542 25.0301 39.3317 19.3526 46.5989 18.1414H46.6746C50.611 17.6115 54.6988 18.4442 58.1053 20.5638C58.4081 20.7909 58.7866 21.018 59.0894 21.2451C60.9819 22.6834 62.5716 24.4245 63.7071 26.4684L64.237 27.3768" stroke="black" stroke-width="3" stroke-miterlimit="10" stroke-linecap="round" stroke-linejoin="round"/>
<path d="M48.2642 37.1426C48.7184 34.0389 51.0651 31.5408 54.1688 30.9352C54.623 30.8595 55.1529 30.7838 55.6071 30.8595C57.4996 30.8595 59.3164 31.5408 60.7547 32.8277C61.7388 33.7361 62.4201 34.9473 62.7986 36.2342" stroke="black" stroke-width="3" stroke-miterlimit="10" stroke-linecap="round" stroke-linejoin="round"/>
<path d="M58.332 31.3137C60.5273 27.9829 65.4478 26.7717 69.3842 27.6044C72.9421 28.2857 75.743 31.0109 76.5757 34.5688C77.1056 36.7641 77.257 37.5968 78.9224 38.7323C81.3448 40.3977 81.1934 44.107 79.2252 45.8481C78.6953 46.3023 78.014 46.5294 77.3327 46.5294H74.9103" stroke="black" stroke-width="3" stroke-miterlimit="10" stroke-linecap="round" stroke-linejoin="round"/>
<path d="M70 46.7002H71" stroke="black" stroke-width="3" stroke-miterlimit="10" stroke-linecap="round" stroke-linejoin="round"/>
<path d="M70.7471 60.5342L66.0537 65.0005" stroke="black" stroke-width="3" stroke-miterlimit="10" stroke-linecap="round" stroke-linejoin="round"/>
<path d="M38.8018 60.5342L34.1084 65.0005" stroke="black" stroke-width="3" stroke-miterlimit="10" stroke-linecap="round" stroke-linejoin="round"/>
<path d="M54.7745 60.5342L50.0811 65.0005" stroke="black" stroke-width="3" stroke-miterlimit="10" stroke-linecap="round" stroke-linejoin="round"/>
<path d="M70.7471 50.8447L66.0537 55.311" stroke="black" stroke-width="3" stroke-miterlimit="10" stroke-linecap="round" stroke-linejoin="round"/>
<path d="M38.8018 50.8447L34.1084 55.311" stroke="black" stroke-width="3" stroke-miterlimit="10" stroke-linecap="round" stroke-linejoin="round"/>
<path d="M54.7745 50.8447L50.0811 55.311" stroke="black" stroke-width="3" stroke-miterlimit="10" stroke-linecap="round" stroke-linejoin="round"/>
</svg>
