<svg width="93" height="67" viewBox="0 0 93 67" fill="none" xmlns="http://www.w3.org/2000/svg">
<g clip-path="url(#clip0_114_804)">
<path d="M36.7331 10.168C33.6557 10.168 30.6474 11.0806 28.0887 12.7905C25.53 14.5004 23.5358 16.9306 22.3585 19.7739C21.1811 22.6172 20.8734 25.7458 21.4743 28.764C22.0751 31.7822 23.5576 34.5544 25.7342 36.73C27.9107 38.9056 30.6836 40.3869 33.702 40.9864C36.7205 41.586 39.849 41.2769 42.6917 40.0982C45.5345 38.9196 47.9639 36.9244 49.6727 34.365C51.3814 31.8055 52.2927 28.7968 52.2914 25.7194C52.2859 21.5954 50.6448 17.6419 47.728 14.7265C44.8112 11.811 40.8571 10.1716 36.7331 10.168Z" fill="#F5B952"/>
<path d="M67.3822 48.0629H35.4819C34.7446 48.0219 34.0286 47.8005 33.3969 47.4181C32.7651 47.0357 32.2369 46.504 31.8587 45.8698C31.3017 45.0044 30.9852 44.0062 30.9417 42.978C30.8982 41.9497 31.1293 40.9284 31.6112 40.0191C32.1741 39.0133 33.0149 38.1911 34.0331 37.6509C35.0512 37.1108 36.2035 36.8755 37.3519 36.9734C38.3144 37.0216 38.5138 36.6709 38.6307 35.8734C39.1198 32.8475 40.5469 30.0516 42.7106 27.8805C44.8743 25.7094 47.6653 24.2727 50.6895 23.7733H50.7652C54.1624 23.3045 57.6168 24.0338 60.5346 25.8358C60.8165 26.0146 61.1053 26.2071 61.3871 26.4202C62.9907 27.6266 64.3371 29.1413 65.3472 30.8752L65.8078 31.659" fill="#CAE3F6"/>
<path d="M52.188 40.0122C52.3705 38.7133 52.9533 37.5035 53.8552 36.551C54.7572 35.5986 55.9334 34.9508 57.2205 34.6978C57.6322 34.6337 58.0483 34.6015 58.4649 34.6016C60.0931 34.6004 61.6627 35.2086 62.865 36.3066C63.7066 37.0944 64.3114 38.1016 64.6112 39.2147" fill="#CAE3F6"/>
<path d="M60.7954 34.9997C62.6448 32.1535 66.8867 31.1016 70.2761 31.8028C71.7736 32.0742 73.1566 32.7844 74.2497 33.8432C75.3428 34.902 76.0966 36.2617 76.4156 37.7498C76.8487 39.6198 76.9862 40.3348 78.4368 41.3385C80.4994 42.7617 80.3481 45.9448 78.6775 47.4574C78.2286 47.8329 77.6673 48.0482 77.0824 48.0692H66.0823" fill="#CAE3F6"/>
<path d="M70.2142 61.9639L65.9517 65.9995" stroke="black" stroke-width="2.7" stroke-miterlimit="10" stroke-linecap="round"/>
<path d="M41.1947 61.9639L36.9321 65.9995" stroke="black" stroke-width="2.7" stroke-miterlimit="10" stroke-linecap="round"/>
<path d="M55.7079 61.9639L51.4385 65.9995" stroke="black" stroke-width="2.7" stroke-miterlimit="10" stroke-linecap="round"/>
<path d="M70.2142 53.1709L65.9517 57.2134" stroke="black" stroke-width="2.7" stroke-miterlimit="10" stroke-linecap="round"/>
<path d="M41.1947 53.1709L36.9321 57.2134" stroke="black" stroke-width="2.7" stroke-miterlimit="10" stroke-linecap="round"/>
<path d="M55.7079 53.1709L51.4385 57.2134" stroke="black" stroke-width="2.7" stroke-miterlimit="10" stroke-linecap="round"/>
<path d="M50.4141 19.7178C49.4966 17.4887 48.0596 15.5112 46.2228 13.95C44.3861 12.3889 42.2028 11.2894 39.855 10.7431C37.5071 10.1968 35.0627 10.2196 32.7255 10.8096C30.3883 11.3996 28.2259 12.5397 26.4186 14.1348C24.6113 15.73 23.2114 17.734 22.3357 19.9798C21.46 22.2257 21.1337 24.6483 21.3841 27.0458C21.6345 29.4434 22.4543 31.7463 23.7752 33.7628C25.096 35.7792 26.8798 37.4507 28.9776 38.638" stroke="black" stroke-width="2.7" stroke-miterlimit="10" stroke-linecap="round"/>
<path d="M36.3545 10.257V2" stroke="black" stroke-width="2.7" stroke-miterlimit="10" stroke-linecap="round"/>
<path d="M21.257 25.5127H13" stroke="black" stroke-width="2.7" stroke-miterlimit="10" stroke-linecap="round"/>
<path d="M25.65 14.7598L19.8062 8.91602" stroke="black" stroke-width="2.7" stroke-miterlimit="10" stroke-linecap="round"/>
<path d="M47.1069 14.6504L52.9439 8.80664" stroke="black" stroke-width="2.7" stroke-miterlimit="10" stroke-linecap="round"/>
<path d="M25.7598 36.2168L19.916 42.0537" stroke="black" stroke-width="2.7" stroke-miterlimit="10" stroke-linecap="round"/>
<path d="M67.4024 47.8089H35.5639C34.828 47.7693 34.1132 47.5491 33.4825 47.1679C32.8518 46.7866 32.3247 46.2559 31.9477 45.6226C31.3963 44.7627 31.0829 43.7719 31.0394 42.7513C30.9959 41.7308 31.2239 40.7169 31.7002 39.8132C32.2601 38.808 33.0984 37.9858 34.1143 37.4455C35.1302 36.9052 36.2806 36.6698 37.4271 36.7675C38.3896 36.8157 38.589 36.465 38.7059 35.6675C39.1905 32.6425 40.6133 29.8461 42.7735 27.6736C44.9336 25.5012 47.7218 24.0624 50.7441 23.5605H50.8197C54.2104 23.0914 57.6584 23.8209 60.5686 25.6231C60.8504 25.8018 61.1392 25.9943 61.4211 26.2006C63.0264 27.4114 64.371 28.9336 65.3742 30.6762L65.8349 31.4531" stroke="black" stroke-width="2.7" stroke-miterlimit="10" stroke-linecap="round"/>
<path d="M52.229 39.8132C52.4128 38.5173 52.9954 37.3107 53.896 36.3609C54.7965 35.4111 55.9704 34.7651 57.2547 34.5126C57.6659 34.4447 58.0823 34.4125 58.4991 34.4163C60.1241 34.4143 61.6911 35.02 62.8922 36.1145C63.7259 36.8937 64.3279 37.8882 64.6316 38.9882" stroke="black" stroke-width="2.7" stroke-miterlimit="10" stroke-linecap="round"/>
<path d="M60.8301 34.7737C62.6726 31.9343 66.9076 30.8756 70.297 31.5631C71.7885 31.8372 73.1657 32.546 74.2556 33.6004C75.3455 34.6548 76.0994 36.0078 76.4227 37.4894C76.8559 39.3525 76.9934 40.0676 78.4371 41.0644C80.4996 42.4876 80.3484 45.6707 78.6846 47.1764C78.2357 47.5519 77.6745 47.7672 77.0896 47.7883H75.0271" stroke="black" stroke-width="2.7" stroke-miterlimit="10" stroke-linecap="round"/>
<path d="M70.6367 47.8086H71.6367" stroke="black" stroke-width="2.7" stroke-miterlimit="10" stroke-linecap="round"/>
</g>
<defs>
<clipPath id="clip0_114_804">
<rect width="93" height="67" fill="white"/>
</clipPath>
</defs>
</svg>
