<svg width="93" height="67" viewBox="0 0 93 67" fill="none" xmlns="http://www.w3.org/2000/svg">
<path d="M79.6987 22.1091V10.052C79.7588 9.10436 79.6223 8.15457 79.2979 7.26221C78.9734 6.36985 78.4681 5.55419 77.8135 4.8664C77.1588 4.17861 76.3691 3.63356 75.4939 3.26544C74.6187 2.89731 73.6768 2.71408 72.7274 2.72722C71.778 2.74037 70.8415 2.94961 69.9768 3.34183C69.1121 3.73404 68.3378 4.30075 67.7025 5.0064C67.0671 5.71204 66.5845 6.54139 66.2849 7.44239C65.9853 8.34339 65.8752 9.29659 65.9615 10.2422C65.9615 18.1041 65.9615 25.9555 65.9615 33.8069C66.0034 34.3701 65.8797 34.9333 65.6055 35.4271C65.3314 35.9209 64.9189 36.3237 64.4187 36.586C61.3335 38.5855 59.0624 41.6196 58.0136 45.1433C56.9648 48.6669 57.2069 52.4491 58.6965 55.8102C60.1861 59.1714 62.8255 61.8911 66.1405 63.4808C69.4555 65.0705 73.2287 65.426 76.7822 64.4833C82.499 62.8665 86.2926 59.1997 87.6875 53.747C89.3888 47.1743 86.3666 40.4747 80.9351 36.3641C80.5133 36.0894 80.1738 35.7056 79.9524 35.2536C79.731 34.8015 79.636 34.2979 79.6776 33.7963C79.741 29.9287 79.6987 26.0189 79.6987 22.1091Z" fill="#649F4E"/>
<path d="M14.3413 60.3416L20.3329 54.0225L26.2399 60.162" stroke="black" stroke-width="3" stroke-miterlimit="10" stroke-linecap="round" stroke-linejoin="round"/>
<path d="M26.2399 35.6035L20.2378 41.9227L14.3413 35.7832" stroke="black" stroke-width="3" stroke-miterlimit="10" stroke-linecap="round" stroke-linejoin="round"/>
<path d="M20.2378 32.582V63.1527" stroke="black" stroke-width="3" stroke-miterlimit="10" stroke-linecap="round" stroke-linejoin="round"/>
<path d="M32.7598 53.8214L26.4512 47.8193L32.5801 41.9229" stroke="black" stroke-width="3" stroke-miterlimit="10" stroke-linecap="round" stroke-linejoin="round"/>
<path d="M8.02197 41.9229L14.3411 47.9144L8.20161 53.8214" stroke="black" stroke-width="3" stroke-miterlimit="10" stroke-linecap="round" stroke-linejoin="round"/>
<path d="M5 47.9141H35.5813" stroke="black" stroke-width="3" stroke-miterlimit="10" stroke-linecap="round" stroke-linejoin="round"/>
<path d="M27.6245 29.7703L33.6161 23.4512L39.5231 29.5801" stroke="black" stroke-width="3" stroke-miterlimit="10" stroke-linecap="round" stroke-linejoin="round"/>
<path d="M39.5231 5.02246L33.521 11.3416L27.6245 5.21267" stroke="black" stroke-width="3" stroke-miterlimit="10" stroke-linecap="round" stroke-linejoin="round"/>
<path d="M33.521 2V32.5813" stroke="black" stroke-width="3" stroke-miterlimit="10" stroke-linecap="round" stroke-linejoin="round"/>
<path d="M46.0428 23.2394L39.7236 17.2478L45.8631 11.3408" stroke="black" stroke-width="3" stroke-miterlimit="10" stroke-linecap="round" stroke-linejoin="round"/>
<path d="M21.3052 11.3408L27.6243 17.3324L21.4848 23.2394" stroke="black" stroke-width="3" stroke-miterlimit="10" stroke-linecap="round" stroke-linejoin="round"/>
<path d="M18.2827 17.333H48.864" stroke="black" stroke-width="3" stroke-miterlimit="10" stroke-linecap="round" stroke-linejoin="round"/>
<path d="M79.6987 22.1091V10.052C79.7588 9.10436 79.6223 8.15457 79.2979 7.26221C78.9734 6.36985 78.4681 5.55419 77.8135 4.8664C77.1588 4.17861 76.3691 3.63356 75.4939 3.26544C74.6187 2.89731 73.6768 2.71408 72.7274 2.72722C71.778 2.74037 70.8415 2.94961 69.9768 3.34183C69.1121 3.73404 68.3378 4.30075 67.7025 5.0064C67.0671 5.71204 66.5845 6.54139 66.2849 7.44239C65.9853 8.34339 65.8752 9.29659 65.9615 10.2422C65.9615 18.1041 65.9615 25.9555 65.9615 33.8069C66.0034 34.3701 65.8797 34.9333 65.6055 35.4271C65.3314 35.9209 64.9189 36.3237 64.4187 36.586C61.3335 38.5855 59.0624 41.6196 58.0136 45.1433C56.9648 48.6669 57.2069 52.4491 58.6965 55.8102C60.1861 59.1714 62.8255 61.8911 66.1405 63.4808C69.4555 65.0705 73.2287 65.426 76.7822 64.4833C82.499 62.8665 86.2926 59.1997 87.6875 53.747C89.3888 47.1743 86.3666 40.4747 80.9351 36.3641C80.5133 36.0894 80.1738 35.7056 79.9524 35.2536C79.731 34.8015 79.636 34.2979 79.6776 33.7963C79.741 29.9287 79.6987 26.0189 79.6987 22.1091Z" stroke="black" stroke-width="3" stroke-miterlimit="10" stroke-linecap="round" stroke-linejoin="round"/>
<path d="M72.45 12.6201V39.4712C72.45 40.9189 72.1541 41.2887 70.8755 41.405C68.2125 41.648 65.3383 43.7615 64.979 48.5272" stroke="black" stroke-width="3" stroke-miterlimit="10" stroke-linecap="round" stroke-linejoin="round"/>
<path d="M72.2915 55.8077C74.1749 55.7465 75.9639 54.9689 77.2934 53.6335C78.6229 52.2981 79.3926 50.5057 79.4454 48.6221" stroke="black" stroke-width="3" stroke-miterlimit="10" stroke-linecap="round" stroke-linejoin="round"/>
</svg>
