<svg width="93" height="67" viewBox="0 0 93 67" fill="none" xmlns="http://www.w3.org/2000/svg">
<g clip-path="url(#clip0_114_673)">
<path d="M29.2061 2.78204C20.5079 3.80136 14.256 11.5482 15.0715 20.3144C15.9549 29.0126 23.7018 35.2645 32.332 34.3811C34.3707 34.1092 36.2055 33.5656 38.1082 32.5463C37.0209 31.7988 36.0695 30.9833 35.1861 30.0319C32.1282 27.1778 30.0216 23.5083 29.342 19.363C28.5945 14.3344 29.9536 9.50957 31.5166 6.17978C32.0602 5.0925 32.6038 3.86931 33.2834 2.84999C31.9922 2.57817 30.5652 2.57817 29.2061 2.78204Z" fill="#EAD88C"/>
<path d="M29.2061 2.78204C20.5079 3.80136 14.256 11.5482 15.0715 20.3144C15.9549 29.0126 23.7018 35.2645 32.332 34.3811C34.3707 34.1092 36.2055 33.5656 38.1082 32.5463C37.0209 31.7988 36.0695 30.9833 35.1861 30.0319C32.1282 27.1778 30.0216 23.5083 29.342 19.363C28.5945 14.3344 29.9536 9.50957 31.5166 6.17978C32.0602 5.0925 32.6038 3.86931 33.2834 2.84999C31.9922 2.57817 30.5652 2.57817 29.2061 2.78204Z" stroke="black" stroke-width="2.5" stroke-miterlimit="10" stroke-linecap="round" stroke-linejoin="round"/>
<path d="M64.4066 41.7204H31.4485C29.8855 41.6524 28.5264 40.769 27.711 39.4099C26.5557 37.5751 26.4198 35.2647 27.4391 33.294C28.5944 31.1874 30.9048 29.8962 33.3512 30.1001C34.3705 30.1681 34.5744 29.7603 34.6424 28.9449C35.6617 22.4892 40.6903 17.3925 47.1461 16.3053H47.214C50.7477 15.8296 54.2813 16.5771 57.2713 18.4798C57.5431 18.6837 57.8829 18.8875 58.1547 19.0914C59.7857 20.3826 61.2127 21.9455 62.232 23.7803L62.7077 24.5958" fill="#CAE3F6"/>
<path d="M48.7095 33.2946C49.1172 30.5084 51.1558 28.3338 53.874 27.7223C54.2818 27.6543 54.7575 27.6543 55.1652 27.6543C56.8641 27.6543 58.495 28.2659 59.7182 29.4211C60.6016 30.2366 61.2132 31.3239 61.5529 32.4791" fill="#CAE3F6"/>
<path d="M57.6108 28.0615C59.5136 25.0715 63.9306 23.9842 67.3963 24.7317C70.5902 25.3433 73.0366 27.7897 73.7162 30.9156C74.1918 32.8863 74.3277 33.6338 75.8228 34.6532C77.9294 36.1482 77.7934 39.4779 76.0946 41.0409C75.6189 41.4486 75.0752 41.6525 74.4637 41.6525H63.0472" fill="#CAE3F6"/>
<path d="M57.0005 66.2532L58.6314 64.4863L60.2623 66.1852" stroke="black" stroke-miterlimit="10" stroke-linecap="round"/>
<path d="M60.2623 59.5244L58.6314 61.2233L57.0005 59.5244" stroke="black" stroke-miterlimit="10" stroke-linecap="round"/>
<path d="M58.6318 58.709V66.9995" stroke="black" stroke-miterlimit="10" stroke-linecap="round"/>
<path d="M62.0294 64.4845L60.3306 62.8536L61.9615 61.2227" stroke="black" stroke-miterlimit="10" stroke-linecap="round"/>
<path d="M55.3018 61.2227L57.0006 62.8536L55.3697 64.4845" stroke="black" stroke-miterlimit="10" stroke-linecap="round"/>
<path d="M54.4863 62.8555H62.7768" stroke="black" stroke-miterlimit="10" stroke-linecap="round"/>
<path d="M44.1567 66.2532L45.7877 64.4863L47.4186 66.1852" stroke="black" stroke-miterlimit="10" stroke-linecap="round"/>
<path d="M47.4186 59.5244L45.7877 61.2233L44.1567 59.5244" stroke="black" stroke-miterlimit="10" stroke-linecap="round"/>
<path d="M45.7871 58.709V66.9995" stroke="black" stroke-miterlimit="10" stroke-linecap="round"/>
<path d="M49.1853 64.4845L47.4185 62.8536L49.1173 61.2227" stroke="black" stroke-miterlimit="10" stroke-linecap="round"/>
<path d="M42.4575 61.2227L44.1564 62.8536L42.4575 64.4845" stroke="black" stroke-miterlimit="10" stroke-linecap="round"/>
<path d="M41.6421 62.8555H49.9326" stroke="black" stroke-miterlimit="10" stroke-linecap="round"/>
<path d="M67.7378 55.4478L69.9803 53.0693L72.2228 55.3118" stroke="black" stroke-width="1.5" stroke-miterlimit="10" stroke-linecap="round"/>
<path d="M72.2228 46.1357L69.9803 48.5142L67.7378 46.2037" stroke="black" stroke-width="1.5" stroke-miterlimit="10" stroke-linecap="round"/>
<path d="M69.9805 44.9814V56.4658" stroke="black" stroke-width="1.5" stroke-miterlimit="10" stroke-linecap="round"/>
<path d="M74.6694 52.9337L72.291 50.6912L74.6015 48.5166" stroke="black" stroke-width="1.5" stroke-miterlimit="10" stroke-linecap="round"/>
<path d="M65.3594 48.5166L67.7378 50.7591L65.4273 52.9337" stroke="black" stroke-width="1.5" stroke-miterlimit="10" stroke-linecap="round"/>
<path d="M64.2725 50.7588H75.6889" stroke="black" stroke-width="1.5" stroke-miterlimit="10" stroke-linecap="round"/>
<path d="M50.0684 55.4478L52.3109 53.0693L54.4854 55.3118" stroke="black" stroke-width="1.5" stroke-miterlimit="10" stroke-linecap="round"/>
<path d="M54.4854 46.1357L52.2429 48.5142L50.0684 46.2037" stroke="black" stroke-width="1.5" stroke-miterlimit="10" stroke-linecap="round"/>
<path d="M52.2437 44.9814V56.4658" stroke="black" stroke-width="1.5" stroke-miterlimit="10" stroke-linecap="round"/>
<path d="M56.9325 52.9337L54.6221 50.6912L56.8646 48.5166" stroke="black" stroke-width="1.5" stroke-miterlimit="10" stroke-linecap="round"/>
<path d="M47.6895 48.5166L50.0679 50.7591L47.7574 52.9337" stroke="black" stroke-width="1.5" stroke-miterlimit="10" stroke-linecap="round"/>
<path d="M46.5352 50.7588H58.0195" stroke="black" stroke-width="1.5" stroke-miterlimit="10" stroke-linecap="round"/>
<path d="M32.3325 55.4478L34.575 53.0693L36.8175 55.3118" stroke="black" stroke-width="1.5" stroke-miterlimit="10" stroke-linecap="round"/>
<path d="M36.8175 46.1357L34.575 48.5142L32.3325 46.2037" stroke="black" stroke-width="1.5" stroke-miterlimit="10" stroke-linecap="round"/>
<path d="M34.5742 44.9814V56.4658" stroke="black" stroke-width="1.5" stroke-miterlimit="10" stroke-linecap="round"/>
<path d="M39.2637 52.9337L36.8853 50.6912L39.1957 48.5166" stroke="black" stroke-width="1.5" stroke-miterlimit="10" stroke-linecap="round"/>
<path d="M30.0215 48.5166L32.332 50.7591L30.0215 52.9337" stroke="black" stroke-width="1.5" stroke-miterlimit="10" stroke-linecap="round"/>
<path d="M28.8662 50.7588H40.2826" stroke="black" stroke-width="1.5" stroke-miterlimit="10" stroke-linecap="round"/>
<path d="M64.271 41.72H30.8372C29.2743 41.652 27.8472 40.7686 27.0318 39.4095C25.8765 37.5747 25.7406 35.1963 26.7599 33.2936C27.9831 31.119 30.2936 29.8958 32.74 30.0997C33.7593 30.1677 33.9632 29.7599 34.0991 28.9445C35.1184 22.4208 40.215 17.3242 46.7387 16.2369H46.8066C50.3403 15.7612 54.0099 16.5087 57.0678 18.4115C57.3396 18.6153 57.6794 18.8192 57.9512 19.0231C59.6501 20.3142 61.0772 21.8772 62.0965 23.7119L62.5722 24.5274" stroke="black" stroke-width="2.5" stroke-miterlimit="10" stroke-linecap="round"/>
<path d="M48.3696 33.2954C48.7774 30.5092 50.884 28.2667 53.6701 27.7231C54.0778 27.6551 54.5535 27.5871 54.9613 27.6551C56.6601 27.6551 58.291 28.2667 59.5822 29.4219C60.4656 30.2374 61.0772 31.3247 61.417 32.4799" stroke="black" stroke-width="2.5" stroke-miterlimit="10" stroke-linecap="round"/>
<path d="M57.3408 28.0615C59.3115 25.0715 63.7286 23.9842 67.2622 24.7317C70.4561 25.3433 72.9704 27.7897 73.7179 30.9836C74.1936 32.9543 74.3295 33.7018 75.8245 34.7211C77.9991 36.2161 77.8632 39.5459 76.0964 41.1089C75.6207 41.5166 75.0091 41.7205 74.3975 41.7205H72.2229" stroke="black" stroke-width="2.5" stroke-miterlimit="10" stroke-linecap="round"/>
<path d="M67.6309 41.7207H68.6785" stroke="black" stroke-width="2.5" stroke-miterlimit="10" stroke-linecap="round"/>
</g>
<defs>
<clipPath id="clip0_114_673">
<rect width="93" height="67" fill="white"/>
</clipPath>
</defs>
</svg>
