<svg width="44" height="34" viewBox="0 0 44 34" fill="none" xmlns="http://www.w3.org/2000/svg">
<path d="M21.9641 12.1446C20.0178 12.1406 18.1141 12.7142 16.4939 13.7926C14.8737 14.8711 13.6099 16.4059 12.8624 18.203C12.1148 20 11.9172 21.9784 12.2945 23.8877C12.6718 25.7971 13.6071 27.5516 14.9819 28.9293C16.3568 30.3069 18.1094 31.2457 20.018 31.6268C21.9266 32.008 23.9054 31.8144 25.7039 31.0705C27.5024 30.3265 29.0399 29.0658 30.1216 27.4478C31.2033 25.8298 31.7807 23.9272 31.7807 21.9809C31.7775 19.3766 30.7429 16.8795 28.9032 15.036C27.0635 13.1926 24.5685 12.1529 21.9641 12.1446Z" fill="#F5B952"/>
<path d="M21.9641 12.1446C20.0178 12.1406 18.1141 12.7142 16.4939 13.7926C14.8737 14.8711 13.6099 16.4059 12.8624 18.203C12.1148 20 11.9172 21.9784 12.2945 23.8877C12.6718 25.7971 13.6071 27.5516 14.9819 28.9293C16.3568 30.3069 18.1094 31.2457 20.018 31.6268C21.9266 32.008 23.9054 31.8144 25.7039 31.0705C27.5024 30.3265 29.0399 29.0658 30.1216 27.4478C31.2033 25.8298 31.7807 23.9272 31.7807 21.9809C31.7776 19.3766 30.7429 16.8795 28.9032 15.036C27.0635 13.1926 24.5685 12.1529 21.9641 12.1446Z" stroke="black" stroke-width="2.5" stroke-miterlimit="10" stroke-linejoin="round"/>
<path d="M13.2036 15.5221L8.97355 12.2309" stroke="black" stroke-width="2.5" stroke-miterlimit="10" stroke-linecap="round" stroke-linejoin="round"/>
<path d="M30 15.5485L34.2301 12.2573" stroke="black" stroke-width="2.5" stroke-miterlimit="10" stroke-linecap="round" stroke-linejoin="round"/>
<path d="M33 22.6714L38.3595 22.6742" stroke="black" stroke-width="2.5" stroke-miterlimit="10" stroke-linecap="round" stroke-linejoin="round"/>
<path d="M5.99997 22.6714L11.3595 22.6742" stroke="black" stroke-width="2.5" stroke-miterlimit="10" stroke-linecap="round" stroke-linejoin="round"/>
<path d="M16.4998 7.13672L22.052 2.00035M22.052 2.00035L27.5 7.13672M22.052 2.00035C22.052 5.47562 22.052 19.7505 22.052 23.6367" stroke="black" stroke-width="2.5" stroke-linecap="round" stroke-linejoin="round"/>
<path d="M37 27.7861L7 27.7861" stroke="#CAE3F6" stroke-width="2.5" stroke-miterlimit="10" stroke-linecap="round" stroke-linejoin="round"/>
<path d="M2 23.7861H42" stroke="#CAE3F6" stroke-width="2.5" stroke-miterlimit="10" stroke-linecap="round" stroke-linejoin="round"/>
</svg>
