<svg width="44" height="38" viewBox="0 0 44 38" fill="none" xmlns="http://www.w3.org/2000/svg">
<path d="M21.9641 7.35842C20.0178 7.35449 18.1141 7.92805 16.4939 9.0065C14.8737 10.0849 13.6099 11.6198 12.8624 13.4168C12.1148 15.2138 11.9172 17.1922 12.2945 19.1016C12.6718 21.011 13.6071 22.7655 14.9819 24.1431C16.3568 25.5208 18.1094 26.4596 20.018 26.8407C21.9266 27.2219 23.9054 27.0282 25.7039 26.2843C27.5024 25.5404 29.0399 24.2797 30.1216 22.6617C31.2033 21.0436 31.7807 19.1411 31.7807 17.1948C31.7775 14.5904 30.7429 12.0933 28.9032 10.2499C27.0635 8.40646 24.5685 7.36681 21.9641 7.35842Z" fill="#F5B952"/>
<path d="M21.9641 7.35842C20.0178 7.35449 18.1141 7.92805 16.4939 9.0065C14.8737 10.0849 13.6099 11.6198 12.8624 13.4168C12.1148 15.2138 11.9172 17.1922 12.2945 19.1016C12.6718 21.011 13.6071 22.7655 14.9819 24.1431C16.3568 25.5208 18.1094 26.4596 20.018 26.8407C21.9266 27.2219 23.9054 27.0282 25.7039 26.2843C27.5024 25.5404 29.0399 24.2797 30.1216 22.6617C31.2033 21.0436 31.7807 19.1411 31.7807 17.1948C31.7776 14.5904 30.7429 12.0933 28.9032 10.2499C27.0635 8.40646 24.5685 7.36681 21.9641 7.35842Z" stroke="black" stroke-width="2.5" stroke-miterlimit="10" stroke-linejoin="round"/>
<path d="M22 7.35846V2" stroke="black" stroke-width="2.5" stroke-miterlimit="10" stroke-linecap="round" stroke-linejoin="round"/>
<path d="M13.2036 10.736L8.97355 7.4448" stroke="black" stroke-width="2.5" stroke-miterlimit="10" stroke-linecap="round" stroke-linejoin="round"/>
<path d="M30 10.7623L34.2301 7.47116" stroke="black" stroke-width="2.5" stroke-miterlimit="10" stroke-linecap="round" stroke-linejoin="round"/>
<path d="M33 17.8852L38.3595 17.888" stroke="black" stroke-width="2.5" stroke-miterlimit="10" stroke-linecap="round" stroke-linejoin="round"/>
<path d="M5.99997 17.8852L11.3595 17.888" stroke="black" stroke-width="2.5" stroke-miterlimit="10" stroke-linecap="round" stroke-linejoin="round"/>
<path d="M16.4998 30.707L22.052 35.8434M22.052 35.8434L27.5 30.707M22.052 35.8434C22.052 32.3681 22.052 18.0933 22.052 14.207" stroke="black" stroke-width="2.5" stroke-linecap="round" stroke-linejoin="round"/>
<path d="M37 23L7 23" stroke="#CAE3F6" stroke-width="2.5" stroke-miterlimit="10" stroke-linecap="round" stroke-linejoin="round"/>
<path d="M2 19H42" stroke="#CAE3F6" stroke-width="2.5" stroke-miterlimit="10" stroke-linecap="round" stroke-linejoin="round"/>
</svg>
