<svg width="93" height="67" viewBox="0 0 93 67" fill="none" xmlns="http://www.w3.org/2000/svg">
<g clip-path="url(#clip0_114_199)">
<path d="M52.0395 65.6667C53.3487 64.3462 57.3787 60.1075 57.3787 60.1075C58.306 59.1369 59.1993 58.1994 60.1062 57.2685C60.266 57.151 60.3795 56.9841 60.4279 56.7956C60.4762 56.607 60.4566 56.4081 60.3722 56.2319C60.2796 56.0602 60.1314 55.9226 59.9504 55.8403C59.7693 55.7581 59.5653 55.7356 59.3698 55.7763C59.0766 55.7763 58.7834 55.8225 58.4288 55.849C58.5242 55.6641 58.5856 55.532 58.6538 55.4066L60.4199 52.1054C60.8154 51.3594 60.4608 50.785 59.6153 50.785C57.5696 50.785 55.5239 50.785 53.5124 50.785C53.3073 50.7697 53.1026 50.8186 52.9283 50.9244C52.754 51.0301 52.6193 51.1872 52.5441 51.3726C51.4122 53.624 50.2734 55.882 49.1347 58.1334C49.0314 58.2634 48.9709 58.4204 48.9609 58.5841C48.951 58.7478 48.992 58.9106 49.0787 59.0515C49.1654 59.1923 49.2938 59.3047 49.4472 59.3741C49.6007 59.4435 49.7721 59.4667 49.9393 59.4406H52.3941C52.2645 59.8434 52.1554 60.2131 52.0122 60.5762L51.2621 62.7418C50.9894 63.5473 50.703 64.2868 50.5121 65.0394C50.49 65.1768 50.4994 65.3171 50.5395 65.4506C50.5795 65.584 50.6493 65.7074 50.7439 65.8119C50.9859 65.9641 51.2762 66.0274 51.5622 65.9902C51.7326 66.0034 51.9031 65.8119 52.0395 65.6667Z" fill="#F5B952"/>
<path d="M36.0074 10.3027C33.0404 10.3027 30.14 11.1546 27.673 12.7507C25.206 14.3467 23.2832 16.6152 22.1478 19.2694C21.0124 21.9235 20.7153 24.844 21.2941 27.6616C21.873 30.4792 23.3017 33.0674 25.3997 35.0988C27.4977 37.1302 30.1707 38.5135 33.0807 39.074C35.9907 39.6345 39.007 39.3468 41.7482 38.2474C44.4894 37.1481 46.8323 35.2863 48.4807 32.8977C50.1291 30.509 51.0089 27.7007 51.0089 24.8279C51.0089 20.9756 49.4284 17.2811 46.6151 14.5571C43.8017 11.8331 39.986 10.3027 36.0074 10.3027Z" fill="#F5B952"/>
<path d="M67.1365 46.3325H35.5038C34.7694 46.2891 34.0574 46.0712 33.4307 45.6981C32.8039 45.325 32.2817 44.8082 31.9102 44.1933C31.3189 43.303 30.9984 42.2695 30.9853 41.2111C30.9722 40.1526 31.2671 39.112 31.8363 38.2082C32.4054 37.3044 33.2258 36.574 34.2036 36.1006C35.1814 35.6272 36.2771 35.4298 37.3653 35.5311C38.32 35.5773 38.5177 35.2339 38.6336 34.4549C39.1012 31.5262 40.5064 28.8134 42.6509 26.6991C44.7955 24.5847 47.5713 23.1753 50.5871 22.6697H50.6621C54.0352 22.2064 57.4683 22.9227 60.3449 24.69C60.6313 24.855 60.9109 25.0465 61.1973 25.2512C62.7916 26.4382 64.1247 27.9221 65.1181 29.6153L65.575 30.3944" fill="#CAE3F6"/>
<path d="M52.0664 38.4897C52.2398 37.2317 52.8136 36.0572 53.7081 35.1295C54.6027 34.2019 55.7735 33.5671 57.0578 33.3134C57.4657 33.2483 57.8786 33.2174 58.292 33.221C59.9105 33.2207 61.4693 33.8126 62.6561 34.8782C63.4928 35.6506 64.0903 36.6339 64.3813 37.7172" fill="#CAE3F6"/>
<path d="M60.6069 33.6047C62.4412 30.8317 66.6485 29.8149 70.0102 30.4949C71.4998 30.7688 72.8725 31.4635 73.9549 32.4916C75.0374 33.5197 75.7812 34.8352 76.0926 36.272C76.5222 38.0943 76.6585 38.7875 78.0905 39.7647C80.1362 41.1512 79.9862 44.2543 78.336 45.7068C77.893 46.0721 77.3355 46.2815 76.754 46.301H65.8438" fill="#CAE3F6"/>
<path d="M52.4624 65.5803C53.7648 64.2598 57.8016 60.0211 57.8016 60.0211C58.7289 59.0506 59.6222 58.113 60.5291 57.1821C60.6892 57.0632 60.8018 56.8943 60.8478 56.7042C60.8938 56.514 60.8703 56.3142 60.7814 56.1389C60.6895 55.9652 60.5403 55.826 60.3575 55.7435C60.1748 55.661 59.9688 55.6398 59.7722 55.6834C59.479 55.7164 59.179 55.7296 58.8312 55.756L59.0562 55.3136C59.6427 54.2176 60.2359 53.1282 60.8155 52.0124C61.211 51.2664 60.8632 50.692 60.0109 50.692C57.9652 50.692 55.9196 50.692 53.9148 50.692C53.709 50.6774 53.5037 50.7264 53.3284 50.832C53.1532 50.9376 53.0171 51.0943 52.9397 51.2796C51.8146 53.5376 50.6759 55.789 49.5303 58.047C49.4373 58.1767 49.3853 58.3297 49.3807 58.4876C49.3761 58.6454 49.4192 58.8011 49.5045 58.9356C49.5899 59.0701 49.7139 59.1775 49.8614 59.2449C50.0089 59.3122 50.1734 59.3364 50.3349 59.3146H52.7965C52.667 59.7174 52.551 60.0871 52.4147 60.4503L51.6578 62.6554C51.3918 63.4609 51.1054 64.2004 50.9145 64.9531C50.8915 65.0976 50.9042 65.2454 50.9516 65.3843C50.999 65.5232 51.0798 65.6492 51.1873 65.7519C51.4316 65.9046 51.7242 65.9679 52.0124 65.9302C52.1487 65.917 52.326 65.7255 52.4624 65.5803Z" stroke="black" stroke-width="2.5" stroke-miterlimit="10" stroke-linecap="round"/>
<path d="M70.4299 59.8516L66.2021 63.7271" stroke="black" stroke-width="2.5" stroke-miterlimit="10" stroke-linecap="round"/>
<path d="M41.6452 59.8477L37.4175 63.7232" stroke="black" stroke-width="2.5" stroke-miterlimit="10" stroke-linecap="round"/>
<path d="M70.4303 51.4072L66.2026 55.2894" stroke="black" stroke-width="2.5" stroke-miterlimit="10" stroke-linecap="round"/>
<path d="M41.6452 51.4072L37.4175 55.2894" stroke="black" stroke-width="2.5" stroke-miterlimit="10" stroke-linecap="round"/>
<path d="M50.1102 19.0191C49.2002 16.8784 47.775 14.9793 45.9532 13.4801C44.1315 11.9809 41.9661 10.9249 39.6374 10.4003C37.3088 9.87574 34.8843 9.89765 32.5662 10.4642C30.2481 11.0308 28.1034 12.1257 26.3109 13.6575C24.5183 15.1894 23.1299 17.1139 22.2613 19.2707C21.3927 21.4275 21.0691 23.754 21.3175 26.0564C21.5658 28.3588 22.3789 30.5704 23.689 32.5069C24.9991 34.4433 26.7683 36.0486 28.849 37.1888" stroke="black" stroke-width="2.5" stroke-miterlimit="10" stroke-linecap="round"/>
<path d="M36.1646 9.92943V2" stroke="black" stroke-width="2.5" stroke-miterlimit="10" stroke-linecap="round"/>
<path d="M21.1895 24.584H13" stroke="black" stroke-width="2.5" stroke-miterlimit="10" stroke-linecap="round"/>
<path d="M25.548 14.2585L19.752 8.64648" stroke="black" stroke-width="2.5" stroke-miterlimit="10" stroke-linecap="round"/>
<path d="M46.8306 14.1462L52.6198 8.53418" stroke="black" stroke-width="2.5" stroke-miterlimit="10" stroke-linecap="round"/>
<path d="M25.6549 34.8574L19.8589 40.4628" stroke="black" stroke-width="2.5" stroke-miterlimit="10" stroke-linecap="round"/>
<path d="M66.9586 45.9939H35.3804C34.6505 45.9559 33.9415 45.7444 33.316 45.3783C32.6905 45.0121 32.1676 44.5025 31.7937 43.8943C31.2469 43.0685 30.936 42.117 30.8929 41.1369C30.8498 40.1569 31.0759 39.1832 31.5482 38.3154C32.1036 37.35 32.935 36.5604 33.9426 36.0416C34.9503 35.5227 36.0912 35.2966 37.2283 35.3905C38.183 35.4367 38.3807 35.1 38.4967 34.3341C38.9773 31.4291 40.3886 28.7436 42.5311 26.6573C44.6735 24.571 47.4389 23.1893 50.4365 22.7074H50.5115C53.8745 22.2569 57.2943 22.9574 60.1807 24.6881C60.4602 24.8598 60.7466 25.0446 61.0262 25.2427C62.6185 26.4055 63.952 27.8673 64.9471 29.5408L65.4039 30.2869" stroke="black" stroke-width="2.5" stroke-miterlimit="10" stroke-linecap="round"/>
<path d="M51.9062 38.315C52.0886 37.0705 52.6664 35.9117 53.5596 34.9996C54.4528 34.0874 55.617 33.4671 56.8908 33.2246C57.2987 33.1594 57.7117 33.1285 58.1251 33.1321C59.7368 33.1302 61.291 33.7119 62.4823 34.7629C63.3092 35.5112 63.9063 36.4663 64.2075 37.5227" stroke="black" stroke-width="2.5" stroke-miterlimit="10" stroke-linecap="round"/>
<path d="M60.4434 33.4753C62.2708 30.7485 66.4712 29.7317 69.8329 30.392C71.3122 30.6552 72.6782 31.3359 73.7591 32.3485C74.8401 33.3611 75.5879 34.6604 75.9086 36.0832C76.3381 37.8724 76.4745 38.5591 77.9065 39.5164C79.9521 40.8831 79.8021 43.94 78.152 45.3859C77.7067 45.7466 77.1501 45.9533 76.57 45.9735H74.5243" stroke="black" stroke-width="2.5" stroke-miterlimit="10" stroke-linecap="round"/>
<path d="M70.2217 45.9883H71.2709" stroke="black" stroke-width="2.5" stroke-miterlimit="10" stroke-linecap="round"/>
</g>
<defs>
<clipPath id="clip0_114_199">
<rect width="93" height="67" fill="white"/>
</clipPath>
</defs>
</svg>
