<svg width="93" height="67" viewBox="0 0 93 67" fill="none" xmlns="http://www.w3.org/2000/svg">
<path d="M28.5777 64.9836C30.4029 63.0239 36.0995 56.9142 36.0995 56.9142L39.9421 52.793C40.1666 52.6193 40.3257 52.3748 40.3937 52.0993C40.4617 51.8238 40.4346 51.5333 40.3168 51.2752C40.184 51.0233 39.9715 50.8226 39.7125 50.7044C39.4535 50.5862 39.1626 50.5572 38.8854 50.6219L37.5597 50.718L37.8767 50.084L40.3648 45.2807C40.922 44.2048 40.4224 43.3594 39.2312 43.3594C36.3493 43.3594 33.4674 43.3594 30.5854 43.3594C30.2965 43.3373 30.0081 43.4084 29.7626 43.5623C29.517 43.7162 29.3273 43.9447 29.2213 44.2144C27.6266 47.4998 26.0223 50.7756 24.4181 54.061C24.2646 54.2521 24.1743 54.4863 24.1598 54.731C24.1453 54.9757 24.2072 55.2188 24.337 55.4267C24.4669 55.6347 24.6581 55.7971 24.8844 55.8914C25.1106 55.9858 25.3606 56.0075 25.5997 55.9535H29.058C28.8755 56.5395 28.7218 57.0871 28.52 57.6058L27.521 60.7567C27.1463 61.9383 26.7428 63.0046 26.4739 64.1094C26.4441 64.3092 26.4579 64.5131 26.5143 64.7071C26.5707 64.9011 26.6683 65.0806 26.8005 65.2334C27.1423 65.4523 27.5515 65.5409 27.9532 65.4831C28.1454 65.4735 28.3855 65.1949 28.5777 64.9836Z" fill="#F5B952"/>
<path d="M63.5993 38.4117H16.7966C15.7107 38.3465 14.6576 38.0143 13.7309 37.4445C12.8042 36.8748 12.0325 36.0851 11.4842 35.1455C10.6192 33.7836 10.1526 32.2068 10.1371 30.5936C10.1216 28.9803 10.5578 27.3949 11.3964 26.0166C12.2349 24.6383 13.4424 23.5221 14.8823 22.7943C16.3221 22.0665 17.9369 21.7561 19.544 21.8982C20.9465 21.975 21.2443 21.4467 21.4653 20.2651C22.1468 15.7866 24.2163 11.6349 27.3822 8.39483C30.5481 5.15479 34.6509 2.9898 39.1124 2.20492H39.218C44.2125 1.50648 49.2925 2.60626 53.5509 5.30781C53.9736 5.56718 54.3867 5.85538 54.8093 6.16279C57.1594 7.99801 59.119 10.2843 60.5732 12.8873L61.2553 14.0497" fill="#CAE3F6"/>
<path d="M41.2935 26.4356C41.5561 24.5167 42.4077 22.7266 43.7309 21.3122C45.0541 19.8978 46.7836 18.9289 48.6808 18.5391C49.284 18.4398 49.8948 18.3948 50.5061 18.4046C52.9021 18.3986 55.2104 19.3055 56.9616 20.9408C58.2028 22.1145 59.0912 23.6118 59.5265 25.2637" fill="#CAE3F6"/>
<path d="M53.9351 18.9678C56.6441 14.7314 62.8691 13.2039 67.8452 14.2126C70.0518 14.6283 72.0855 15.6889 73.6894 17.2603C75.2933 18.8317 76.3953 20.8434 76.8561 23.041C77.4901 25.8268 77.6918 26.8835 79.8149 28.3822C82.8313 30.5052 82.62 35.2508 80.1799 37.4987C79.5231 38.0573 78.6975 38.3787 77.8359 38.4113H61.649" fill="#CAE3F6"/>
<path d="M28.5777 64.9836C30.4029 63.0239 36.0995 56.9142 36.0995 56.9142L39.9421 52.793C40.1666 52.6193 40.3257 52.3748 40.3937 52.0993C40.4617 51.8238 40.4346 51.5333 40.3168 51.2752C40.184 51.0233 39.9715 50.8226 39.7125 50.7044C39.4535 50.5862 39.1626 50.5572 38.8854 50.6219L37.5597 50.718L37.8767 50.084L40.3648 45.2807C40.922 44.2048 40.4224 43.3594 39.2312 43.3594C36.3493 43.3594 33.4674 43.3594 30.5854 43.3594C30.2965 43.3373 30.0081 43.4084 29.7626 43.5623C29.517 43.7162 29.3273 43.9447 29.2213 44.2144C27.6266 47.4998 26.0223 50.7756 24.4181 54.061C24.2646 54.2521 24.1743 54.4863 24.1598 54.731C24.1453 54.9757 24.2072 55.2188 24.337 55.4267C24.4669 55.6347 24.6581 55.7971 24.8844 55.8914C25.1106 55.9858 25.3606 56.0075 25.5997 55.9535H29.058C28.8755 56.5395 28.7218 57.0871 28.52 57.6058L27.521 60.7567C27.1463 61.9383 26.7428 63.0046 26.4739 64.1094C26.4441 64.3092 26.4579 64.5131 26.5143 64.7071C26.5707 64.9011 26.6683 65.0806 26.8005 65.2334C27.1423 65.4523 27.5515 65.5409 27.9532 65.4831C28.1454 65.4735 28.3855 65.1949 28.5777 64.9836Z" stroke="black" stroke-width="3" stroke-miterlimit="10" stroke-linecap="round"/>
<path d="M52.7964 64.9836C54.6216 63.0239 60.3183 56.9142 60.3183 56.9142L64.1609 52.793C64.3853 52.6193 64.5445 52.3748 64.6125 52.0993C64.6805 51.8238 64.6534 51.5333 64.5355 51.2752C64.4028 51.0233 64.1902 50.8226 63.9313 50.7044C63.6723 50.5862 63.3814 50.5572 63.1042 50.6219L61.7785 50.718L62.0955 50.084L64.5836 45.2807C65.1407 44.2048 64.6412 43.3594 63.45 43.3594C60.568 43.3594 57.6861 43.3594 54.8042 43.3594C54.5152 43.3373 54.2268 43.4084 53.9813 43.5623C53.7358 43.7162 53.5461 43.9447 53.4401 44.2144C51.8454 47.4998 50.2411 50.7756 48.6368 54.061C48.4833 54.2521 48.3931 54.4863 48.3785 54.731C48.364 54.9757 48.426 55.2188 48.5558 55.4267C48.6856 55.6347 48.8769 55.7971 49.1031 55.8914C49.3293 55.9858 49.5793 56.0075 49.8184 55.9535H53.2767C53.0942 56.5395 52.9405 57.0871 52.7388 57.6058L51.7397 60.7567C51.3651 61.9383 50.9616 63.0046 50.6926 64.1094C50.6629 64.3092 50.6767 64.5131 50.7331 64.7071C50.7894 64.9011 50.887 65.0806 51.0192 65.2334C51.361 65.4523 51.7702 65.5409 52.172 65.4831C52.3641 65.4735 52.6043 65.1949 52.7964 64.9836Z" fill="#F5B952"/>
<path d="M52.7964 64.9836C54.6216 63.0239 60.3183 56.9142 60.3183 56.9142L64.1609 52.793C64.3853 52.6193 64.5445 52.3748 64.6125 52.0993C64.6805 51.8238 64.6534 51.5333 64.5355 51.2752C64.4028 51.0233 64.1902 50.8226 63.9313 50.7044C63.6723 50.5862 63.3814 50.5572 63.1042 50.6219L61.7785 50.718L62.0955 50.084L64.5836 45.2807C65.1407 44.2048 64.6412 43.3594 63.45 43.3594C60.568 43.3594 57.6861 43.3594 54.8042 43.3594C54.5152 43.3373 54.2268 43.4084 53.9813 43.5623C53.7358 43.7162 53.5461 43.9447 53.4401 44.2144C51.8454 47.4998 50.2411 50.7756 48.6368 54.061C48.4833 54.2521 48.3931 54.4863 48.3785 54.731C48.364 54.9757 48.426 55.2188 48.5558 55.4267C48.6856 55.6347 48.8769 55.7971 49.1031 55.8914C49.3293 55.9858 49.5793 56.0075 49.8184 55.9535H53.2767C53.0942 56.5395 52.9405 57.0871 52.7388 57.6058L51.7397 60.7567C51.3651 61.9383 50.9616 63.0046 50.6926 64.1094C50.6629 64.3092 50.6767 64.5131 50.7331 64.7071C50.7894 64.9011 50.887 65.0806 51.0192 65.2334C51.361 65.4523 51.7702 65.5409 52.172 65.4831C52.3641 65.4735 52.6043 65.1949 52.7964 64.9836Z" stroke="black" stroke-width="3" stroke-miterlimit="10" stroke-linecap="round"/>
<path d="M64.0028 38.4408H16.7197C15.6281 38.377 14.5685 38.0479 13.6328 37.4821C12.697 36.9163 11.9134 36.1308 11.3497 35.1938C10.5347 33.9118 10.0718 32.4377 10.0077 30.9198C9.94361 29.402 10.2806 27.8941 10.9847 26.548C11.8177 25.0549 13.0638 23.8338 14.5735 23.0313C16.0832 22.2287 17.7924 21.8787 19.496 22.0233C20.9178 22.1002 21.2156 21.5814 21.4173 20.3998C22.1389 15.9145 24.2493 11.7686 27.4513 8.54589C30.6533 5.3232 34.7856 3.18616 39.2661 2.43574H39.3814C44.4156 1.73497 49.5365 2.81555 53.8583 5.4906C54.281 5.75317 54.7037 6.04137 55.1264 6.35518C57.5064 8.15386 59.5022 10.4109 60.9959 12.9932L61.678 14.146" stroke="black" stroke-width="3" stroke-miterlimit="10" stroke-linecap="round"/>
<path d="M41.4756 26.5195C41.7454 24.5931 42.6095 22.7988 43.9475 21.3867C45.2854 19.9747 47.0307 19.0153 48.9398 18.6422C49.5503 18.5522 50.1675 18.5168 50.7842 18.5366C53.1966 18.5311 55.5236 19.429 57.307 21.0535C58.5482 22.2266 59.4422 23.719 59.8912 25.3668" stroke="black" stroke-width="3" stroke-miterlimit="10" stroke-linecap="round"/>
<path d="M54.2437 19.0831C56.9815 14.8754 63.2737 13.3192 68.2979 14.3567C70.5136 14.7578 72.5606 15.8071 74.1799 17.3717C75.7993 18.9363 76.9182 20.946 77.3952 23.1466C78.0389 25.9229 78.2406 26.9892 80.3828 28.459C83.4377 30.5724 83.2648 35.2988 80.7575 37.5275C80.093 38.0921 79.2563 38.4139 78.3847 38.4401H75.3202" stroke="black" stroke-width="3" stroke-miterlimit="10" stroke-linecap="round"/>
<path d="M69.3379 38.4404H70.347" stroke="black" stroke-width="3" stroke-miterlimit="10" stroke-linecap="round"/>
</svg>
