<svg width="93" height="67" viewBox="0 0 93 67" fill="none" xmlns="http://www.w3.org/2000/svg">
<path d="M28.4694 2.94242C18.9977 4.05239 12.1899 12.4881 13.0778 22.0339C13.9658 31.5056 22.4756 38.3874 31.8733 37.3514C34.0932 37.0554 36.0912 36.4634 38.1631 35.3535C36.9791 34.5395 35.9432 33.6515 34.9812 32.6156C31.6513 29.5076 29.3574 25.5118 28.6174 20.9979C27.8034 15.5221 29.2834 10.2682 30.9853 6.64231C31.5773 5.45835 32.1693 4.12639 32.9093 3.01642C31.5033 2.72043 29.9493 2.72043 28.4694 2.94242Z" fill="#EAD88C"/>
<path d="M28.4694 2.94242C18.9977 4.05239 12.1899 12.4881 13.0778 22.0339C13.9658 31.5056 22.4756 38.3874 31.8733 37.3514C34.0932 37.0554 36.0912 36.4634 38.1631 35.3535C36.9791 34.5395 35.9432 33.6515 34.9812 32.6156C31.6513 29.5076 29.3574 25.5118 28.6174 20.9979C27.8034 15.5221 29.2834 10.2682 30.9853 6.64231C31.5773 5.45835 32.1693 4.12639 32.9093 3.01642C31.5033 2.72043 29.9493 2.72043 28.4694 2.94242Z" stroke="black" stroke-width="3" stroke-miterlimit="10" stroke-linecap="round" stroke-linejoin="round"/>
<path d="M47.4459 65.6893C48.8519 64.2094 53.2178 59.4735 53.2178 59.4735C54.2537 58.3635 55.2157 57.3276 56.1777 56.2916C56.5477 55.9956 56.6957 55.5516 56.4737 55.1076C56.2517 54.7377 55.8077 54.5157 55.3637 54.5897C55.0677 54.5897 54.6977 54.6637 54.3277 54.6637C54.4017 54.4417 54.4757 54.2937 54.5497 54.1457C55.2157 52.8877 55.8077 51.7037 56.4737 50.4458C56.9177 49.6318 56.5477 48.9658 55.5857 48.9658C53.3658 48.9658 51.1458 48.9658 48.9999 48.9658C48.5559 48.9658 48.1119 49.1878 47.9639 49.6318C46.706 52.1477 45.522 54.6637 44.264 57.1796C43.968 57.6236 44.042 58.1416 44.486 58.4375C44.708 58.5855 44.93 58.6595 45.152 58.5855H47.8159C47.6679 59.0295 47.5939 59.4735 47.3719 59.8435L46.558 62.2854C46.262 63.1734 45.966 63.9874 45.744 64.8754C45.67 65.1714 45.744 65.5413 45.966 65.7633C46.262 65.9113 46.558 65.9853 46.8539 65.9853C47.0759 66.0593 47.2979 65.8373 47.4459 65.6893Z" fill="#F5B952"/>
<path d="M66.0607 45.6435H29.8757C28.1738 45.4955 26.6198 44.6076 25.7319 43.1276C23.7339 40.0197 24.6219 35.9498 27.7298 33.9519C28.9878 33.1379 30.4677 32.7679 32.0217 32.9159C33.1316 32.9899 33.3536 32.5459 33.5016 31.658C34.6116 24.5542 40.0874 19.0043 47.1172 17.7464H47.1912C51.0391 17.2284 54.961 18.0423 58.2909 20.1143C58.5869 20.3363 58.9569 20.5583 59.2529 20.7803C61.1028 22.1862 62.5828 23.9622 63.7667 25.9601L64.2847 26.8481" fill="#CAE3F6"/>
<path d="M48.8179 36.389C49.2619 33.3551 51.5558 30.9132 54.5157 30.2472C54.9597 30.1732 55.4777 30.0992 55.9217 30.1732C57.7716 30.1732 59.6216 30.8392 60.9535 32.1712C61.9155 33.0591 62.5815 34.2431 62.9515 35.5011" fill="#CAE3F6"/>
<path d="M58.585 30.619C60.6569 27.3631 65.4668 26.1051 69.3147 26.9191C72.7926 27.5851 75.6045 30.323 76.2705 33.8009C76.7884 35.9468 76.9364 36.7608 78.5644 37.9448C80.8583 39.5727 80.7103 43.2726 78.8604 44.9746C78.3424 45.4186 77.7504 45.7146 77.0104 45.7146H64.5048" fill="#CAE3F6"/>
<path d="M47.8898 65.4677C49.2957 63.9877 53.6616 59.2518 53.6616 59.2518C54.6976 58.1419 55.6596 57.1059 56.6215 56.0699C56.9915 55.7739 57.0655 55.3299 56.9175 54.886C56.6955 54.516 56.2515 54.294 55.8075 54.368C55.5116 54.368 55.1416 54.442 54.7716 54.442L54.9936 53.924C55.6596 52.666 56.2515 51.4821 56.9175 50.2241C57.3615 49.4101 56.9915 48.7441 56.0295 48.7441C53.8096 48.7441 51.5897 48.7441 49.4437 48.7441C48.9997 48.7441 48.5558 48.9661 48.4078 49.4101C47.2238 51.926 45.9658 54.442 44.7079 57.0319C44.4119 57.4759 44.4859 57.9939 44.9299 58.2899C45.1519 58.4379 45.3738 58.5119 45.5958 58.4379H48.2598C48.1118 58.8818 47.9638 59.3258 47.8158 59.6958L47.0018 62.1378C46.7058 63.0257 46.4098 63.8397 46.1878 64.7277C46.1138 65.0237 46.1878 65.3937 46.4098 65.6156C46.7058 65.7636 47.0018 65.8376 47.2978 65.8376C47.5198 65.8376 47.7418 65.6156 47.8898 65.4677Z" stroke="black" stroke-width="2" stroke-miterlimit="10" stroke-linecap="round"/>
<path d="M70.3535 59.0312L65.7656 63.3971" stroke="black" stroke-width="3" stroke-miterlimit="10" stroke-linecap="round"/>
<path d="M39.124 59.0312L34.5361 63.3971" stroke="black" stroke-width="3" stroke-miterlimit="10" stroke-linecap="round"/>
<path d="M70.3535 49.5566L65.7656 53.9225" stroke="black" stroke-width="3" stroke-miterlimit="10" stroke-linecap="round"/>
<path d="M39.124 49.5566L34.5361 53.9225" stroke="black" stroke-width="3" stroke-miterlimit="10" stroke-linecap="round"/>
<path d="M65.763 45.5668H29.3561C27.6541 45.4928 26.1002 44.5309 25.2122 43.0509C23.9543 41.053 23.8063 38.463 24.9162 36.3911C26.2482 34.0232 28.7641 32.6912 31.428 32.9132C32.538 32.9872 32.76 32.5432 32.908 31.6552C34.018 24.5514 39.5678 19.0016 46.6716 17.8176H46.7456C50.5935 17.2997 54.5894 18.1136 57.9193 20.1856C58.2153 20.4076 58.5853 20.6296 58.8812 20.8516C60.7312 22.2575 62.2851 23.9595 63.3951 25.9574L63.9131 26.8454" stroke="black" stroke-width="3" stroke-miterlimit="10" stroke-linecap="round"/>
<path d="M48.4482 36.3912C48.8922 33.3573 51.1862 30.9154 54.2201 30.3234C54.6641 30.2494 55.182 30.1754 55.626 30.2494C57.476 30.2494 59.2519 30.9154 60.6579 32.1733C61.6199 33.0613 62.2858 34.2453 62.6558 35.5032" stroke="black" stroke-width="3" stroke-miterlimit="10" stroke-linecap="round"/>
<path d="M58.2148 30.6162C60.3608 27.3603 65.1706 26.1763 69.0185 26.9903C72.4964 27.6563 75.2343 30.3202 76.0483 33.7981C76.5663 35.944 76.7143 36.758 78.3423 37.868C80.7102 39.4959 80.5622 43.1218 78.6383 44.8238C78.1203 45.2678 77.4543 45.4897 76.7883 45.4897H74.4204" stroke="black" stroke-width="3" stroke-miterlimit="10" stroke-linecap="round"/>
<path d="M69.4873 45.416H70.4722" stroke="black" stroke-width="3" stroke-miterlimit="10" stroke-linecap="round"/>
</svg>
