<svg width="93" height="67" viewBox="0 0 93 67" fill="none" xmlns="http://www.w3.org/2000/svg">
<path d="M43.8015 64.2526C45.596 62.3833 51.1197 56.3829 51.1197 56.3829C52.3908 55.009 53.6152 53.6818 54.8583 52.364C55.0773 52.1976 55.2328 51.9614 55.2991 51.6945C55.3654 51.4276 55.3385 51.1461 55.2228 50.8966C55.0951 50.6498 54.8889 50.4526 54.6368 50.3358C54.3847 50.2191 54.1009 50.1895 53.8302 50.2517C53.4283 50.2984 53.0264 50.3171 52.5404 50.3545C52.6712 50.0928 52.7553 49.9059 52.8488 49.7283L55.2695 45.0551C55.8116 43.9989 55.3256 43.1858 54.1666 43.1858C51.3627 43.1858 48.5588 43.1858 45.7549 43.1858C45.4749 43.1635 45.1951 43.2313 44.9563 43.3793C44.7176 43.5273 44.5324 43.7476 44.4277 44.0083C42.8762 47.2047 41.3153 50.4012 39.7545 53.5883C39.6142 53.7758 39.534 54.0013 39.5244 54.2352C39.5148 54.4691 39.5763 54.7004 39.7007 54.8987C39.8252 55.097 40.0067 55.253 40.2215 55.3461C40.4363 55.4392 40.6743 55.465 40.9041 55.4202H44.2688C44.0912 55.9904 43.9417 56.5138 43.7454 57.0278L42.7733 60.1495C42.4088 61.2898 42.0163 62.3366 41.7546 63.4021C41.7244 63.5965 41.7372 63.7952 41.7921 63.9841C41.847 64.173 41.9427 64.3476 42.0724 64.4956C42.404 64.7111 42.8019 64.8006 43.1939 64.748C43.3809 64.7293 43.6145 64.4582 43.8015 64.2526Z" fill="#F5B952"/>
<path d="M63.1491 37.4211H17.6133C16.5568 37.3577 15.5323 37.0344 14.6307 36.4801C13.7291 35.9258 12.9782 35.1574 12.4448 34.2433C11.6033 32.9183 11.1493 31.3842 11.1342 29.8146C11.1191 28.245 11.5435 26.7025 12.3593 25.3615C13.1752 24.0205 14.35 22.9345 15.7509 22.2264C17.1518 21.5183 18.7228 21.2163 20.2864 21.3546C21.651 21.42 21.9407 20.9153 22.1557 19.7563C22.8259 15.4059 24.8426 11.3748 27.9222 8.2298C31.0019 5.08476 34.9897 2.98387 39.3251 2.22244H39.4279C44.2823 1.54088 49.2215 2.5969 53.3728 5.20395C53.784 5.4563 54.1859 5.74604 54.5971 6.04513C56.8856 7.82847 58.7926 10.0533 60.205 12.5876L60.8686 13.7185" fill="#CAE3F6"/>
<path d="M41.4458 25.7552C41.6982 23.886 42.5256 22.1415 43.8133 20.7634C45.101 19.3852 46.7854 18.4416 48.6332 18.0631C49.2204 17.9682 49.8143 17.9213 50.409 17.9229C52.7386 17.9254 54.9815 18.8065 56.6898 20.3903C57.8992 21.5384 58.7635 23.0016 59.1853 24.6149" fill="#CAE3F6"/>
<path d="M53.7485 18.4923C56.3842 14.3799 62.4407 12.8844 67.2822 13.8191C69.4287 14.2277 71.4064 15.2621 72.9664 16.7922C74.5264 18.3222 75.599 20.2795 76.0491 22.4178C76.666 25.1282 76.8622 26.1564 78.9278 27.6144C81.8626 29.68 81.6569 34.2971 79.283 36.4748C78.649 37.0268 77.8427 37.3407 77.0024 37.3627H61.2537" fill="#CAE3F6"/>
<path d="M43.8012 64.4875C45.5957 62.6183 51.1195 56.6179 51.1195 56.6179L54.858 52.6082C55.0764 52.4393 55.2313 52.2014 55.2974 51.9333C55.3636 51.6653 55.3372 51.3827 55.2225 51.1315C55.0934 50.8865 54.8866 50.6912 54.6346 50.5762C54.3827 50.4612 54.0997 50.433 53.8299 50.4959L52.5401 50.5894L52.8486 49.9725L55.2693 45.2993C55.8114 44.2525 55.3254 43.43 54.1664 43.43C51.3625 43.43 48.5585 43.43 45.7546 43.43C45.4741 43.4048 45.1931 43.4713 44.9537 43.6197C44.7143 43.768 44.5296 43.9901 44.4274 44.2525C42.8759 47.449 41.3151 50.6361 39.7542 53.8326C39.612 54.0191 39.5301 54.2445 39.5197 54.4788C39.5093 54.7131 39.5707 54.945 39.6958 55.1433C39.8209 55.3416 40.0037 55.497 40.2196 55.5885C40.4356 55.68 40.6743 55.7032 40.9038 55.6552H44.2685C44.091 56.2253 43.9414 56.7581 43.7451 57.2628L42.7731 60.3845C42.4086 61.5341 42.0161 62.5715 41.7544 63.6464C41.7254 63.8408 41.7389 64.0391 41.7937 64.2279C41.8486 64.4166 41.9435 64.5913 42.0721 64.7399C42.4047 64.9529 42.8028 65.0392 43.1937 64.9829C43.3806 64.9642 43.6143 64.6932 43.8012 64.4875Z" stroke="black" stroke-width="3" stroke-miterlimit="10" stroke-linecap="round"/>
<path d="M63.5409 37.233H17.5378C16.4758 37.1709 15.4448 36.8507 14.5344 36.3002C13.624 35.7498 12.8616 34.9856 12.3132 34.0739C11.5202 32.8266 11.0698 31.3923 11.0075 29.9156C10.9451 28.4389 11.273 26.9718 11.958 25.6621C12.7685 24.2094 13.9809 23.0214 15.4497 22.2406C16.9185 21.4598 18.5814 21.1193 20.239 21.2599C21.6222 21.3347 21.912 20.83 22.1082 19.6804C22.8103 15.3165 24.8635 11.2828 27.9789 8.14732C31.0942 5.01186 35.1146 2.93267 39.4739 2.20257H39.5861C44.484 1.52077 49.4662 2.57209 53.6711 5.17473C54.0824 5.4302 54.4936 5.71059 54.9048 6.01591C57.2204 7.7659 59.1622 9.96186 60.6155 12.4743L61.2791 13.5959" stroke="black" stroke-width="3" stroke-miterlimit="10" stroke-linecap="round"/>
<path d="M41.623 25.6343C41.8855 23.76 42.7262 22.0143 44.028 20.6405C45.3298 19.2667 47.0277 18.3332 48.8852 17.9703C49.4791 17.8827 50.0797 17.8483 50.6797 17.8675C53.0268 17.8622 55.2908 18.7358 57.0259 20.3162C58.2335 21.4577 59.1033 22.9096 59.5401 24.5128" stroke="black" stroke-width="3" stroke-miterlimit="10" stroke-linecap="round"/>
<path d="M54.0439 18.3989C56.7077 14.3051 62.8296 12.791 67.7178 13.8004C69.8735 14.1907 71.8651 15.2115 73.4406 16.7338C75.0161 18.256 76.1047 20.2114 76.5688 22.3524C77.195 25.0535 77.3913 26.091 79.4756 27.521C82.4477 29.5772 82.2795 34.1756 79.8401 36.344C79.1936 36.8933 78.3795 37.2064 77.5315 37.2319H74.55" stroke="black" stroke-width="3" stroke-miterlimit="10" stroke-linecap="round"/>
<path d="M68.8716 37.2324H69.9216" stroke="black" stroke-width="3" stroke-miterlimit="10" stroke-linecap="round"/>
<path d="M68.4433 56.374L62.6392 61.8697" stroke="black" stroke-width="3" stroke-miterlimit="10" stroke-linecap="round"/>
<path d="M28.9784 56.374L23.1836 61.8697" stroke="black" stroke-width="3" stroke-miterlimit="10" stroke-linecap="round"/>
<path d="M68.4472 44.4199L62.6431 49.9156" stroke="black" stroke-width="3" stroke-miterlimit="10" stroke-linecap="round"/>
<path d="M28.9784 44.4199L23.1836 49.9156" stroke="black" stroke-width="3" stroke-miterlimit="10" stroke-linecap="round"/>
</svg>
