<svg width="93" height="67" viewBox="0 0 93 67" fill="none" xmlns="http://www.w3.org/2000/svg">
<path d="M57.2287 39.4674H10.3058C9.21715 39.4003 8.16143 39.0582 7.23234 38.4715C6.30325 37.8848 5.52953 37.0716 4.97982 36.1041C4.11267 34.7017 3.64487 33.0781 3.62931 31.4168C3.61375 29.7556 4.05106 28.123 4.89178 26.7037C5.73251 25.2844 6.9431 24.1351 8.38665 23.3856C9.83021 22.6362 11.4491 22.3166 13.0603 22.4629C14.4761 22.5321 14.765 21.9979 14.9866 20.7713C15.6772 16.1669 17.7553 11.9005 20.9287 8.57182C24.1022 5.24316 28.2115 3.01961 32.6789 2.21372H32.7849C37.7872 1.49237 42.8768 2.61005 47.1545 5.36931C47.5783 5.63639 48.0021 5.94305 48.4162 6.2596C50.7744 8.14706 52.7395 10.5018 54.1949 13.1841L54.8787 14.381" fill="#CAE3F6"/>
<path d="M34.8657 27.1388C35.1184 25.1533 35.9676 23.2982 37.2951 21.8319C38.6227 20.3655 40.3624 19.3609 42.2721 18.958C42.8771 18.8576 43.4891 18.808 44.102 18.8096C46.5029 18.8103 48.8147 19.7432 50.5741 21.4211C51.8188 22.6335 52.7093 24.1786 53.1456 25.8825" fill="#CAE3F6"/>
<path d="M47.541 19.4346C50.257 15.0821 56.5076 13.4993 61.4869 14.538C63.6988 14.9704 65.7368 16.0653 67.3443 17.6847C68.9519 19.304 70.0571 21.3756 70.5209 23.6387C71.1566 26.5074 71.3588 27.5956 73.4873 29.1387C76.5115 31.3249 76.2996 36.2116 73.8533 38.5165C73.2 39.1006 72.3691 39.4329 71.5033 39.4562H55.2748" fill="#CAE3F6"/>
<path d="M57.6097 52.6689C55.0574 52.6689 52.5052 52.6689 49.9048 52.6689" stroke="black" stroke-width="3" stroke-miterlimit="10" stroke-linecap="round"/>
<path d="M49.9473 47.4316C51.3245 47.4316 52.7114 47.4316 54.0983 47.4316" stroke="black" stroke-width="3" stroke-miterlimit="10" stroke-linecap="round"/>
<path d="M59.8184 47.4405C67.8507 47.4405 75.8767 47.4405 83.8962 47.4405C85.0851 47.4867 86.2662 47.2256 87.3314 46.6812C88.3966 46.1367 89.3116 45.3264 89.9927 44.3245C90.8223 43.0981 91.1583 41.5899 90.9303 40.115C90.7024 38.6402 89.9282 37.3129 88.7695 36.4108C87.9408 35.7979 86.9259 35.5099 85.9084 35.5988C84.8909 35.6877 83.938 36.1477 83.222 36.8955C82.6518 37.5022 82.3331 38.3126 82.3331 39.1558C82.3331 39.9991 82.6518 40.8095 83.222 41.4162C83.4267 41.6399 83.6724 41.82 83.9449 41.9461C84.2175 42.0722 84.5116 42.1419 84.8104 42.1511C85.1092 42.1603 85.4069 42.1088 85.6863 41.9997C85.9657 41.8906 86.2214 41.7259 86.4388 41.5151" stroke="black" stroke-width="3" stroke-miterlimit="10" stroke-linecap="round"/>
<path d="M74.117 58.6681C73.7489 58.2791 73.2657 58.0263 72.7429 57.9494C72.2202 57.8724 71.6873 57.9756 71.2277 58.2427C70.7534 58.5696 70.3752 59.0236 70.1342 59.5554C69.8931 60.0872 69.7983 60.6766 69.86 61.2598C69.9931 62.0757 70.3773 62.8263 70.9562 63.4014C71.5352 63.9765 72.2785 64.3457 73.0768 64.455C74.2291 64.6342 75.4049 64.3626 76.3716 63.6939C77.3382 63.0253 78.0253 62.0084 78.2969 60.8444C78.6891 59.5071 78.6151 58.0712 78.0878 56.7839C77.5604 55.4966 76.6126 54.4383 75.4076 53.7913C74.2192 53.0751 72.8655 52.6994 71.4877 52.7032H63.0894" stroke="black" stroke-width="3" stroke-miterlimit="10" stroke-linecap="round"/>
<path d="M57.1414 39.4473H9.737C8.64256 39.3815 7.58023 39.0427 6.64208 38.4601C5.70394 37.8775 4.91828 37.0686 4.3532 36.1037C3.53604 34.7836 3.07197 33.2656 3.00772 31.7027C2.94347 30.1397 3.28131 28.587 3.98721 27.2008C4.8224 25.6633 6.0717 24.406 7.58526 23.5796C9.09883 22.7531 10.8124 22.3928 12.5204 22.5416C13.9458 22.6208 14.2444 22.0866 14.4466 20.8699C15.17 16.2512 17.2858 11.982 20.4961 8.66345C23.7063 5.34494 27.8492 3.14435 32.3413 2.37162H32.4568C37.504 1.65001 42.638 2.76272 46.9709 5.51731C47.3947 5.7877 47.8185 6.08446 48.2423 6.4076C50.6284 8.25976 52.6293 10.5839 54.1269 13.2431L54.8107 14.4301" stroke="black" stroke-width="3" stroke-miterlimit="10" stroke-linecap="round"/>
<path d="M34.5566 27.1721C34.8271 25.1883 35.6934 23.3407 37.0349 21.8867C38.3763 20.4327 40.126 19.4447 42.04 19.0606C42.652 18.9678 43.2709 18.9314 43.8892 18.9518C46.3078 18.9462 48.6407 19.8708 50.4287 21.5435C51.6731 22.7516 52.5694 24.2883 53.0195 25.985" stroke="black" stroke-width="3" stroke-miterlimit="10" stroke-linecap="round"/>
<path d="M47.3555 19.5278C50.1003 15.195 56.4087 13.5925 61.4458 14.6609C63.6672 15.0739 65.7194 16.1543 67.3429 17.7655C68.9664 19.3766 70.0882 21.4461 70.5665 23.7121C71.2118 26.571 71.414 27.669 73.5618 29.1825C76.6245 31.3587 76.4511 36.2257 73.9374 38.5206C73.2712 39.102 72.4323 39.4334 71.5585 39.4604H68.4862" stroke="black" stroke-width="3" stroke-miterlimit="10" stroke-linecap="round"/>
<path d="M62.4639 39.4473H63.4639" stroke="black" stroke-width="3" stroke-miterlimit="10" stroke-linecap="round"/>
</svg>
