<svg width="140" height="160" viewBox="0 0 1344 1528" fill="none" xmlns="http://www.w3.org/2000/svg">
<path d="M1220.3 1504.79L1282 1438.64M1282 1438.64L1212.63 1380.2M1282 1438.64C807.451 1482 631.451 1292 631.451 868" stroke="black" stroke-width="45" stroke-linecap="round" stroke-linejoin="round"/>
<path d="M716.593 154.5C709.093 154.5 702.593 153.25 697.093 150.75C691.593 148.25 687.343 144.7 684.343 140.1C681.443 135.4 679.943 129.9 679.843 123.6H698.593C698.593 128.1 700.193 131.65 703.393 134.25C706.693 136.75 711.143 138 716.743 138C722.143 138 726.343 136.75 729.343 134.25C732.443 131.75 733.993 128.3 733.993 123.9C733.993 120.2 732.893 117 730.693 114.3C728.593 111.5 725.543 109.6 721.543 108.6L708.943 105.15C700.343 102.95 693.693 99 688.993 93.3C684.393 87.6 682.093 80.7 682.093 72.6C682.093 66.4 683.493 61 686.293 56.4C689.093 51.8 693.043 48.25 698.143 45.75C703.343 43.25 709.443 42 716.443 42C727.043 42 735.443 44.75 741.643 50.25C747.843 55.65 750.993 62.95 751.093 72.15H732.343C732.343 67.85 730.943 64.5 728.143 62.1C725.343 59.6 721.393 58.35 716.293 58.35C711.393 58.35 707.593 59.5 704.893 61.8C702.193 64.1 700.843 67.35 700.843 71.55C700.843 75.35 701.843 78.6 703.843 81.3C705.943 83.9 708.943 85.75 712.843 86.85L725.893 90.45C734.593 92.65 741.243 96.6 745.843 102.3C750.443 107.9 752.743 114.85 752.743 123.15C752.743 129.35 751.243 134.85 748.243 139.65C745.243 144.35 741.043 148 735.643 150.6C730.243 153.2 723.893 154.5 716.593 154.5ZM815.234 153C807.334 153 801.134 150.8 796.634 146.4C792.234 142 790.034 135.95 790.034 128.25V87.45H767.684V70.5H790.034V47.25H808.934V70.5H840.584V87.45H808.934V128.25C808.934 133.45 811.484 136.05 816.584 136.05H839.084V153H815.234ZM887.026 154.5C878.526 154.5 871.826 152.25 866.926 147.75C862.026 143.25 859.576 137.2 859.576 129.6C859.576 121.5 862.276 115.25 867.676 110.85C873.076 106.45 880.726 104.25 890.626 104.25H911.176V97.2C911.176 93.2 909.876 90.1 907.276 87.9C904.676 85.6 901.126 84.45 896.626 84.45C892.526 84.45 889.126 85.35 886.426 87.15C883.726 88.95 882.126 91.4 881.626 94.5H863.326C864.226 86.7 867.726 80.5 873.826 75.9C879.926 71.3 887.726 69 897.226 69C907.326 69 915.276 71.55 921.076 76.65C926.976 81.65 929.926 88.45 929.926 97.05V153H911.776V138.6H908.776L911.776 134.55C911.776 140.65 909.526 145.5 905.026 149.1C900.526 152.7 894.526 154.5 887.026 154.5ZM893.176 140.4C898.476 140.4 902.776 139.05 906.076 136.35C909.476 133.65 911.176 130.15 911.176 125.85V115.8H890.926C887.126 115.8 884.076 116.9 881.776 119.1C879.476 121.3 878.326 124.2 878.326 127.8C878.326 131.7 879.626 134.8 882.226 137.1C884.926 139.3 888.576 140.4 893.176 140.4ZM955.217 153V70.5H972.917V86.25H977.567L972.017 95.85C972.017 86.95 974.017 80.25 978.017 75.75C982.017 71.25 987.917 69 995.717 69C1004.62 69 1011.62 71.75 1016.72 77.25C1021.82 82.75 1024.37 90.35 1024.37 100.05V106.05H1004.72V101.4C1004.72 96.1 1003.32 92 1000.52 89.1C997.817 86.2 994.067 84.75 989.267 84.75C984.367 84.75 980.567 86.2 977.867 89.1C975.267 92 973.967 96.1 973.967 101.4V153H955.217ZM1085.06 153C1077.16 153 1070.96 150.8 1066.46 146.4C1062.06 142 1059.86 135.95 1059.86 128.25V87.45H1037.51V70.5H1059.86V47.25H1078.76V70.5H1110.41V87.45H1078.76V128.25C1078.76 133.45 1081.31 136.05 1086.41 136.05H1108.91V153H1085.06ZM143.045 351V333.9H171.845V285.45H146.795V268.5H189.845V333.9H215.345V351H143.045ZM179.345 254.7C175.545 254.7 172.545 253.75 170.345 251.85C168.145 249.85 167.045 247.2 167.045 243.9C167.045 240.6 168.145 238 170.345 236.1C172.545 234.1 175.545 233.1 179.345 233.1C183.145 233.1 186.145 234.1 188.345 236.1C190.545 238 191.645 240.6 191.645 243.9C191.645 247.2 190.545 249.85 188.345 251.85C186.145 253.75 183.145 254.7 179.345 254.7ZM233.136 351V268.5H251.436V284.25H256.536L251.436 288.6C251.436 281.8 253.386 276.5 257.286 272.7C261.286 268.9 266.736 267 273.636 267C281.736 267 288.186 269.7 292.986 275.1C297.886 280.5 300.336 287.75 300.336 296.85V351H281.586V298.8C281.586 293.8 280.286 289.95 277.686 287.25C275.086 284.55 271.436 283.2 266.736 283.2C262.136 283.2 258.486 284.6 255.786 287.4C253.186 290.2 251.886 294.2 251.886 299.4V351H233.136ZM365.527 351C357.627 351 351.427 348.8 346.927 344.4C342.527 340 340.327 333.95 340.327 326.25V285.45H317.977V268.5H340.327V245.25H359.227V268.5H390.877V285.45H359.227V326.25C359.227 331.45 361.777 334.05 366.877 334.05H389.377V351H365.527ZM446.619 352.5C439.619 352.5 433.519 351.15 428.319 348.45C423.119 345.75 419.069 342 416.169 337.2C413.369 332.3 411.969 326.6 411.969 320.1V299.4C411.969 292.9 413.369 287.25 416.169 282.45C419.069 277.55 423.119 273.75 428.319 271.05C433.519 268.35 439.619 267 446.619 267C453.519 267 459.519 268.35 464.619 271.05C469.819 273.75 473.819 277.55 476.619 282.45C479.519 287.25 480.969 292.9 480.969 299.4V314.25H430.119V320.1C430.119 325.9 431.519 330.3 434.319 333.3C437.119 336.2 441.269 337.65 446.769 337.65C450.969 337.65 454.369 336.95 456.969 335.55C459.569 334.05 461.219 331.9 461.919 329.1H480.369C478.969 336.2 475.169 341.9 468.969 346.2C462.869 350.4 455.419 352.5 446.619 352.5ZM462.819 303.75V299.25C462.819 293.55 461.469 289.2 458.769 286.2C456.069 283.1 452.019 281.55 446.619 281.55C441.219 281.55 437.119 283.1 434.319 286.2C431.519 289.3 430.119 293.7 430.119 299.4V302.55L464.169 302.25L462.819 303.75ZM505.51 351V268.5H523.21V284.25H527.86L522.31 293.85C522.31 284.95 524.31 278.25 528.31 273.75C532.31 269.25 538.21 267 546.01 267C554.91 267 561.91 269.75 567.01 275.25C572.11 280.75 574.66 288.35 574.66 298.05V304.05H555.01V299.4C555.01 294.1 553.61 290 550.81 287.1C548.11 284.2 544.36 282.75 539.56 282.75C534.66 282.75 530.86 284.2 528.16 287.1C525.56 290 524.26 294.1 524.26 299.4V351H505.51ZM617.202 352.5C608.702 352.5 602.002 350.25 597.102 345.75C592.202 341.25 589.752 335.2 589.752 327.6C589.752 319.5 592.452 313.25 597.852 308.85C603.252 304.45 610.902 302.25 620.802 302.25H641.352V295.2C641.352 291.2 640.052 288.1 637.452 285.9C634.852 283.6 631.302 282.45 626.802 282.45C622.702 282.45 619.302 283.35 616.602 285.15C613.902 286.95 612.302 289.4 611.802 292.5H593.502C594.402 284.7 597.902 278.5 604.002 273.9C610.102 269.3 617.902 267 627.402 267C637.502 267 645.452 269.55 651.252 274.65C657.152 279.65 660.102 286.45 660.102 295.05V351H641.952V336.6H638.952L641.952 332.55C641.952 338.65 639.702 343.5 635.202 347.1C630.702 350.7 624.702 352.5 617.202 352.5ZM623.352 338.4C628.652 338.4 632.952 337.05 636.252 334.35C639.652 331.65 641.352 328.15 641.352 323.85V313.8H621.102C617.302 313.8 614.252 314.9 611.952 317.1C609.652 319.3 608.502 322.2 608.502 325.8C608.502 329.7 609.802 332.8 612.402 335.1C615.102 337.3 618.752 338.4 623.352 338.4ZM716.743 352.5C709.743 352.5 703.593 351.2 698.293 348.6C693.093 345.9 689.043 342.15 686.143 337.35C683.243 332.45 681.793 326.7 681.793 320.1V299.4C681.793 292.7 683.243 286.95 686.143 282.15C689.043 277.35 693.093 273.65 698.293 271.05C703.593 268.35 709.743 267 716.743 267C727.143 267 735.443 269.7 741.643 275.1C747.843 280.4 751.093 287.65 751.393 296.85H732.643C732.343 292.55 730.793 289.25 727.993 286.95C725.293 284.55 721.543 283.35 716.743 283.35C711.743 283.35 707.793 284.75 704.893 287.55C701.993 290.25 700.543 294.15 700.543 299.25V320.1C700.543 325.2 701.993 329.15 704.893 331.95C707.793 334.75 711.743 336.15 716.743 336.15C721.543 336.15 725.293 335 727.993 332.7C730.793 330.3 732.343 326.95 732.643 322.65H751.393C751.093 331.85 747.843 339.15 741.643 344.55C735.443 349.85 727.143 352.5 716.743 352.5ZM815.234 351C807.334 351 801.134 348.8 796.634 344.4C792.234 340 790.034 333.95 790.034 326.25V285.45H767.684V268.5H790.034V245.25H808.934V268.5H840.584V285.45H808.934V326.25C808.934 331.45 811.484 334.05 816.584 334.05H839.084V351H815.234ZM862.576 351V333.9H891.376V285.45H866.326V268.5H909.376V333.9H934.876V351H862.576ZM898.876 254.7C895.076 254.7 892.076 253.75 889.876 251.85C887.676 249.85 886.576 247.2 886.576 243.9C886.576 240.6 887.676 238 889.876 236.1C892.076 234.1 895.076 233.1 898.876 233.1C902.676 233.1 905.676 234.1 907.876 236.1C910.076 238 911.176 240.6 911.176 243.9C911.176 247.2 910.076 249.85 907.876 251.85C905.676 253.75 902.676 254.7 898.876 254.7ZM952.667 351V268.5H970.967V284.25H976.067L970.967 288.6C970.967 281.8 972.917 276.5 976.817 272.7C980.817 268.9 986.267 267 993.167 267C1001.27 267 1007.72 269.7 1012.52 275.1C1017.42 280.5 1019.87 287.75 1019.87 296.85V351H1001.12V298.8C1001.12 293.8 999.817 289.95 997.217 287.25C994.617 284.55 990.967 283.2 986.267 283.2C981.667 283.2 978.017 284.6 975.317 287.4C972.717 290.2 971.417 294.2 971.417 299.4V351H952.667ZM1053.86 378V362.4H1078.31C1082.51 362.4 1085.66 361.35 1087.76 359.25C1089.86 357.25 1090.91 354.35 1090.91 350.55V344.4L1091.21 328.95H1087.16L1091.21 324.9C1091.21 331.6 1089.21 336.85 1085.21 340.65C1081.31 344.35 1076.01 346.2 1069.31 346.2C1060.91 346.2 1054.21 343.35 1049.21 337.65C1044.31 331.95 1041.86 324.25 1041.86 314.55V298.5C1041.86 288.9 1044.31 281.25 1049.21 275.55C1054.21 269.85 1060.91 267 1069.31 267C1076.01 267 1081.31 268.9 1085.21 272.7C1089.21 276.4 1091.21 281.6 1091.21 288.3L1087.16 284.25H1091.21L1090.76 268.5H1109.51V351C1109.51 359.3 1106.76 365.85 1101.26 370.65C1095.76 375.55 1088.21 378 1078.61 378H1053.86ZM1075.61 330C1080.41 330 1084.11 328.6 1086.71 325.8C1089.41 322.9 1090.76 318.9 1090.76 313.8V299.4C1090.76 294.3 1089.41 290.35 1086.71 287.55C1084.11 284.65 1080.41 283.2 1075.61 283.2C1070.81 283.2 1067.11 284.6 1064.51 287.4C1061.91 290.2 1060.61 294.2 1060.61 299.4V313.8C1060.61 319 1061.91 323 1064.51 325.8C1067.11 328.6 1070.81 330 1075.61 330ZM57.3031 549L44.7031 466.5H60.3031L67.2031 517.05C67.6031 519.95 67.9531 523.15 68.2531 526.65C68.6531 530.15 68.9531 533.05 69.1531 535.35C69.4531 533.05 69.8531 530.15 70.3531 526.65C70.8531 523.15 71.3031 519.95 71.7031 517.05L79.5031 466.5H94.0531L101.703 517.05C102.103 519.95 102.553 523.2 103.053 526.8C103.553 530.3 103.953 533.2 104.253 535.5C104.453 533.1 104.753 530.15 105.153 526.65C105.653 523.05 106.053 519.85 106.353 517.05L113.703 466.5H128.703L115.803 549H96.4531L89.2531 498.15C88.8531 495.35 88.4031 492.25 87.9031 488.85C87.4031 485.35 87.0031 482.5 86.7031 480.3C86.4031 482.5 86.0031 485.35 85.5031 488.85C85.1031 492.25 84.6531 495.35 84.1531 498.15L76.6531 549H57.3031ZM143.045 549V531.9H171.845V483.45H146.795V466.5H189.845V531.9H215.345V549H143.045ZM179.345 452.7C175.545 452.7 172.545 451.75 170.345 449.85C168.145 447.85 167.045 445.2 167.045 441.9C167.045 438.6 168.145 436 170.345 434.1C172.545 432.1 175.545 431.1 179.345 431.1C183.145 431.1 186.145 432.1 188.345 434.1C190.545 436 191.645 438.6 191.645 441.9C191.645 445.2 190.545 447.85 188.345 449.85C186.145 451.75 183.145 452.7 179.345 452.7ZM275.586 549C267.686 549 261.486 546.8 256.986 542.4C252.586 538 250.386 531.95 250.386 524.25V483.45H228.036V466.5H250.386V443.25H269.286V466.5H300.936V483.45H269.286V524.25C269.286 529.45 271.836 532.05 276.936 532.05H299.436V549H275.586ZM323.077 549V439.5H341.827V466.5L341.377 482.25H346.477L341.377 486.6C341.377 479.8 343.327 474.5 347.227 470.7C351.227 466.9 356.677 465 363.577 465C371.677 465 378.127 467.7 382.927 473.1C387.827 478.5 390.277 485.75 390.277 494.85V549H371.527V496.8C371.527 491.8 370.227 487.95 367.627 485.25C365.027 482.55 361.377 481.2 356.677 481.2C352.077 481.2 348.427 482.6 345.727 485.4C343.127 488.2 341.827 492.2 341.827 497.4V549H323.077ZM903.226 550.5C896.426 550.5 891.026 548.6 887.026 544.8C883.026 540.9 881.026 535.6 881.026 528.9L885.226 533.25H881.026V549H862.726V439.5H881.476V462.6L880.876 482.25H885.226L881.026 486.6C881.026 479.9 883.026 474.65 887.026 470.85C891.026 466.95 896.426 465 903.226 465C911.526 465 918.176 467.85 923.176 473.55C928.176 479.25 930.676 486.95 930.676 496.65V519C930.676 528.6 928.176 536.25 923.176 541.95C918.176 547.65 911.526 550.5 903.226 550.5ZM896.626 534.3C901.426 534.3 905.176 532.9 907.876 530.1C910.576 527.3 911.926 523.3 911.926 518.1V497.4C911.926 492.2 910.576 488.2 907.876 485.4C905.176 482.6 901.426 481.2 896.626 481.2C891.926 481.2 888.226 482.65 885.526 485.55C882.826 488.35 881.476 492.3 881.476 497.4V518.1C881.476 523.2 882.826 527.2 885.526 530.1C888.226 532.9 891.926 534.3 896.626 534.3ZM986.117 550.35C979.117 550.35 973.017 549.05 967.817 546.45C962.717 543.75 958.717 540 955.817 535.2C953.017 530.3 951.617 524.55 951.617 517.95V497.55C951.617 490.95 953.017 485.25 955.817 480.45C958.717 475.55 962.717 471.8 967.817 469.2C973.017 466.5 979.117 465.15 986.117 465.15C993.217 465.15 999.317 466.5 1004.42 469.2C1009.52 471.8 1013.47 475.55 1016.27 480.45C1019.17 485.25 1020.62 490.9 1020.62 497.4V517.95C1020.62 524.55 1019.17 530.3 1016.27 535.2C1013.47 540 1009.52 543.75 1004.42 546.45C999.317 549.05 993.217 550.35 986.117 550.35ZM986.117 534C991.117 534 994.967 532.65 997.667 529.95C1000.47 527.15 1001.87 523.15 1001.87 517.95V497.55C1001.87 492.25 1000.47 488.25 997.667 485.55C994.967 482.85 991.117 481.5 986.117 481.5C981.217 481.5 977.367 482.85 974.567 485.55C971.767 488.25 970.367 492.25 970.367 497.55V517.95C970.367 523.15 971.767 527.15 974.567 529.95C977.367 532.65 981.217 534 986.117 534ZM1085.06 549C1077.16 549 1070.96 546.8 1066.46 542.4C1062.06 538 1059.86 531.95 1059.86 524.25V483.45H1037.51V466.5H1059.86V443.25H1078.76V466.5H1110.41V483.45H1078.76V524.25C1078.76 529.45 1081.31 532.05 1086.41 532.05H1108.91V549H1085.06ZM252.336 747V690.6H229.686V673.65H252.336V661.2C252.336 654 254.736 648.25 259.536 643.95C264.336 639.65 270.686 637.5 278.586 637.5H302.736V654H279.036C276.636 654 274.686 654.7 273.186 656.1C271.786 657.4 271.086 659.2 271.086 661.5V673.65H302.736V690.6H271.086V747H252.336ZM356.527 748.35C349.527 748.35 343.427 747.05 338.227 744.45C333.127 741.75 329.127 738 326.227 733.2C323.427 728.3 322.027 722.55 322.027 715.95V695.55C322.027 688.95 323.427 683.25 326.227 678.45C329.127 673.55 333.127 669.8 338.227 667.2C343.427 664.5 349.527 663.15 356.527 663.15C363.627 663.15 369.727 664.5 374.827 667.2C379.927 669.8 383.877 673.55 386.677 678.45C389.577 683.25 391.027 688.9 391.027 695.4V715.95C391.027 722.55 389.577 728.3 386.677 733.2C383.877 738 379.927 741.75 374.827 744.45C369.727 747.05 363.627 748.35 356.527 748.35ZM356.527 732C361.527 732 365.377 730.65 368.077 727.95C370.877 725.15 372.277 721.15 372.277 715.95V695.55C372.277 690.25 370.877 686.25 368.077 683.55C365.377 680.85 361.527 679.5 356.527 679.5C351.627 679.5 347.777 680.85 344.977 683.55C342.177 686.25 340.777 690.25 340.777 695.55V715.95C340.777 721.15 342.177 725.15 344.977 727.95C347.777 730.65 351.627 732 356.527 732ZM415.569 747V664.5H433.269V680.25H437.919L432.369 689.85C432.369 680.95 434.369 674.25 438.369 669.75C442.369 665.25 448.269 663 456.069 663C464.969 663 471.969 665.75 477.069 671.25C482.169 676.75 484.719 684.35 484.719 694.05V700.05H465.069V695.4C465.069 690.1 463.669 686 460.869 683.1C458.169 680.2 454.419 678.75 449.619 678.75C444.719 678.75 440.919 680.2 438.219 683.1C435.619 686 434.319 690.1 434.319 695.4V747H415.569ZM499.21 747V664.5H514.51V675.6H517.66L515.11 678.3C515.11 673.7 516.41 670 519.01 667.2C521.61 664.4 524.96 663 529.06 663C533.46 663 536.86 664.8 539.26 668.4C541.76 672 543.01 676.85 543.01 682.95L539.71 675.6H544.81L542.86 678.3C542.86 673.7 544.16 670 546.76 667.2C549.36 664.4 552.81 663 557.11 663C562.21 663 566.26 664.9 569.26 668.7C572.26 672.5 573.76 677.65 573.76 684.15V747H557.26V684.9C557.26 682.2 556.66 680.1 555.46 678.6C554.26 677 552.51 676.2 550.21 676.2C548.01 676.2 546.26 676.95 544.96 678.45C543.76 679.95 543.16 682.1 543.16 684.9V747H529.66V684.9C529.66 682.1 529.06 679.95 527.86 678.45C526.66 676.95 524.91 676.2 522.61 676.2C520.31 676.2 518.56 676.95 517.36 678.45C516.26 679.95 515.71 682.1 515.71 684.9V747H499.21ZM682.843 747V637.5H701.593V664.5L701.143 680.25H706.243L701.143 684.6C701.143 677.8 703.093 672.5 706.993 668.7C710.993 664.9 716.443 663 723.343 663C731.443 663 737.893 665.7 742.693 671.1C747.593 676.5 750.043 683.75 750.043 692.85V747H731.293V694.8C731.293 689.8 729.993 685.95 727.393 683.25C724.793 680.55 721.143 679.2 716.443 679.2C711.843 679.2 708.193 680.6 705.493 683.4C702.893 686.2 701.593 690.2 701.593 695.4V747H682.843ZM806.384 748.5C799.384 748.5 793.284 747.15 788.084 744.45C782.884 741.75 778.834 738 775.934 733.2C773.134 728.3 771.734 722.6 771.734 716.1V695.4C771.734 688.9 773.134 683.25 775.934 678.45C778.834 673.55 782.884 669.75 788.084 667.05C793.284 664.35 799.384 663 806.384 663C813.284 663 819.284 664.35 824.384 667.05C829.584 669.75 833.584 673.55 836.384 678.45C839.284 683.25 840.734 688.9 840.734 695.4V710.25H789.884V716.1C789.884 721.9 791.284 726.3 794.084 729.3C796.884 732.2 801.034 733.65 806.534 733.65C810.734 733.65 814.134 732.95 816.734 731.55C819.334 730.05 820.984 727.9 821.684 725.1H840.134C838.734 732.2 834.934 737.9 828.734 742.2C822.634 746.4 815.184 748.5 806.384 748.5ZM822.584 699.75V695.25C822.584 689.55 821.234 685.2 818.534 682.2C815.834 679.1 811.784 677.55 806.384 677.55C800.984 677.55 796.884 679.1 794.084 682.2C791.284 685.3 789.884 689.7 789.884 695.4V698.55L823.934 698.25L822.584 699.75ZM865.276 747V664.5H882.976V680.25H887.626L882.076 689.85C882.076 680.95 884.076 674.25 888.076 669.75C892.076 665.25 897.976 663 905.776 663C914.676 663 921.676 665.75 926.776 671.25C931.876 676.75 934.426 684.35 934.426 694.05V700.05H914.776V695.4C914.776 690.1 913.376 686 910.576 683.1C907.876 680.2 904.126 678.75 899.326 678.75C894.426 678.75 890.626 680.2 887.926 683.1C885.326 686 884.026 690.1 884.026 695.4V747H865.276ZM986.267 748.5C979.267 748.5 973.167 747.15 967.967 744.45C962.767 741.75 958.717 738 955.817 733.2C953.017 728.3 951.617 722.6 951.617 716.1V695.4C951.617 688.9 953.017 683.25 955.817 678.45C958.717 673.55 962.767 669.75 967.967 667.05C973.167 664.35 979.267 663 986.267 663C993.167 663 999.167 664.35 1004.27 667.05C1009.47 669.75 1013.47 673.55 1016.27 678.45C1019.17 683.25 1020.62 688.9 1020.62 695.4V710.25H969.767V716.1C969.767 721.9 971.167 726.3 973.967 729.3C976.767 732.2 980.917 733.65 986.417 733.65C990.617 733.65 994.017 732.95 996.617 731.55C999.217 730.05 1000.87 727.9 1001.57 725.1H1020.02C1018.62 732.2 1014.82 737.9 1008.62 742.2C1002.52 746.4 995.067 748.5 986.267 748.5ZM1002.47 699.75V695.25C1002.47 689.55 1001.12 685.2 998.417 682.2C995.717 679.1 991.667 677.55 986.267 677.55C980.867 677.55 976.767 679.1 973.967 682.2C971.167 685.3 969.767 689.7 969.767 695.4V698.55L1003.82 698.25L1002.47 699.75ZM1076.06 748.5C1071.76 748.5 1068.31 747.25 1065.71 744.75C1063.21 742.25 1061.96 738.85 1061.96 734.55C1061.96 730.25 1063.21 726.85 1065.71 724.35C1068.31 721.75 1071.76 720.45 1076.06 720.45C1080.36 720.45 1083.76 721.75 1086.26 724.35C1088.86 726.85 1090.16 730.25 1090.16 734.55C1090.16 738.85 1088.86 742.25 1086.26 744.75C1083.76 747.25 1080.36 748.5 1076.06 748.5Z" fill="black"/>
<path d="M725.608 482.832C725.608 483.272 725.6 483.71 725.591 484.149C747.038 489.107 762.964 507.524 762.964 529.488V529.488C762.964 555.256 741.046 576.145 714.009 576.145H703.065V605.999L648.782 576.145H530.956C503.919 576.145 482 555.256 482 529.488V529.488C482 506.356 499.666 487.159 522.84 483.473C523.155 461.519 541.917 443.813 565.028 443.813C575.307 443.813 584.725 447.318 592.045 453.139C603.54 430.974 627.499 415.729 655.199 415.729C694.085 415.729 725.608 445.772 725.608 482.832Z" fill="#969595" stroke="black" stroke-width="10" stroke-miterlimit="10" stroke-linecap="round" stroke-linejoin="round"/>
<path d="M560.046 442.77L560.018 415.828" stroke="black" stroke-width="10" stroke-miterlimit="10" stroke-linecap="round" stroke-linejoin="round"/>
<path d="M546.771 400.384C546.771 407.775 552.764 413.768 560.155 413.768C567.547 413.768 573.539 407.775 573.539 400.384C573.539 392.992 567.547 387 560.155 387C552.764 387 546.771 392.992 546.771 400.384Z" fill="#BA0000" stroke="black" stroke-width="10" stroke-miterlimit="10" stroke-linecap="round" stroke-linejoin="round"/>
<circle cx="653.375" cy="500.327" r="13.5709" fill="#151414"/>
<circle cx="592.537" cy="500.328" r="13.5709" fill="#151414"/>
<path d="M663.005 473.842H581.767C567.087 473.842 555.187 485.742 555.187 500.422C555.187 515.102 567.087 527.002 581.767 527.002H663.005C677.685 527.002 689.585 515.102 689.585 500.422C689.585 485.742 677.685 473.842 663.005 473.842Z" fill="#55B7BD" fill-opacity="0.4" stroke="black" stroke-width="10" stroke-linecap="round" stroke-linejoin="round"/>
<path d="M653.281 550.968L638.071 550.968L622.862 550.968L607.653 550.968L592.444 550.968" stroke="black" stroke-width="10" stroke-miterlimit="10" stroke-linecap="round" stroke-linejoin="round"/>
</svg>
