<svg width="300" height="200" viewBox="0 0 3082 2164" fill="none" xmlns="http://www.w3.org/2000/svg">
<path d="M2465.5 1943.5L2405.55 2003.06M2405.55 2003.06L2345.5 1943.5M2405.55 2003.06C2405.55 1532 2192 1469.67 1728 1469.67" stroke="black" stroke-width="45" stroke-linecap="round" stroke-linejoin="round"/>
<path d="M2636 1939L2700.5 2003M2700.5 2003L2765 1939M2700.5 2003C2700.5 1370 2669.5 1166 2366 977" stroke="black" stroke-width="45" stroke-linecap="round" stroke-linejoin="round"/>
<path d="M2928 1937L2993.5 2002M2993.5 2002L3059 1937M2993.5 2002C2993.5 1362.5 2993.5 1295 2993.5 643" stroke="black" stroke-width="45" stroke-linecap="round" stroke-linejoin="round"/>
<path d="M106.496 1321V1304.5H128.546V1228H106.496V1211.5H169.496V1228H147.446V1304.5H169.496V1321H106.496ZM236.938 1321C229.038 1321 222.838 1318.8 218.338 1314.4C213.938 1310 211.738 1303.95 211.738 1296.25V1255.45H189.388V1238.5H211.738V1215.25H230.638V1238.5H262.288V1255.45H230.638V1296.25C230.638 1301.45 233.188 1304.05 238.288 1304.05H260.788V1321H236.938ZM378.42 1321L365.82 1238.5H381.42L388.32 1289.05C388.72 1291.95 389.07 1295.15 389.37 1298.65C389.77 1302.15 390.07 1305.05 390.27 1307.35C390.57 1305.05 390.97 1302.15 391.47 1298.65C391.97 1295.15 392.42 1291.95 392.82 1289.05L400.62 1238.5H415.17L422.82 1289.05C423.22 1291.95 423.67 1295.2 424.17 1298.8C424.67 1302.3 425.07 1305.2 425.37 1307.5C425.57 1305.1 425.87 1302.15 426.27 1298.65C426.77 1295.05 427.17 1291.85 427.47 1289.05L434.82 1238.5H449.82L436.92 1321H417.57L410.37 1270.15C409.97 1267.35 409.52 1264.25 409.02 1260.85C408.52 1257.35 408.12 1254.5 407.82 1252.3C407.52 1254.5 407.12 1257.35 406.62 1260.85C406.22 1264.25 405.77 1267.35 405.27 1270.15L397.77 1321H378.42ZM464.162 1321V1303.9H492.962V1255.45H467.912V1238.5H510.962V1303.9H536.462V1321H464.162ZM500.462 1224.7C496.662 1224.7 493.662 1223.75 491.462 1221.85C489.262 1219.85 488.162 1217.2 488.162 1213.9C488.162 1210.6 489.262 1208 491.462 1206.1C493.662 1204.1 496.662 1203.1 500.462 1203.1C504.262 1203.1 507.262 1204.1 509.462 1206.1C511.662 1208 512.762 1210.6 512.762 1213.9C512.762 1217.2 511.662 1219.85 509.462 1221.85C507.262 1223.75 504.262 1224.7 500.462 1224.7ZM600.303 1321C594.903 1321 590.153 1319.9 586.053 1317.7C582.053 1315.5 578.903 1312.4 576.603 1308.4C574.303 1304.3 573.153 1299.6 573.153 1294.3V1228.45H546.753V1211.5H591.903V1294.3C591.903 1297.3 592.753 1299.7 594.453 1301.5C596.253 1303.2 598.653 1304.05 601.653 1304.05H626.553V1321H600.303ZM690.245 1321C684.845 1321 680.095 1319.9 675.995 1317.7C671.995 1315.5 668.845 1312.4 666.545 1308.4C664.245 1304.3 663.095 1299.6 663.095 1294.3V1228.45H636.695V1211.5H681.845V1294.3C681.845 1297.3 682.695 1299.7 684.395 1301.5C686.195 1303.2 688.595 1304.05 691.595 1304.05H716.495V1321H690.245ZM826.627 1321V1238.5H844.327V1254.25H848.977L843.427 1263.85C843.427 1254.95 845.427 1248.25 849.427 1243.75C853.427 1239.25 859.327 1237 867.127 1237C876.027 1237 883.027 1239.75 888.127 1245.25C893.227 1250.75 895.777 1258.35 895.777 1268.05V1274.05H876.127V1269.4C876.127 1264.1 874.727 1260 871.927 1257.1C869.227 1254.2 865.477 1252.75 860.677 1252.75C855.777 1252.75 851.977 1254.2 849.277 1257.1C846.677 1260 845.377 1264.1 845.377 1269.4V1321H826.627ZM947.619 1322.5C940.619 1322.5 934.519 1321.15 929.319 1318.45C924.119 1315.75 920.069 1312 917.169 1307.2C914.369 1302.3 912.969 1296.6 912.969 1290.1V1269.4C912.969 1262.9 914.369 1257.25 917.169 1252.45C920.069 1247.55 924.119 1243.75 929.319 1241.05C934.519 1238.35 940.619 1237 947.619 1237C954.519 1237 960.519 1238.35 965.619 1241.05C970.819 1243.75 974.819 1247.55 977.619 1252.45C980.519 1257.25 981.969 1262.9 981.969 1269.4V1284.25H931.119V1290.1C931.119 1295.9 932.519 1300.3 935.319 1303.3C938.119 1306.2 942.269 1307.65 947.769 1307.65C951.969 1307.65 955.369 1306.95 957.969 1305.55C960.569 1304.05 962.219 1301.9 962.919 1299.1H981.369C979.969 1306.2 976.169 1311.9 969.969 1316.2C963.869 1320.4 956.419 1322.5 947.619 1322.5ZM963.819 1273.75V1269.25C963.819 1263.55 962.469 1259.2 959.769 1256.2C957.069 1253.1 953.019 1251.55 947.619 1251.55C942.219 1251.55 938.119 1253.1 935.319 1256.2C932.519 1259.3 931.119 1263.7 931.119 1269.4V1272.55L965.169 1272.25L963.819 1273.75ZM1034.26 1322.35C1027.96 1322.35 1022.46 1321.35 1017.76 1319.35C1013.06 1317.35 1009.36 1314.6 1006.66 1311.1C1004.06 1307.5 1002.66 1303.3 1002.46 1298.5H1021.21C1021.41 1301.1 1022.66 1303.2 1024.96 1304.8C1027.36 1306.4 1030.46 1307.2 1034.26 1307.2H1040.86C1045.46 1307.2 1048.91 1306.3 1051.21 1304.5C1053.51 1302.7 1054.66 1300.25 1054.66 1297.15C1054.66 1294.25 1053.61 1292 1051.51 1290.4C1049.51 1288.7 1046.36 1287.6 1042.06 1287.1L1031.86 1285.6C1022.46 1284.3 1015.56 1281.8 1011.16 1278.1C1006.76 1274.4 1004.56 1268.85 1004.56 1261.45C1004.56 1253.75 1007.16 1247.8 1012.36 1243.6C1017.56 1239.3 1025.21 1237.15 1035.31 1237.15H1041.01C1050.21 1237.15 1057.56 1239.2 1063.06 1243.3C1068.56 1247.4 1071.51 1252.9 1071.91 1259.8H1053.16C1052.86 1257.6 1051.61 1255.8 1049.41 1254.4C1047.31 1253 1044.51 1252.3 1041.01 1252.3H1035.31C1031.01 1252.3 1027.86 1253.1 1025.86 1254.7C1023.96 1256.2 1023.01 1258.45 1023.01 1261.45C1023.01 1264.25 1023.86 1266.35 1025.56 1267.75C1027.26 1269.05 1030.01 1270 1033.81 1270.6L1044.46 1272.1C1054.26 1273.5 1061.46 1276.15 1066.06 1280.05C1070.76 1283.85 1073.11 1289.5 1073.11 1297C1073.11 1305 1070.36 1311.25 1064.86 1315.75C1059.46 1320.15 1051.46 1322.35 1040.86 1322.35H1034.26ZM1127.5 1322.5C1120.5 1322.5 1114.4 1321.15 1109.2 1318.45C1104 1315.75 1099.95 1312 1097.05 1307.2C1094.25 1302.3 1092.85 1296.6 1092.85 1290.1V1269.4C1092.85 1262.9 1094.25 1257.25 1097.05 1252.45C1099.95 1247.55 1104 1243.75 1109.2 1241.05C1114.4 1238.35 1120.5 1237 1127.5 1237C1134.4 1237 1140.4 1238.35 1145.5 1241.05C1150.7 1243.75 1154.7 1247.55 1157.5 1252.45C1160.4 1257.25 1161.85 1262.9 1161.85 1269.4V1284.25H1111V1290.1C1111 1295.9 1112.4 1300.3 1115.2 1303.3C1118 1306.2 1122.15 1307.65 1127.65 1307.65C1131.85 1307.65 1135.25 1306.95 1137.85 1305.55C1140.45 1304.05 1142.1 1301.9 1142.8 1299.1H1161.25C1159.85 1306.2 1156.05 1311.9 1149.85 1316.2C1143.75 1320.4 1136.3 1322.5 1127.5 1322.5ZM1143.7 1273.75V1269.25C1143.7 1263.55 1142.35 1259.2 1139.65 1256.2C1136.95 1253.1 1132.9 1251.55 1127.5 1251.55C1122.1 1251.55 1118 1253.1 1115.2 1256.2C1112.4 1259.3 1111 1263.7 1111 1269.4V1272.55L1145.05 1272.25L1143.7 1273.75ZM1226.29 1321C1218.39 1321 1212.19 1318.8 1207.69 1314.4C1203.29 1310 1201.09 1303.95 1201.09 1296.25V1255.45H1178.74V1238.5H1201.09V1215.25H1219.99V1238.5H1251.64V1255.45H1219.99V1296.25C1219.99 1301.45 1222.54 1304.05 1227.64 1304.05H1250.14V1321H1226.29ZM1406.18 1321C1398.28 1321 1392.08 1318.8 1387.58 1314.4C1383.18 1310 1380.98 1303.95 1380.98 1296.25V1255.45H1358.63V1238.5H1380.98V1215.25H1399.88V1238.5H1431.53V1255.45H1399.88V1296.25C1399.88 1301.45 1402.43 1304.05 1407.53 1304.05H1430.03V1321H1406.18ZM1453.67 1321V1211.5H1472.42V1238.5L1471.97 1254.25H1477.07L1471.97 1258.6C1471.97 1251.8 1473.92 1246.5 1477.82 1242.7C1481.82 1238.9 1487.27 1237 1494.17 1237C1502.27 1237 1508.72 1239.7 1513.52 1245.1C1518.42 1250.5 1520.87 1257.75 1520.87 1266.85V1321H1502.12V1268.8C1502.12 1263.8 1500.82 1259.95 1498.22 1257.25C1495.62 1254.55 1491.97 1253.2 1487.27 1253.2C1482.67 1253.2 1479.02 1254.6 1476.32 1257.4C1473.72 1260.2 1472.42 1264.2 1472.42 1269.4V1321H1453.67ZM1577.21 1322.5C1570.21 1322.5 1564.11 1321.15 1558.91 1318.45C1553.71 1315.75 1549.66 1312 1546.76 1307.2C1543.96 1302.3 1542.56 1296.6 1542.56 1290.1V1269.4C1542.56 1262.9 1543.96 1257.25 1546.76 1252.45C1549.66 1247.55 1553.71 1243.75 1558.91 1241.05C1564.11 1238.35 1570.21 1237 1577.21 1237C1584.11 1237 1590.11 1238.35 1595.21 1241.05C1600.41 1243.75 1604.41 1247.55 1607.21 1252.45C1610.11 1257.25 1611.56 1262.9 1611.56 1269.4V1284.25H1560.71V1290.1C1560.71 1295.9 1562.11 1300.3 1564.91 1303.3C1567.71 1306.2 1571.86 1307.65 1577.36 1307.65C1581.56 1307.65 1584.96 1306.95 1587.56 1305.55C1590.16 1304.05 1591.81 1301.9 1592.51 1299.1H1610.96C1609.56 1306.2 1605.76 1311.9 1599.56 1316.2C1593.46 1320.4 1586.01 1322.5 1577.21 1322.5ZM1593.41 1273.75V1269.25C1593.41 1263.55 1592.06 1259.2 1589.36 1256.2C1586.66 1253.1 1582.61 1251.55 1577.21 1251.55C1571.81 1251.55 1567.71 1253.1 1564.91 1256.2C1562.11 1259.3 1560.71 1263.7 1560.71 1269.4V1272.55L1594.76 1272.25L1593.41 1273.75ZM318.329 1520.5C311.329 1520.5 305.179 1519.2 299.879 1516.6C294.679 1513.9 290.629 1510.15 287.729 1505.35C284.829 1500.45 283.379 1494.7 283.379 1488.1V1467.4C283.379 1460.7 284.829 1454.95 287.729 1450.15C290.629 1445.35 294.679 1441.65 299.879 1439.05C305.179 1436.35 311.329 1435 318.329 1435C328.729 1435 337.029 1437.7 343.229 1443.1C349.429 1448.4 352.679 1455.65 352.979 1464.85H334.229C333.929 1460.55 332.379 1457.25 329.579 1454.95C326.879 1452.55 323.129 1451.35 318.329 1451.35C313.329 1451.35 309.379 1452.75 306.479 1455.55C303.579 1458.25 302.129 1462.15 302.129 1467.25V1488.1C302.129 1493.2 303.579 1497.15 306.479 1499.95C309.379 1502.75 313.329 1504.15 318.329 1504.15C323.129 1504.15 326.879 1503 329.579 1500.7C332.379 1498.3 333.929 1494.95 334.229 1490.65H352.979C352.679 1499.85 349.429 1507.15 343.229 1512.55C337.029 1517.85 328.729 1520.5 318.329 1520.5ZM374.37 1519V1409.5H393.12V1436.5L392.67 1452.25H397.77L392.67 1456.6C392.67 1449.8 394.62 1444.5 398.52 1440.7C402.52 1436.9 407.97 1435 414.87 1435C422.97 1435 429.42 1437.7 434.22 1443.1C439.12 1448.5 441.57 1455.75 441.57 1464.85V1519H422.82V1466.8C422.82 1461.8 421.52 1457.95 418.92 1455.25C416.32 1452.55 412.67 1451.2 407.97 1451.2C403.37 1451.2 399.72 1452.6 397.02 1455.4C394.42 1458.2 393.12 1462.2 393.12 1467.4V1519H374.37ZM488.612 1520.5C480.112 1520.5 473.412 1518.25 468.512 1513.75C463.612 1509.25 461.162 1503.2 461.162 1495.6C461.162 1487.5 463.862 1481.25 469.262 1476.85C474.662 1472.45 482.312 1470.25 492.212 1470.25H512.762V1463.2C512.762 1459.2 511.462 1456.1 508.862 1453.9C506.262 1451.6 502.712 1450.45 498.212 1450.45C494.112 1450.45 490.712 1451.35 488.012 1453.15C485.312 1454.95 483.712 1457.4 483.212 1460.5H464.912C465.812 1452.7 469.312 1446.5 475.412 1441.9C481.512 1437.3 489.312 1435 498.812 1435C508.912 1435 516.862 1437.55 522.662 1442.65C528.562 1447.65 531.512 1454.45 531.512 1463.05V1519H513.362V1504.6H510.362L513.362 1500.55C513.362 1506.65 511.112 1511.5 506.612 1515.1C502.112 1518.7 496.112 1520.5 488.612 1520.5ZM494.762 1506.4C500.062 1506.4 504.362 1505.05 507.662 1502.35C511.062 1499.65 512.762 1496.15 512.762 1491.85V1481.8H492.512C488.712 1481.8 485.662 1482.9 483.362 1485.1C481.062 1487.3 479.912 1490.2 479.912 1493.8C479.912 1497.7 481.212 1500.8 483.812 1503.1C486.512 1505.3 490.162 1506.4 494.762 1506.4ZM596.703 1519C588.803 1519 582.603 1516.8 578.103 1512.4C573.703 1508 571.503 1501.95 571.503 1494.25V1453.45H549.153V1436.5H571.503V1413.25H590.403V1436.5H622.053V1453.45H590.403V1494.25C590.403 1499.45 592.953 1502.05 598.053 1502.05H620.553V1519H596.703ZM738.186 1519L725.586 1436.5H741.186L748.086 1487.05C748.486 1489.95 748.836 1493.15 749.136 1496.65C749.536 1500.15 749.836 1503.05 750.036 1505.35C750.336 1503.05 750.736 1500.15 751.236 1496.65C751.736 1493.15 752.186 1489.95 752.586 1487.05L760.386 1436.5H774.936L782.586 1487.05C782.986 1489.95 783.436 1493.2 783.936 1496.8C784.436 1500.3 784.836 1503.2 785.136 1505.5C785.336 1503.1 785.636 1500.15 786.036 1496.65C786.536 1493.05 786.936 1489.85 787.236 1487.05L794.586 1436.5H809.586L796.686 1519H777.336L770.136 1468.15C769.736 1465.35 769.286 1462.25 768.786 1458.85C768.286 1455.35 767.886 1452.5 767.586 1450.3C767.286 1452.5 766.886 1455.35 766.386 1458.85C765.986 1462.25 765.536 1465.35 765.036 1468.15L757.536 1519H738.186ZM823.927 1519V1501.9H852.727V1453.45H827.677V1436.5H870.727V1501.9H896.227V1519H823.927ZM860.227 1422.7C856.427 1422.7 853.427 1421.75 851.227 1419.85C849.027 1417.85 847.927 1415.2 847.927 1411.9C847.927 1408.6 849.027 1406 851.227 1404.1C853.427 1402.1 856.427 1401.1 860.227 1401.1C864.027 1401.1 867.027 1402.1 869.227 1404.1C871.427 1406 872.527 1408.6 872.527 1411.9C872.527 1415.2 871.427 1417.85 869.227 1419.85C867.027 1421.75 864.027 1422.7 860.227 1422.7ZM956.469 1519C948.569 1519 942.369 1516.8 937.869 1512.4C933.469 1508 931.269 1501.95 931.269 1494.25V1453.45H908.919V1436.5H931.269V1413.25H950.169V1436.5H981.819V1453.45H950.169V1494.25C950.169 1499.45 952.719 1502.05 957.819 1502.05H980.319V1519H956.469ZM1003.96 1519V1409.5H1022.71V1436.5L1022.26 1452.25H1027.36L1022.26 1456.6C1022.26 1449.8 1024.21 1444.5 1028.11 1440.7C1032.11 1436.9 1037.56 1435 1044.46 1435C1052.56 1435 1059.01 1437.7 1063.81 1443.1C1068.71 1448.5 1071.16 1455.75 1071.16 1464.85V1519H1052.41V1466.8C1052.41 1461.8 1051.11 1457.95 1048.51 1455.25C1045.91 1452.55 1042.26 1451.2 1037.56 1451.2C1032.96 1451.2 1029.31 1452.6 1026.61 1455.4C1024.01 1458.2 1022.71 1462.2 1022.71 1467.4V1519H1003.96ZM1208.14 1520.5C1199.64 1520.5 1192.94 1518.25 1188.04 1513.75C1183.14 1509.25 1180.69 1503.2 1180.69 1495.6C1180.69 1487.5 1183.39 1481.25 1188.79 1476.85C1194.19 1472.45 1201.84 1470.25 1211.74 1470.25H1232.29V1463.2C1232.29 1459.2 1230.99 1456.1 1228.39 1453.9C1225.79 1451.6 1222.24 1450.45 1217.74 1450.45C1213.64 1450.45 1210.24 1451.35 1207.54 1453.15C1204.84 1454.95 1203.24 1457.4 1202.74 1460.5H1184.44C1185.34 1452.7 1188.84 1446.5 1194.94 1441.9C1201.04 1437.3 1208.84 1435 1218.34 1435C1228.44 1435 1236.39 1437.55 1242.19 1442.65C1248.09 1447.65 1251.04 1454.45 1251.04 1463.05V1519H1232.89V1504.6H1229.89L1232.89 1500.55C1232.89 1506.65 1230.64 1511.5 1226.14 1515.1C1221.64 1518.7 1215.64 1520.5 1208.14 1520.5ZM1214.29 1506.4C1219.59 1506.4 1223.89 1505.05 1227.19 1502.35C1230.59 1499.65 1232.29 1496.15 1232.29 1491.85V1481.8H1212.04C1208.24 1481.8 1205.19 1482.9 1202.89 1485.1C1200.59 1487.3 1199.44 1490.2 1199.44 1493.8C1199.44 1497.7 1200.74 1500.8 1203.34 1503.1C1206.04 1505.3 1209.69 1506.4 1214.29 1506.4ZM1363.73 1519V1436.5H1382.03V1452.25H1387.13L1382.03 1456.6C1382.03 1449.8 1383.98 1444.5 1387.88 1440.7C1391.88 1436.9 1397.33 1435 1404.23 1435C1412.33 1435 1418.78 1437.7 1423.58 1443.1C1428.48 1448.5 1430.93 1455.75 1430.93 1464.85V1519H1412.18V1466.8C1412.18 1461.8 1410.88 1457.95 1408.28 1455.25C1405.68 1452.55 1402.03 1451.2 1397.33 1451.2C1392.73 1451.2 1389.08 1452.6 1386.38 1455.4C1383.78 1458.2 1382.48 1462.2 1382.48 1467.4V1519H1363.73ZM1487.27 1520.5C1480.27 1520.5 1474.17 1519.15 1468.97 1516.45C1463.77 1513.75 1459.72 1510 1456.82 1505.2C1454.02 1500.3 1452.62 1494.6 1452.62 1488.1V1467.4C1452.62 1460.9 1454.02 1455.25 1456.82 1450.45C1459.72 1445.55 1463.77 1441.75 1468.97 1439.05C1474.17 1436.35 1480.27 1435 1487.27 1435C1494.17 1435 1500.17 1436.35 1505.27 1439.05C1510.47 1441.75 1514.47 1445.55 1517.27 1450.45C1520.17 1455.25 1521.62 1460.9 1521.62 1467.4V1482.25H1470.77V1488.1C1470.77 1493.9 1472.17 1498.3 1474.97 1501.3C1477.77 1504.2 1481.92 1505.65 1487.42 1505.65C1491.62 1505.65 1495.02 1504.95 1497.62 1503.55C1500.22 1502.05 1501.87 1499.9 1502.57 1497.1H1521.02C1519.62 1504.2 1515.82 1509.9 1509.62 1514.2C1503.52 1518.4 1496.07 1520.5 1487.27 1520.5ZM1503.47 1471.75V1467.25C1503.47 1461.55 1502.12 1457.2 1499.42 1454.2C1496.72 1451.1 1492.67 1449.55 1487.27 1449.55C1481.87 1449.55 1477.77 1451.1 1474.97 1454.2C1472.17 1457.3 1470.77 1461.7 1470.77 1467.4V1470.55L1504.82 1470.25L1503.47 1471.75ZM1547.66 1519L1535.06 1436.5H1550.66L1557.56 1487.05C1557.96 1489.95 1558.31 1493.15 1558.61 1496.65C1559.01 1500.15 1559.31 1503.05 1559.51 1505.35C1559.81 1503.05 1560.21 1500.15 1560.71 1496.65C1561.21 1493.15 1561.66 1489.95 1562.06 1487.05L1569.86 1436.5H1584.41L1592.06 1487.05C1592.46 1489.95 1592.91 1493.2 1593.41 1496.8C1593.91 1500.3 1594.31 1503.2 1594.61 1505.5C1594.81 1503.1 1595.11 1500.15 1595.51 1496.65C1596.01 1493.05 1596.41 1489.85 1596.71 1487.05L1604.06 1436.5H1619.06L1606.16 1519H1586.81L1579.61 1468.15C1579.21 1465.35 1578.76 1462.25 1578.26 1458.85C1577.76 1455.35 1577.36 1452.5 1577.06 1450.3C1576.76 1452.5 1576.36 1455.35 1575.86 1458.85C1575.46 1462.25 1575.01 1465.35 1574.51 1468.15L1567.01 1519H1547.66ZM1124.2 1718.35C1117.9 1718.35 1112.4 1717.35 1107.7 1715.35C1103 1713.35 1099.3 1710.6 1096.6 1707.1C1094 1703.5 1092.6 1699.3 1092.4 1694.5H1111.15C1111.35 1697.1 1112.6 1699.2 1114.9 1700.8C1117.3 1702.4 1120.4 1703.2 1124.2 1703.2H1130.8C1135.4 1703.2 1138.85 1702.3 1141.15 1700.5C1143.45 1698.7 1144.6 1696.25 1144.6 1693.15C1144.6 1690.25 1143.55 1688 1141.45 1686.4C1139.45 1684.7 1136.3 1683.6 1132 1683.1L1121.8 1681.6C1112.4 1680.3 1105.5 1677.8 1101.1 1674.1C1096.7 1670.4 1094.5 1664.85 1094.5 1657.45C1094.5 1649.75 1097.1 1643.8 1102.3 1639.6C1107.5 1635.3 1115.15 1633.15 1125.25 1633.15H1130.95C1140.15 1633.15 1147.5 1635.2 1153 1639.3C1158.5 1643.4 1161.45 1648.9 1161.85 1655.8H1143.1C1142.8 1653.6 1141.55 1651.8 1139.35 1650.4C1137.25 1649 1134.45 1648.3 1130.95 1648.3H1125.25C1120.95 1648.3 1117.8 1649.1 1115.8 1650.7C1113.9 1652.2 1112.95 1654.45 1112.95 1657.45C1112.95 1660.25 1113.8 1662.35 1115.5 1663.75C1117.2 1665.05 1119.95 1666 1123.75 1666.6L1134.4 1668.1C1144.2 1669.5 1151.4 1672.15 1156 1676.05C1160.7 1679.85 1163.05 1685.5 1163.05 1693C1163.05 1701 1160.3 1707.25 1154.8 1711.75C1149.4 1716.15 1141.4 1718.35 1130.8 1718.35H1124.2ZM1226.29 1717C1218.39 1717 1212.19 1714.8 1207.69 1710.4C1203.29 1706 1201.09 1699.95 1201.09 1692.25V1651.45H1178.74V1634.5H1201.09V1611.25H1219.99V1634.5H1251.64V1651.45H1219.99V1692.25C1219.99 1697.45 1222.54 1700.05 1227.64 1700.05H1250.14V1717H1226.29ZM1298.08 1718.5C1289.58 1718.5 1282.88 1716.25 1277.98 1711.75C1273.08 1707.25 1270.63 1701.2 1270.63 1693.6C1270.63 1685.5 1273.33 1679.25 1278.73 1674.85C1284.13 1670.45 1291.78 1668.25 1301.68 1668.25H1322.23V1661.2C1322.23 1657.2 1320.93 1654.1 1318.33 1651.9C1315.73 1649.6 1312.18 1648.45 1307.68 1648.45C1303.58 1648.45 1300.18 1649.35 1297.48 1651.15C1294.78 1652.95 1293.18 1655.4 1292.68 1658.5H1274.38C1275.28 1650.7 1278.78 1644.5 1284.88 1639.9C1290.98 1635.3 1298.78 1633 1308.28 1633C1318.38 1633 1326.33 1635.55 1332.13 1640.65C1338.03 1645.65 1340.98 1652.45 1340.98 1661.05V1717H1322.83V1702.6H1319.83L1322.83 1698.55C1322.83 1704.65 1320.58 1709.5 1316.08 1713.1C1311.58 1716.7 1305.58 1718.5 1298.08 1718.5ZM1304.23 1704.4C1309.53 1704.4 1313.83 1703.05 1317.13 1700.35C1320.53 1697.65 1322.23 1694.15 1322.23 1689.85V1679.8H1301.98C1298.18 1679.8 1295.13 1680.9 1292.83 1683.1C1290.53 1685.3 1289.38 1688.2 1289.38 1691.8C1289.38 1695.7 1290.68 1698.8 1293.28 1701.1C1295.98 1703.3 1299.63 1704.4 1304.23 1704.4ZM1366.28 1717V1634.5H1383.98V1650.25H1388.63L1383.08 1659.85C1383.08 1650.95 1385.08 1644.25 1389.08 1639.75C1393.08 1635.25 1398.98 1633 1406.78 1633C1415.68 1633 1422.68 1635.75 1427.78 1641.25C1432.88 1646.75 1435.43 1654.35 1435.43 1664.05V1670.05H1415.78V1665.4C1415.78 1660.1 1414.38 1656 1411.58 1653.1C1408.88 1650.2 1405.13 1648.75 1400.33 1648.75C1395.43 1648.75 1391.63 1650.2 1388.93 1653.1C1386.33 1656 1385.03 1660.1 1385.03 1665.4V1717H1366.28ZM1496.12 1717C1488.22 1717 1482.02 1714.8 1477.52 1710.4C1473.12 1706 1470.92 1699.95 1470.92 1692.25V1651.45H1448.57V1634.5H1470.92V1611.25H1489.82V1634.5H1521.47V1651.45H1489.82V1692.25C1489.82 1697.45 1492.37 1700.05 1497.47 1700.05H1519.97V1717H1496.12ZM1577.06 1718.5C1572.76 1718.5 1569.31 1717.25 1566.71 1714.75C1564.21 1712.25 1562.96 1708.85 1562.96 1704.55C1562.96 1700.25 1564.21 1696.85 1566.71 1694.35C1569.31 1691.75 1572.76 1690.45 1577.06 1690.45C1581.36 1690.45 1584.76 1691.75 1587.26 1694.35C1589.86 1696.85 1591.16 1700.25 1591.16 1704.55C1591.16 1708.85 1589.86 1712.25 1587.26 1714.75C1584.76 1717.25 1581.36 1718.5 1577.06 1718.5Z" fill="black"/>
<path d="M670.555 827V810.5H692.605V734H670.555V717.5H733.555V734H711.505V810.5H733.555V827H670.555ZM800.996 827C793.096 827 786.896 824.8 782.396 820.4C777.996 816 775.796 809.95 775.796 802.25V761.45H753.446V744.5H775.796V721.25H794.696V744.5H826.346V761.45H794.696V802.25C794.696 807.45 797.246 810.05 802.346 810.05H824.846V827H800.996ZM942.479 827L929.879 744.5H945.479L952.379 795.05C952.779 797.95 953.129 801.15 953.429 804.65C953.829 808.15 954.129 811.05 954.329 813.35C954.629 811.05 955.029 808.15 955.529 804.65C956.029 801.15 956.479 797.95 956.879 795.05L964.679 744.5H979.229L986.879 795.05C987.279 797.95 987.729 801.2 988.229 804.8C988.729 808.3 989.129 811.2 989.429 813.5C989.629 811.1 989.929 808.15 990.329 804.65C990.829 801.05 991.229 797.85 991.529 795.05L998.879 744.5H1013.88L1000.98 827H981.629L974.429 776.15C974.029 773.35 973.579 770.25 973.079 766.85C972.579 763.35 972.179 760.5 971.879 758.3C971.579 760.5 971.179 763.35 970.679 766.85C970.279 770.25 969.829 773.35 969.329 776.15L961.829 827H942.479ZM1028.22 827V809.9H1057.02V761.45H1031.97V744.5H1075.02V809.9H1100.52V827H1028.22ZM1064.52 730.7C1060.72 730.7 1057.72 729.75 1055.52 727.85C1053.32 725.85 1052.22 723.2 1052.22 719.9C1052.22 716.6 1053.32 714 1055.52 712.1C1057.72 710.1 1060.72 709.1 1064.52 709.1C1068.32 709.1 1071.32 710.1 1073.52 712.1C1075.72 714 1076.82 716.6 1076.82 719.9C1076.82 723.2 1075.72 725.85 1073.52 727.85C1071.32 729.75 1068.32 730.7 1064.52 730.7ZM1164.36 827C1158.96 827 1154.21 825.9 1150.11 823.7C1146.11 821.5 1142.96 818.4 1140.66 814.4C1138.36 810.3 1137.21 805.6 1137.21 800.3V734.45H1110.81V717.5H1155.96V800.3C1155.96 803.3 1156.81 805.7 1158.51 807.5C1160.31 809.2 1162.71 810.05 1165.71 810.05H1190.61V827H1164.36ZM1254.3 827C1248.9 827 1244.15 825.9 1240.05 823.7C1236.05 821.5 1232.9 818.4 1230.6 814.4C1228.3 810.3 1227.15 805.6 1227.15 800.3V734.45H1200.75V717.5H1245.9V800.3C1245.9 803.3 1246.75 805.7 1248.45 807.5C1250.25 809.2 1252.65 810.05 1255.65 810.05H1280.55V827H1254.3ZM1388.89 854V836.6H1410.94C1415.94 836.6 1419.79 835.25 1422.49 832.55C1425.19 829.85 1426.54 826.05 1426.54 821.15V761.9H1393.39V744.5H1445.29V821.6C1445.29 831.6 1442.29 839.5 1436.29 845.3C1430.29 851.1 1422.19 854 1411.99 854H1388.89ZM1435.24 730.7C1431.44 730.7 1428.44 729.75 1426.24 727.85C1424.04 725.85 1422.94 723.2 1422.94 719.9C1422.94 716.6 1424.04 714 1426.24 712.1C1428.44 710.1 1431.44 709.1 1435.24 709.1C1439.04 709.1 1442.04 710.1 1444.24 712.1C1446.44 714 1447.54 716.6 1447.54 719.9C1447.54 723.2 1446.44 725.85 1444.24 727.85C1442.04 729.75 1439.04 730.7 1435.24 730.7ZM1511.53 828.5C1501.03 828.5 1492.78 825.6 1486.78 819.8C1480.78 813.9 1477.78 805.9 1477.78 795.8V744.5H1496.53V795.65C1496.53 800.95 1497.83 805.05 1500.43 807.95C1503.03 810.75 1506.73 812.15 1511.53 812.15C1516.23 812.15 1519.88 810.75 1522.48 807.95C1525.18 805.05 1526.53 800.95 1526.53 795.65V744.5H1545.28V795.8C1545.28 805.9 1542.23 813.9 1536.13 819.8C1530.03 825.6 1521.83 828.5 1511.53 828.5ZM1598.32 828.35C1592.02 828.35 1586.52 827.35 1581.82 825.35C1577.12 823.35 1573.42 820.6 1570.72 817.1C1568.12 813.5 1566.72 809.3 1566.52 804.5H1585.27C1585.47 807.1 1586.72 809.2 1589.02 810.8C1591.42 812.4 1594.52 813.2 1598.32 813.2H1604.92C1609.52 813.2 1612.97 812.3 1615.27 810.5C1617.57 808.7 1618.72 806.25 1618.72 803.15C1618.72 800.25 1617.67 798 1615.57 796.4C1613.57 794.7 1610.42 793.6 1606.12 793.1L1595.92 791.6C1586.52 790.3 1579.62 787.8 1575.22 784.1C1570.82 780.4 1568.62 774.85 1568.62 767.45C1568.62 759.75 1571.22 753.8 1576.42 749.6C1581.62 745.3 1589.27 743.15 1599.37 743.15H1605.07C1614.27 743.15 1621.62 745.2 1627.12 749.3C1632.62 753.4 1635.57 758.9 1635.97 765.8H1617.22C1616.92 763.6 1615.67 761.8 1613.47 760.4C1611.37 759 1608.57 758.3 1605.07 758.3H1599.37C1595.07 758.3 1591.92 759.1 1589.92 760.7C1588.02 762.2 1587.07 764.45 1587.07 767.45C1587.07 770.25 1587.92 772.35 1589.62 773.75C1591.32 775.05 1594.07 776 1597.87 776.6L1608.52 778.1C1618.32 779.5 1625.52 782.15 1630.12 786.05C1634.82 789.85 1637.17 795.5 1637.17 803C1637.17 811 1634.42 817.25 1628.92 821.75C1623.52 826.15 1615.52 828.35 1604.92 828.35H1598.32ZM1700.41 827C1692.51 827 1686.31 824.8 1681.81 820.4C1677.41 816 1675.21 809.95 1675.21 802.25V761.45H1652.86V744.5H1675.21V721.25H1694.11V744.5H1725.76V761.45H1694.11V802.25C1694.11 807.45 1696.66 810.05 1701.76 810.05H1724.26V827H1700.41ZM1871.74 828.5C1864.74 828.5 1858.59 827.2 1853.29 824.6C1848.09 821.9 1844.04 818.15 1841.14 813.35C1838.24 808.45 1836.79 802.7 1836.79 796.1V775.4C1836.79 768.7 1838.24 762.95 1841.14 758.15C1844.04 753.35 1848.09 749.65 1853.29 747.05C1858.59 744.35 1864.74 743 1871.74 743C1882.14 743 1890.44 745.7 1896.64 751.1C1902.84 756.4 1906.09 763.65 1906.39 772.85H1887.64C1887.34 768.55 1885.79 765.25 1882.99 762.95C1880.29 760.55 1876.54 759.35 1871.74 759.35C1866.74 759.35 1862.79 760.75 1859.89 763.55C1856.99 766.25 1855.54 770.15 1855.54 775.25V796.1C1855.54 801.2 1856.99 805.15 1859.89 807.95C1862.79 810.75 1866.74 812.15 1871.74 812.15C1876.54 812.15 1880.29 811 1882.99 808.7C1885.79 806.3 1887.34 802.95 1887.64 798.65H1906.39C1906.09 807.85 1902.84 815.15 1896.64 820.55C1890.44 825.85 1882.14 828.5 1871.74 828.5ZM1973.83 827C1968.43 827 1963.68 825.9 1959.58 823.7C1955.58 821.5 1952.43 818.4 1950.13 814.4C1947.83 810.3 1946.68 805.6 1946.68 800.3V734.45H1920.28V717.5H1965.43V800.3C1965.43 803.3 1966.28 805.7 1967.98 807.5C1969.78 809.2 1972.18 810.05 1975.18 810.05H2000.08V827H1973.83ZM2051.33 828.5C2044.33 828.5 2038.23 827.15 2033.03 824.45C2027.83 821.75 2023.78 818 2020.88 813.2C2018.08 808.3 2016.68 802.6 2016.68 796.1V775.4C2016.68 768.9 2018.08 763.25 2020.88 758.45C2023.78 753.55 2027.83 749.75 2033.03 747.05C2038.23 744.35 2044.33 743 2051.33 743C2058.23 743 2064.23 744.35 2069.33 747.05C2074.53 749.75 2078.53 753.55 2081.33 758.45C2084.23 763.25 2085.68 768.9 2085.68 775.4V790.25H2034.83V796.1C2034.83 801.9 2036.23 806.3 2039.03 809.3C2041.83 812.2 2045.98 813.65 2051.48 813.65C2055.68 813.65 2059.08 812.95 2061.68 811.55C2064.28 810.05 2065.93 807.9 2066.63 805.1H2085.08C2083.68 812.2 2079.88 817.9 2073.68 822.2C2067.58 826.4 2060.13 828.5 2051.33 828.5ZM2067.53 779.75V775.25C2067.53 769.55 2066.18 765.2 2063.48 762.2C2060.78 759.1 2056.73 757.55 2051.33 757.55C2045.93 757.55 2041.83 759.1 2039.03 762.2C2036.23 765.3 2034.83 769.7 2034.83 775.4V778.55L2068.88 778.25L2067.53 779.75ZM2131.97 828.5C2123.47 828.5 2116.77 826.25 2111.87 821.75C2106.97 817.25 2104.52 811.2 2104.52 803.6C2104.52 795.5 2107.22 789.25 2112.62 784.85C2118.02 780.45 2125.67 778.25 2135.57 778.25H2156.12V771.2C2156.12 767.2 2154.82 764.1 2152.22 761.9C2149.62 759.6 2146.07 758.45 2141.57 758.45C2137.47 758.45 2134.07 759.35 2131.37 761.15C2128.67 762.95 2127.07 765.4 2126.57 768.5H2108.27C2109.17 760.7 2112.67 754.5 2118.77 749.9C2124.87 745.3 2132.67 743 2142.17 743C2152.27 743 2160.22 745.55 2166.02 750.65C2171.92 755.65 2174.87 762.45 2174.87 771.05V827H2156.72V812.6H2153.72L2156.72 808.55C2156.72 814.65 2154.47 819.5 2149.97 823.1C2145.47 826.7 2139.47 828.5 2131.97 828.5ZM2138.12 814.4C2143.42 814.4 2147.72 813.05 2151.02 810.35C2154.42 807.65 2156.12 804.15 2156.12 799.85V789.8H2135.87C2132.07 789.8 2129.02 790.9 2126.72 793.1C2124.42 795.3 2123.27 798.2 2123.27 801.8C2123.27 805.7 2124.57 808.8 2127.17 811.1C2129.87 813.3 2133.52 814.4 2138.12 814.4ZM2197.61 827V744.5H2215.91V760.25H2221.01L2215.91 764.6C2215.91 757.8 2217.86 752.5 2221.76 748.7C2225.76 744.9 2231.21 743 2238.11 743C2246.21 743 2252.66 745.7 2257.46 751.1C2262.36 756.5 2264.81 763.75 2264.81 772.85V827H2246.06V774.8C2246.06 769.8 2244.76 765.95 2242.16 763.25C2239.56 760.55 2235.91 759.2 2231.21 759.2C2226.61 759.2 2222.96 760.6 2220.26 763.4C2217.66 766.2 2216.36 770.2 2216.36 775.4V827H2197.61ZM1070.82 1025C1062.92 1025 1056.72 1022.8 1052.22 1018.4C1047.82 1014 1045.62 1007.95 1045.62 1000.25V959.45H1023.27V942.5H1045.62V919.25H1064.52V942.5H1096.17V959.45H1064.52V1000.25C1064.52 1005.45 1067.07 1008.05 1072.17 1008.05H1094.67V1025H1070.82ZM1118.31 1025V915.5H1137.06V942.5L1136.61 958.25H1141.71L1136.61 962.6C1136.61 955.8 1138.56 950.5 1142.46 946.7C1146.46 942.9 1151.91 941 1158.81 941C1166.91 941 1173.36 943.7 1178.16 949.1C1183.06 954.5 1185.51 961.75 1185.51 970.85V1025H1166.76V972.8C1166.76 967.8 1165.46 963.95 1162.86 961.25C1160.26 958.55 1156.61 957.2 1151.91 957.2C1147.31 957.2 1143.66 958.6 1140.96 961.4C1138.36 964.2 1137.06 968.2 1137.06 973.4V1025H1118.31ZM1241.85 1026.5C1234.85 1026.5 1228.75 1025.15 1223.55 1022.45C1218.35 1019.75 1214.3 1016 1211.4 1011.2C1208.6 1006.3 1207.2 1000.6 1207.2 994.1V973.4C1207.2 966.9 1208.6 961.25 1211.4 956.45C1214.3 951.55 1218.35 947.75 1223.55 945.05C1228.75 942.35 1234.85 941 1241.85 941C1248.75 941 1254.75 942.35 1259.85 945.05C1265.05 947.75 1269.05 951.55 1271.85 956.45C1274.75 961.25 1276.2 966.9 1276.2 973.4V988.25H1225.35V994.1C1225.35 999.9 1226.75 1004.3 1229.55 1007.3C1232.35 1010.2 1236.5 1011.65 1242 1011.65C1246.2 1011.65 1249.6 1010.95 1252.2 1009.55C1254.8 1008.05 1256.45 1005.9 1257.15 1003.1H1275.6C1274.2 1010.2 1270.4 1015.9 1264.2 1020.2C1258.1 1024.4 1250.65 1026.5 1241.85 1026.5ZM1258.05 977.75V973.25C1258.05 967.55 1256.7 963.2 1254 960.2C1251.3 957.1 1247.25 955.55 1241.85 955.55C1236.45 955.55 1232.35 957.1 1229.55 960.2C1226.75 963.3 1225.35 967.7 1225.35 973.4V976.55L1259.4 976.25L1258.05 977.75ZM1422.04 1026.5C1415.04 1026.5 1408.89 1025.2 1403.59 1022.6C1398.39 1019.9 1394.34 1016.15 1391.44 1011.35C1388.54 1006.45 1387.09 1000.7 1387.09 994.1V973.4C1387.09 966.7 1388.54 960.95 1391.44 956.15C1394.34 951.35 1398.39 947.65 1403.59 945.05C1408.89 942.35 1415.04 941 1422.04 941C1432.44 941 1440.74 943.7 1446.94 949.1C1453.14 954.4 1456.39 961.65 1456.69 970.85H1437.94C1437.64 966.55 1436.09 963.25 1433.29 960.95C1430.59 958.55 1426.84 957.35 1422.04 957.35C1417.04 957.35 1413.09 958.75 1410.19 961.55C1407.29 964.25 1405.84 968.15 1405.84 973.25V994.1C1405.84 999.2 1407.29 1003.15 1410.19 1005.95C1413.09 1008.75 1417.04 1010.15 1422.04 1010.15C1426.84 1010.15 1430.59 1009 1433.29 1006.7C1436.09 1004.3 1437.64 1000.95 1437.94 996.65H1456.69C1456.39 1005.85 1453.14 1013.15 1446.94 1018.55C1440.74 1023.85 1432.44 1026.5 1422.04 1026.5ZM1478.08 1025V915.5H1496.83V942.5L1496.38 958.25H1501.48L1496.38 962.6C1496.38 955.8 1498.33 950.5 1502.23 946.7C1506.23 942.9 1511.68 941 1518.58 941C1526.68 941 1533.13 943.7 1537.93 949.1C1542.83 954.5 1545.28 961.75 1545.28 970.85V1025H1526.53V972.8C1526.53 967.8 1525.23 963.95 1522.63 961.25C1520.03 958.55 1516.38 957.2 1511.68 957.2C1507.08 957.2 1503.43 958.6 1500.73 961.4C1498.13 964.2 1496.83 968.2 1496.83 973.4V1025H1478.08ZM1592.32 1026.5C1583.82 1026.5 1577.12 1024.25 1572.22 1019.75C1567.32 1015.25 1564.87 1009.2 1564.87 1001.6C1564.87 993.5 1567.57 987.25 1572.97 982.85C1578.37 978.45 1586.02 976.25 1595.92 976.25H1616.47V969.2C1616.47 965.2 1615.17 962.1 1612.57 959.9C1609.97 957.6 1606.42 956.45 1601.92 956.45C1597.82 956.45 1594.42 957.35 1591.72 959.15C1589.02 960.95 1587.42 963.4 1586.92 966.5H1568.62C1569.52 958.7 1573.02 952.5 1579.12 947.9C1585.22 943.3 1593.02 941 1602.52 941C1612.62 941 1620.57 943.55 1626.37 948.65C1632.27 953.65 1635.22 960.45 1635.22 969.05V1025H1617.07V1010.6H1614.07L1617.07 1006.55C1617.07 1012.65 1614.82 1017.5 1610.32 1021.1C1605.82 1024.7 1599.82 1026.5 1592.32 1026.5ZM1598.47 1012.4C1603.77 1012.4 1608.07 1011.05 1611.37 1008.35C1614.77 1005.65 1616.47 1002.15 1616.47 997.85V987.8H1596.22C1592.42 987.8 1589.37 988.9 1587.07 991.1C1584.77 993.3 1583.62 996.2 1583.62 999.8C1583.62 1003.7 1584.92 1006.8 1587.52 1009.1C1590.22 1011.3 1593.87 1012.4 1598.47 1012.4ZM1700.41 1025C1692.51 1025 1686.31 1022.8 1681.81 1018.4C1677.41 1014 1675.21 1007.95 1675.21 1000.25V959.45H1652.86V942.5H1675.21V919.25H1694.11V942.5H1725.76V959.45H1694.11V1000.25C1694.11 1005.45 1696.66 1008.05 1701.76 1008.05H1724.26V1025H1700.41ZM1862.14 1026.5C1853.64 1026.5 1846.94 1024.25 1842.04 1019.75C1837.14 1015.25 1834.69 1009.2 1834.69 1001.6C1834.69 993.5 1837.39 987.25 1842.79 982.85C1848.19 978.45 1855.84 976.25 1865.74 976.25H1886.29V969.2C1886.29 965.2 1884.99 962.1 1882.39 959.9C1879.79 957.6 1876.24 956.45 1871.74 956.45C1867.64 956.45 1864.24 957.35 1861.54 959.15C1858.84 960.95 1857.24 963.4 1856.74 966.5H1838.44C1839.34 958.7 1842.84 952.5 1848.94 947.9C1855.04 943.3 1862.84 941 1872.34 941C1882.44 941 1890.39 943.55 1896.19 948.65C1902.09 953.65 1905.04 960.45 1905.04 969.05V1025H1886.89V1010.6H1883.89L1886.89 1006.55C1886.89 1012.65 1884.64 1017.5 1880.14 1021.1C1875.64 1024.7 1869.64 1026.5 1862.14 1026.5ZM1868.29 1012.4C1873.59 1012.4 1877.89 1011.05 1881.19 1008.35C1884.59 1005.65 1886.29 1002.15 1886.29 997.85V987.8H1866.04C1862.24 987.8 1859.19 988.9 1856.89 991.1C1854.59 993.3 1853.44 996.2 1853.44 999.8C1853.44 1003.7 1854.74 1006.8 1857.34 1009.1C1860.04 1011.3 1863.69 1012.4 1868.29 1012.4ZM1930.33 1025V942.5H1948.03V958.25H1952.68L1947.13 967.85C1947.13 958.95 1949.13 952.25 1953.13 947.75C1957.13 943.25 1963.03 941 1970.83 941C1979.73 941 1986.73 943.75 1991.83 949.25C1996.93 954.75 1999.48 962.35 1999.48 972.05V978.05H1979.83V973.4C1979.83 968.1 1978.43 964 1975.63 961.1C1972.93 958.2 1969.18 956.75 1964.38 956.75C1959.48 956.75 1955.68 958.2 1952.98 961.1C1950.38 964 1949.08 968.1 1949.08 973.4V1025H1930.33ZM2051.33 1026.5C2044.33 1026.5 2038.23 1025.15 2033.03 1022.45C2027.83 1019.75 2023.78 1016 2020.88 1011.2C2018.08 1006.3 2016.68 1000.6 2016.68 994.1V973.4C2016.68 966.9 2018.08 961.25 2020.88 956.45C2023.78 951.55 2027.83 947.75 2033.03 945.05C2038.23 942.35 2044.33 941 2051.33 941C2058.23 941 2064.23 942.35 2069.33 945.05C2074.53 947.75 2078.53 951.55 2081.33 956.45C2084.23 961.25 2085.68 966.9 2085.68 973.4V988.25H2034.83V994.1C2034.83 999.9 2036.23 1004.3 2039.03 1007.3C2041.83 1010.2 2045.98 1011.65 2051.48 1011.65C2055.68 1011.65 2059.08 1010.95 2061.68 1009.55C2064.28 1008.05 2065.93 1005.9 2066.63 1003.1H2085.08C2083.68 1010.2 2079.88 1015.9 2073.68 1020.2C2067.58 1024.4 2060.13 1026.5 2051.33 1026.5ZM2067.53 977.75V973.25C2067.53 967.55 2066.18 963.2 2063.48 960.2C2060.78 957.1 2056.73 955.55 2051.33 955.55C2045.93 955.55 2041.83 957.1 2039.03 960.2C2036.23 963.3 2034.83 967.7 2034.83 973.4V976.55L2068.88 976.25L2067.53 977.75ZM2131.97 1026.5C2123.47 1026.5 2116.77 1024.25 2111.87 1019.75C2106.97 1015.25 2104.52 1009.2 2104.52 1001.6C2104.52 993.5 2107.22 987.25 2112.62 982.85C2118.02 978.45 2125.67 976.25 2135.57 976.25H2156.12V969.2C2156.12 965.2 2154.82 962.1 2152.22 959.9C2149.62 957.6 2146.07 956.45 2141.57 956.45C2137.47 956.45 2134.07 957.35 2131.37 959.15C2128.67 960.95 2127.07 963.4 2126.57 966.5H2108.27C2109.17 958.7 2112.67 952.5 2118.77 947.9C2124.87 943.3 2132.67 941 2142.17 941C2152.27 941 2160.22 943.55 2166.02 948.65C2171.92 953.65 2174.87 960.45 2174.87 969.05V1025H2156.72V1010.6H2153.72L2156.72 1006.55C2156.72 1012.65 2154.47 1017.5 2149.97 1021.1C2145.47 1024.7 2139.47 1026.5 2131.97 1026.5ZM2138.12 1012.4C2143.42 1012.4 2147.72 1011.05 2151.02 1008.35C2154.42 1005.65 2156.12 1002.15 2156.12 997.85V987.8H2135.87C2132.07 987.8 2129.02 988.9 2126.72 991.1C2124.42 993.3 2123.27 996.2 2123.27 999.8C2123.27 1003.7 2124.57 1006.8 2127.17 1009.1C2129.87 1011.3 2133.52 1012.4 2138.12 1012.4ZM2231.06 1026.5C2226.76 1026.5 2223.31 1025.25 2220.71 1022.75C2218.21 1020.25 2216.96 1016.85 2216.96 1012.55C2216.96 1008.25 2218.21 1004.85 2220.71 1002.35C2223.31 999.75 2226.76 998.45 2231.06 998.45C2235.36 998.45 2238.76 999.75 2241.26 1002.35C2243.86 1004.85 2245.16 1008.25 2245.16 1012.55C2245.16 1016.85 2243.86 1020.25 2241.26 1022.75C2238.76 1025.25 2235.36 1026.5 2231.06 1026.5Z" fill="black"/>
<path d="M1094.79 153V136.5H1116.84V60H1094.79V43.5H1157.79V60H1135.74V136.5H1157.79V153H1094.79ZM1225.23 153C1217.33 153 1211.13 150.8 1206.63 146.4C1202.23 142 1200.03 135.95 1200.03 128.25V87.45H1177.68V70.5H1200.03V47.25H1218.93V70.5H1250.58V87.45H1218.93V128.25C1218.93 133.45 1221.48 136.05 1226.58 136.05H1249.08V153H1225.23ZM1366.71 153L1354.11 70.5H1369.71L1376.61 121.05C1377.01 123.95 1377.36 127.15 1377.66 130.65C1378.06 134.15 1378.36 137.05 1378.56 139.35C1378.86 137.05 1379.26 134.15 1379.76 130.65C1380.26 127.15 1380.71 123.95 1381.11 121.05L1388.91 70.5H1403.46L1411.11 121.05C1411.51 123.95 1411.96 127.2 1412.46 130.8C1412.96 134.3 1413.36 137.2 1413.66 139.5C1413.86 137.1 1414.16 134.15 1414.56 130.65C1415.06 127.05 1415.46 123.85 1415.76 121.05L1423.11 70.5H1438.11L1425.21 153H1405.86L1398.66 102.15C1398.26 99.35 1397.81 96.25 1397.31 92.85C1396.81 89.35 1396.41 86.5 1396.11 84.3C1395.81 86.5 1395.41 89.35 1394.91 92.85C1394.51 96.25 1394.06 99.35 1393.56 102.15L1386.06 153H1366.71ZM1452.45 153V135.9H1481.25V87.45H1456.2V70.5H1499.25V135.9H1524.75V153H1452.45ZM1488.75 56.7C1484.95 56.7 1481.95 55.75 1479.75 53.85C1477.55 51.85 1476.45 49.2 1476.45 45.9C1476.45 42.6 1477.55 40 1479.75 38.1C1481.95 36.1 1484.95 35.1 1488.75 35.1C1492.55 35.1 1495.55 36.1 1497.75 38.1C1499.95 40 1501.05 42.6 1501.05 45.9C1501.05 49.2 1499.95 51.85 1497.75 53.85C1495.55 55.75 1492.55 56.7 1488.75 56.7ZM1588.6 153C1583.2 153 1578.45 151.9 1574.35 149.7C1570.35 147.5 1567.2 144.4 1564.9 140.4C1562.6 136.3 1561.45 131.6 1561.45 126.3V60.45H1535.05V43.5H1580.2V126.3C1580.2 129.3 1581.05 131.7 1582.75 133.5C1584.55 135.2 1586.95 136.05 1589.95 136.05H1614.85V153H1588.6ZM1678.54 153C1673.14 153 1668.39 151.9 1664.29 149.7C1660.29 147.5 1657.14 144.4 1654.84 140.4C1652.54 136.3 1651.39 131.6 1651.39 126.3V60.45H1624.99V43.5H1670.14V126.3C1670.14 129.3 1670.99 131.7 1672.69 133.5C1674.49 135.2 1676.89 136.05 1679.89 136.05H1704.79V153H1678.54ZM1846.27 154.5C1839.27 154.5 1833.12 153.2 1827.82 150.6C1822.62 147.9 1818.57 144.15 1815.67 139.35C1812.77 134.45 1811.32 128.7 1811.32 122.1V101.4C1811.32 94.7 1812.77 88.95 1815.67 84.15C1818.57 79.35 1822.62 75.65 1827.82 73.05C1833.12 70.35 1839.27 69 1846.27 69C1856.67 69 1864.97 71.7 1871.17 77.1C1877.37 82.4 1880.62 89.65 1880.92 98.85H1862.17C1861.87 94.55 1860.32 91.25 1857.52 88.95C1854.82 86.55 1851.07 85.35 1846.27 85.35C1841.27 85.35 1837.32 86.75 1834.42 89.55C1831.52 92.25 1830.07 96.15 1830.07 101.25V122.1C1830.07 127.2 1831.52 131.15 1834.42 133.95C1837.32 136.75 1841.27 138.15 1846.27 138.15C1851.07 138.15 1854.82 137 1857.52 134.7C1860.32 132.3 1861.87 128.95 1862.17 124.65H1880.92C1880.62 133.85 1877.37 141.15 1871.17 146.55C1864.97 151.85 1856.67 154.5 1846.27 154.5ZM1948.36 153C1942.96 153 1938.21 151.9 1934.11 149.7C1930.11 147.5 1926.96 144.4 1924.66 140.4C1922.36 136.3 1921.21 131.6 1921.21 126.3V60.45H1894.81V43.5H1939.96V126.3C1939.96 129.3 1940.81 131.7 1942.51 133.5C1944.31 135.2 1946.71 136.05 1949.71 136.05H1974.61V153H1948.36ZM2025.7 154.35C2018.7 154.35 2012.6 153.05 2007.4 150.45C2002.3 147.75 1998.3 144 1995.4 139.2C1992.6 134.3 1991.2 128.55 1991.2 121.95V101.55C1991.2 94.95 1992.6 89.25 1995.4 84.45C1998.3 79.55 2002.3 75.8 2007.4 73.2C2012.6 70.5 2018.7 69.15 2025.7 69.15C2032.8 69.15 2038.9 70.5 2044 73.2C2049.1 75.8 2053.05 79.55 2055.85 84.45C2058.75 89.25 2060.2 94.9 2060.2 101.4V121.95C2060.2 128.55 2058.75 134.3 2055.85 139.2C2053.05 144 2049.1 147.75 2044 150.45C2038.9 153.05 2032.8 154.35 2025.7 154.35ZM2025.7 138C2030.7 138 2034.55 136.65 2037.25 133.95C2040.05 131.15 2041.45 127.15 2041.45 121.95V101.55C2041.45 96.25 2040.05 92.25 2037.25 89.55C2034.55 86.85 2030.7 85.5 2025.7 85.5C2020.8 85.5 2016.95 86.85 2014.15 89.55C2011.35 92.25 2009.95 96.25 2009.95 101.55V121.95C2009.95 127.15 2011.35 131.15 2014.15 133.95C2016.95 136.65 2020.8 138 2025.7 138ZM2112.49 154.35C2106.19 154.35 2100.69 153.35 2095.99 151.35C2091.29 149.35 2087.59 146.6 2084.89 143.1C2082.29 139.5 2080.89 135.3 2080.69 130.5H2099.44C2099.64 133.1 2100.89 135.2 2103.19 136.8C2105.59 138.4 2108.69 139.2 2112.49 139.2H2119.09C2123.69 139.2 2127.14 138.3 2129.44 136.5C2131.74 134.7 2132.89 132.25 2132.89 129.15C2132.89 126.25 2131.84 124 2129.74 122.4C2127.74 120.7 2124.59 119.6 2120.29 119.1L2110.09 117.6C2100.69 116.3 2093.79 113.8 2089.39 110.1C2084.99 106.4 2082.79 100.85 2082.79 93.45C2082.79 85.75 2085.39 79.8 2090.59 75.6C2095.79 71.3 2103.44 69.15 2113.54 69.15H2119.24C2128.44 69.15 2135.79 71.2 2141.29 75.3C2146.79 79.4 2149.74 84.9 2150.14 91.8H2131.39C2131.09 89.6 2129.84 87.8 2127.64 86.4C2125.54 85 2122.74 84.3 2119.24 84.3H2113.54C2109.24 84.3 2106.09 85.1 2104.09 86.7C2102.19 88.2 2101.24 90.45 2101.24 93.45C2101.24 96.25 2102.09 98.35 2103.79 99.75C2105.49 101.05 2108.24 102 2112.04 102.6L2122.69 104.1C2132.49 105.5 2139.69 108.15 2144.29 112.05C2148.99 115.85 2151.34 121.5 2151.34 129C2151.34 137 2148.59 143.25 2143.09 147.75C2137.69 152.15 2129.69 154.35 2119.09 154.35H2112.49ZM2205.74 154.5C2198.74 154.5 2192.64 153.15 2187.44 150.45C2182.24 147.75 2178.19 144 2175.29 139.2C2172.49 134.3 2171.09 128.6 2171.09 122.1V101.4C2171.09 94.9 2172.49 89.25 2175.29 84.45C2178.19 79.55 2182.24 75.75 2187.44 73.05C2192.64 70.35 2198.74 69 2205.74 69C2212.64 69 2218.64 70.35 2223.74 73.05C2228.94 75.75 2232.94 79.55 2235.74 84.45C2238.64 89.25 2240.09 94.9 2240.09 101.4V116.25H2189.24V122.1C2189.24 127.9 2190.64 132.3 2193.44 135.3C2196.24 138.2 2200.39 139.65 2205.89 139.65C2210.09 139.65 2213.49 138.95 2216.09 137.55C2218.69 136.05 2220.34 133.9 2221.04 131.1H2239.49C2238.09 138.2 2234.29 143.9 2228.09 148.2C2221.99 152.4 2214.54 154.5 2205.74 154.5ZM2221.94 105.75V101.25C2221.94 95.55 2220.59 91.2 2217.89 88.2C2215.19 85.1 2211.14 83.55 2205.74 83.55C2200.34 83.55 2196.24 85.1 2193.44 88.2C2190.64 91.3 2189.24 95.7 2189.24 101.4V104.55L2223.29 104.25L2221.94 105.75ZM2394.47 153C2386.57 153 2380.37 150.8 2375.87 146.4C2371.47 142 2369.27 135.95 2369.27 128.25V87.45H2346.92V70.5H2369.27V47.25H2388.17V70.5H2419.82V87.45H2388.17V128.25C2388.17 133.45 2390.72 136.05 2395.82 136.05H2418.32V153H2394.47ZM2441.96 153V43.5H2460.71V70.5L2460.26 86.25H2465.36L2460.26 90.6C2460.26 83.8 2462.21 78.5 2466.11 74.7C2470.11 70.9 2475.56 69 2482.46 69C2490.56 69 2497.01 71.7 2501.81 77.1C2506.71 82.5 2509.16 89.75 2509.16 98.85V153H2490.41V100.8C2490.41 95.8 2489.11 91.95 2486.51 89.25C2483.91 86.55 2480.26 85.2 2475.56 85.2C2470.96 85.2 2467.31 86.6 2464.61 89.4C2462.01 92.2 2460.71 96.2 2460.71 101.4V153H2441.96ZM2565.5 154.5C2558.5 154.5 2552.4 153.15 2547.2 150.45C2542 147.75 2537.95 144 2535.05 139.2C2532.25 134.3 2530.85 128.6 2530.85 122.1V101.4C2530.85 94.9 2532.25 89.25 2535.05 84.45C2537.95 79.55 2542 75.75 2547.2 73.05C2552.4 70.35 2558.5 69 2565.5 69C2572.4 69 2578.4 70.35 2583.5 73.05C2588.7 75.75 2592.7 79.55 2595.5 84.45C2598.4 89.25 2599.85 94.9 2599.85 101.4V116.25H2549V122.1C2549 127.9 2550.4 132.3 2553.2 135.3C2556 138.2 2560.15 139.65 2565.65 139.65C2569.85 139.65 2573.25 138.95 2575.85 137.55C2578.45 136.05 2580.1 133.9 2580.8 131.1H2599.25C2597.85 138.2 2594.05 143.9 2587.85 148.2C2581.75 152.4 2574.3 154.5 2565.5 154.5ZM2581.7 105.75V101.25C2581.7 95.55 2580.35 91.2 2577.65 88.2C2574.95 85.1 2570.9 83.55 2565.5 83.55C2560.1 83.55 2556 85.1 2553.2 88.2C2550.4 91.3 2549 95.7 2549 101.4V104.55L2583.05 104.25L2581.7 105.75ZM2745.68 154.5C2738.68 154.5 2732.53 153.2 2727.23 150.6C2722.03 147.9 2717.98 144.15 2715.08 139.35C2712.18 134.45 2710.73 128.7 2710.73 122.1V101.4C2710.73 94.7 2712.18 88.95 2715.08 84.15C2717.98 79.35 2722.03 75.65 2727.23 73.05C2732.53 70.35 2738.68 69 2745.68 69C2756.08 69 2764.38 71.7 2770.58 77.1C2776.78 82.4 2780.03 89.65 2780.33 98.85H2761.58C2761.28 94.55 2759.73 91.25 2756.93 88.95C2754.23 86.55 2750.48 85.35 2745.68 85.35C2740.68 85.35 2736.73 86.75 2733.83 89.55C2730.93 92.25 2729.48 96.15 2729.48 101.25V122.1C2729.48 127.2 2730.93 131.15 2733.83 133.95C2736.73 136.75 2740.68 138.15 2745.68 138.15C2750.48 138.15 2754.23 137 2756.93 134.7C2759.73 132.3 2761.28 128.95 2761.58 124.65H2780.33C2780.03 133.85 2776.78 141.15 2770.58 146.55C2764.38 151.85 2756.08 154.5 2745.68 154.5ZM2801.73 153V43.5H2820.48V70.5L2820.03 86.25H2825.13L2820.03 90.6C2820.03 83.8 2821.98 78.5 2825.88 74.7C2829.88 70.9 2835.33 69 2842.23 69C2850.33 69 2856.78 71.7 2861.58 77.1C2866.48 82.5 2868.93 89.75 2868.93 98.85V153H2850.18V100.8C2850.18 95.8 2848.88 91.95 2846.28 89.25C2843.68 86.55 2840.03 85.2 2835.33 85.2C2830.73 85.2 2827.08 86.6 2824.38 89.4C2821.78 92.2 2820.48 96.2 2820.48 101.4V153H2801.73ZM2915.97 154.5C2907.47 154.5 2900.77 152.25 2895.87 147.75C2890.97 143.25 2888.52 137.2 2888.52 129.6C2888.52 121.5 2891.22 115.25 2896.62 110.85C2902.02 106.45 2909.67 104.25 2919.57 104.25H2940.12V97.2C2940.12 93.2 2938.82 90.1 2936.22 87.9C2933.62 85.6 2930.07 84.45 2925.57 84.45C2921.47 84.45 2918.07 85.35 2915.37 87.15C2912.67 88.95 2911.07 91.4 2910.57 94.5H2892.27C2893.17 86.7 2896.67 80.5 2902.77 75.9C2908.87 71.3 2916.67 69 2926.17 69C2936.27 69 2944.22 71.55 2950.02 76.65C2955.92 81.65 2958.87 88.45 2958.87 97.05V153H2940.72V138.6H2937.72L2940.72 134.55C2940.72 140.65 2938.47 145.5 2933.97 149.1C2929.47 152.7 2923.47 154.5 2915.97 154.5ZM2922.12 140.4C2927.42 140.4 2931.72 139.05 2935.02 136.35C2938.42 133.65 2940.12 130.15 2940.12 125.85V115.8H2919.87C2916.07 115.8 2913.02 116.9 2910.72 119.1C2908.42 121.3 2907.27 124.2 2907.27 127.8C2907.27 131.7 2908.57 134.8 2911.17 137.1C2913.87 139.3 2917.52 140.4 2922.12 140.4ZM3024.06 153C3016.16 153 3009.96 150.8 3005.46 146.4C3001.06 142 2998.86 135.95 2998.86 128.25V87.45H2976.51V70.5H2998.86V47.25H3017.76V70.5H3049.41V87.45H3017.76V128.25C3017.76 133.45 3020.31 136.05 3025.41 136.05H3047.91V153H3024.06ZM823.015 378V268.5H841.315V284.25H845.515L841.315 288.6C841.315 281.9 843.315 276.65 847.315 272.85C851.315 268.95 856.715 267 863.515 267C871.815 267 878.465 269.85 883.465 275.55C888.465 281.25 890.965 288.9 890.965 298.5V320.85C890.965 327.25 889.815 332.85 887.515 337.65C885.315 342.35 882.165 346 878.065 348.6C873.965 351.2 869.115 352.5 863.515 352.5C856.715 352.5 851.315 350.6 847.315 346.8C843.315 342.9 841.315 337.6 841.315 330.9L845.515 335.25H841.165L841.765 354.9V378H823.015ZM856.915 336.3C861.715 336.3 865.465 334.9 868.165 332.1C870.865 329.3 872.215 325.3 872.215 320.1V299.4C872.215 294.2 870.865 290.2 868.165 287.4C865.465 284.6 861.715 283.2 856.915 283.2C852.215 283.2 848.515 284.65 845.815 287.55C843.115 290.35 841.765 294.3 841.765 299.4V320.1C841.765 325.2 843.115 329.2 845.815 332.1C848.515 334.9 852.215 336.3 856.915 336.3ZM946.406 352.35C939.406 352.35 933.306 351.05 928.106 348.45C923.006 345.75 919.006 342 916.106 337.2C913.306 332.3 911.906 326.55 911.906 319.95V299.55C911.906 292.95 913.306 287.25 916.106 282.45C919.006 277.55 923.006 273.8 928.106 271.2C933.306 268.5 939.406 267.15 946.406 267.15C953.506 267.15 959.606 268.5 964.706 271.2C969.806 273.8 973.756 277.55 976.556 282.45C979.456 287.25 980.906 292.9 980.906 299.4V319.95C980.906 326.55 979.456 332.3 976.556 337.2C973.756 342 969.806 345.75 964.706 348.45C959.606 351.05 953.506 352.35 946.406 352.35ZM946.406 336C951.406 336 955.256 334.65 957.956 331.95C960.756 329.15 962.156 325.15 962.156 319.95V299.55C962.156 294.25 960.756 290.25 957.956 287.55C955.256 284.85 951.406 283.5 946.406 283.5C941.506 283.5 937.656 284.85 934.856 287.55C932.056 290.25 930.656 294.25 930.656 299.55V319.95C930.656 325.15 932.056 329.15 934.856 331.95C937.656 334.65 941.506 336 946.406 336ZM1002.9 378V268.5H1021.2V284.25H1025.4L1021.2 288.6C1021.2 281.9 1023.2 276.65 1027.2 272.85C1031.2 268.95 1036.6 267 1043.4 267C1051.7 267 1058.35 269.85 1063.35 275.55C1068.35 281.25 1070.85 288.9 1070.85 298.5V320.85C1070.85 327.25 1069.7 332.85 1067.4 337.65C1065.2 342.35 1062.05 346 1057.95 348.6C1053.85 351.2 1049 352.5 1043.4 352.5C1036.6 352.5 1031.2 350.6 1027.2 346.8C1023.2 342.9 1021.2 337.6 1021.2 330.9L1025.4 335.25H1021.05L1021.65 354.9V378H1002.9ZM1036.8 336.3C1041.6 336.3 1045.35 334.9 1048.05 332.1C1050.75 329.3 1052.1 325.3 1052.1 320.1V299.4C1052.1 294.2 1050.75 290.2 1048.05 287.4C1045.35 284.6 1041.6 283.2 1036.8 283.2C1032.1 283.2 1028.4 284.65 1025.7 287.55C1023 290.35 1021.65 294.3 1021.65 299.4V320.1C1021.65 325.2 1023 329.2 1025.7 332.1C1028.4 334.9 1032.1 336.3 1036.8 336.3ZM1126.29 352.5C1115.79 352.5 1107.54 349.6 1101.54 343.8C1095.54 337.9 1092.54 329.9 1092.54 319.8V268.5H1111.29V319.65C1111.29 324.95 1112.59 329.05 1115.19 331.95C1117.79 334.75 1121.49 336.15 1126.29 336.15C1130.99 336.15 1134.64 334.75 1137.24 331.95C1139.94 329.05 1141.29 324.95 1141.29 319.65V268.5H1160.04V319.8C1160.04 329.9 1156.99 337.9 1150.89 343.8C1144.79 349.6 1136.59 352.5 1126.29 352.5ZM1182.78 378V268.5H1201.08V284.25H1205.28L1201.08 288.6C1201.08 281.9 1203.08 276.65 1207.08 272.85C1211.08 268.95 1216.48 267 1223.28 267C1231.58 267 1238.23 269.85 1243.23 275.55C1248.23 281.25 1250.73 288.9 1250.73 298.5V320.85C1250.73 327.25 1249.58 332.85 1247.28 337.65C1245.08 342.35 1241.93 346 1237.83 348.6C1233.73 351.2 1228.88 352.5 1223.28 352.5C1216.48 352.5 1211.08 350.6 1207.08 346.8C1203.08 342.9 1201.08 337.6 1201.08 330.9L1205.28 335.25H1200.93L1201.53 354.9V378H1182.78ZM1216.68 336.3C1221.48 336.3 1225.23 334.9 1227.93 332.1C1230.63 329.3 1231.98 325.3 1231.98 320.1V299.4C1231.98 294.2 1230.63 290.2 1227.93 287.4C1225.23 284.6 1221.48 283.2 1216.68 283.2C1211.98 283.2 1208.28 284.65 1205.58 287.55C1202.88 290.35 1201.53 294.3 1201.53 299.4V320.1C1201.53 325.2 1202.88 329.2 1205.58 332.1C1208.28 334.9 1211.98 336.3 1216.68 336.3ZM1283.67 375L1295.67 328.35H1319.67L1300.17 375H1283.67ZM1486.5 352.5C1479.5 352.5 1473.35 351.2 1468.05 348.6C1462.85 345.9 1458.8 342.15 1455.9 337.35C1453 332.45 1451.55 326.7 1451.55 320.1V299.4C1451.55 292.7 1453 286.95 1455.9 282.15C1458.8 277.35 1462.85 273.65 1468.05 271.05C1473.35 268.35 1479.5 267 1486.5 267C1496.9 267 1505.2 269.7 1511.4 275.1C1517.6 280.4 1520.85 287.65 1521.15 296.85H1502.4C1502.1 292.55 1500.55 289.25 1497.75 286.95C1495.05 284.55 1491.3 283.35 1486.5 283.35C1481.5 283.35 1477.55 284.75 1474.65 287.55C1471.75 290.25 1470.3 294.15 1470.3 299.25V320.1C1470.3 325.2 1471.75 329.15 1474.65 331.95C1477.55 334.75 1481.5 336.15 1486.5 336.15C1491.3 336.15 1495.05 335 1497.75 332.7C1500.55 330.3 1502.1 326.95 1502.4 322.65H1521.15C1520.85 331.85 1517.6 339.15 1511.4 344.55C1505.2 349.85 1496.9 352.5 1486.5 352.5ZM1588.6 351C1583.2 351 1578.45 349.9 1574.35 347.7C1570.35 345.5 1567.2 342.4 1564.9 338.4C1562.6 334.3 1561.45 329.6 1561.45 324.3V258.45H1535.05V241.5H1580.2V324.3C1580.2 327.3 1581.05 329.7 1582.75 331.5C1584.55 333.2 1586.95 334.05 1589.95 334.05H1614.85V351H1588.6ZM1666.09 352.5C1659.09 352.5 1652.99 351.15 1647.79 348.45C1642.59 345.75 1638.54 342 1635.64 337.2C1632.84 332.3 1631.44 326.6 1631.44 320.1V299.4C1631.44 292.9 1632.84 287.25 1635.64 282.45C1638.54 277.55 1642.59 273.75 1647.79 271.05C1652.99 268.35 1659.09 267 1666.09 267C1672.99 267 1678.99 268.35 1684.09 271.05C1689.29 273.75 1693.29 277.55 1696.09 282.45C1698.99 287.25 1700.44 292.9 1700.44 299.4V314.25H1649.59V320.1C1649.59 325.9 1650.99 330.3 1653.79 333.3C1656.59 336.2 1660.74 337.65 1666.24 337.65C1670.44 337.65 1673.84 336.95 1676.44 335.55C1679.04 334.05 1680.69 331.9 1681.39 329.1H1699.84C1698.44 336.2 1694.64 341.9 1688.44 346.2C1682.34 350.4 1674.89 352.5 1666.09 352.5ZM1682.29 303.75V299.25C1682.29 293.55 1680.94 289.2 1678.24 286.2C1675.54 283.1 1671.49 281.55 1666.09 281.55C1660.69 281.55 1656.59 283.1 1653.79 286.2C1650.99 289.3 1649.59 293.7 1649.59 299.4V302.55L1683.64 302.25L1682.29 303.75ZM1746.73 352.5C1738.23 352.5 1731.53 350.25 1726.63 345.75C1721.73 341.25 1719.28 335.2 1719.28 327.6C1719.28 319.5 1721.98 313.25 1727.38 308.85C1732.78 304.45 1740.43 302.25 1750.33 302.25H1770.88V295.2C1770.88 291.2 1769.58 288.1 1766.98 285.9C1764.38 283.6 1760.83 282.45 1756.33 282.45C1752.23 282.45 1748.83 283.35 1746.13 285.15C1743.43 286.95 1741.83 289.4 1741.33 292.5H1723.03C1723.93 284.7 1727.43 278.5 1733.53 273.9C1739.63 269.3 1747.43 267 1756.93 267C1767.03 267 1774.98 269.55 1780.78 274.65C1786.68 279.65 1789.63 286.45 1789.63 295.05V351H1771.48V336.6H1768.48L1771.48 332.55C1771.48 338.65 1769.23 343.5 1764.73 347.1C1760.23 350.7 1754.23 352.5 1746.73 352.5ZM1752.88 338.4C1758.18 338.4 1762.48 337.05 1765.78 334.35C1769.18 331.65 1770.88 328.15 1770.88 323.85V313.8H1750.63C1746.83 313.8 1743.78 314.9 1741.48 317.1C1739.18 319.3 1738.03 322.2 1738.03 325.8C1738.03 329.7 1739.33 332.8 1741.93 335.1C1744.63 337.3 1748.28 338.4 1752.88 338.4ZM1814.92 351V268.5H1832.62V284.25H1837.27L1831.72 293.85C1831.72 284.95 1833.72 278.25 1837.72 273.75C1841.72 269.25 1847.62 267 1855.42 267C1864.32 267 1871.32 269.75 1876.42 275.25C1881.52 280.75 1884.07 288.35 1884.07 298.05V304.05H1864.42V299.4C1864.42 294.1 1863.02 290 1860.22 287.1C1857.52 284.2 1853.77 282.75 1848.97 282.75C1844.07 282.75 1840.27 284.2 1837.57 287.1C1834.97 290 1833.67 294.1 1833.67 299.4V351H1814.92ZM1902.16 351V333.9H1930.96V285.45H1905.91V268.5H1948.96V333.9H1974.46V351H1902.16ZM1938.46 254.7C1934.66 254.7 1931.66 253.75 1929.46 251.85C1927.26 249.85 1926.16 247.2 1926.16 243.9C1926.16 240.6 1927.26 238 1929.46 236.1C1931.66 234.1 1934.66 233.1 1938.46 233.1C1942.26 233.1 1945.26 234.1 1947.46 236.1C1949.66 238 1950.76 240.6 1950.76 243.9C1950.76 247.2 1949.66 249.85 1947.46 251.85C1945.26 253.75 1942.26 254.7 1938.46 254.7ZM1992.25 351V268.5H2010.55V284.25H2015.65L2010.55 288.6C2010.55 281.8 2012.5 276.5 2016.4 272.7C2020.4 268.9 2025.85 267 2032.75 267C2040.85 267 2047.3 269.7 2052.1 275.1C2057 280.5 2059.45 287.75 2059.45 296.85V351H2040.7V298.8C2040.7 293.8 2039.4 289.95 2036.8 287.25C2034.2 284.55 2030.55 283.2 2025.85 283.2C2021.25 283.2 2017.6 284.6 2014.9 287.4C2012.3 290.2 2011 294.2 2011 299.4V351H1992.25ZM2093.44 378V362.4H2117.89C2122.09 362.4 2125.24 361.35 2127.34 359.25C2129.44 357.25 2130.49 354.35 2130.49 350.55V344.4L2130.79 328.95H2126.74L2130.79 324.9C2130.79 331.6 2128.79 336.85 2124.79 340.65C2120.89 344.35 2115.59 346.2 2108.89 346.2C2100.49 346.2 2093.79 343.35 2088.79 337.65C2083.89 331.95 2081.44 324.25 2081.44 314.55V298.5C2081.44 288.9 2083.89 281.25 2088.79 275.55C2093.79 269.85 2100.49 267 2108.89 267C2115.59 267 2120.89 268.9 2124.79 272.7C2128.79 276.4 2130.79 281.6 2130.79 288.3L2126.74 284.25H2130.79L2130.34 268.5H2149.09V351C2149.09 359.3 2146.34 365.85 2140.84 370.65C2135.34 375.55 2127.79 378 2118.19 378H2093.44ZM2115.19 330C2119.99 330 2123.69 328.6 2126.29 325.8C2128.99 322.9 2130.34 318.9 2130.34 313.8V299.4C2130.34 294.3 2128.99 290.35 2126.29 287.55C2123.69 284.65 2119.99 283.2 2115.19 283.2C2110.39 283.2 2106.69 284.6 2104.09 287.4C2101.49 290.2 2100.19 294.2 2100.19 299.4V313.8C2100.19 319 2101.49 323 2104.09 325.8C2106.69 328.6 2110.39 330 2115.19 330ZM2295.98 352.5C2288.98 352.5 2282.83 351.2 2277.53 348.6C2272.33 345.9 2268.28 342.15 2265.38 337.35C2262.48 332.45 2261.03 326.7 2261.03 320.1V299.4C2261.03 292.7 2262.48 286.95 2265.38 282.15C2268.28 277.35 2272.33 273.65 2277.53 271.05C2282.83 268.35 2288.98 267 2295.98 267C2306.38 267 2314.68 269.7 2320.88 275.1C2327.08 280.4 2330.33 287.65 2330.63 296.85H2311.88C2311.58 292.55 2310.03 289.25 2307.23 286.95C2304.53 284.55 2300.78 283.35 2295.98 283.35C2290.98 283.35 2287.03 284.75 2284.13 287.55C2281.23 290.25 2279.78 294.15 2279.78 299.25V320.1C2279.78 325.2 2281.23 329.15 2284.13 331.95C2287.03 334.75 2290.98 336.15 2295.98 336.15C2300.78 336.15 2304.53 335 2307.23 332.7C2310.03 330.3 2311.58 326.95 2311.88 322.65H2330.63C2330.33 331.85 2327.08 339.15 2320.88 344.55C2314.68 349.85 2306.38 352.5 2295.98 352.5ZM2352.02 351V241.5H2370.77V268.5L2370.32 284.25H2375.42L2370.32 288.6C2370.32 281.8 2372.27 276.5 2376.17 272.7C2380.17 268.9 2385.62 267 2392.52 267C2400.62 267 2407.07 269.7 2411.87 275.1C2416.77 280.5 2419.22 287.75 2419.22 296.85V351H2400.47V298.8C2400.47 293.8 2399.17 289.95 2396.57 287.25C2393.97 284.55 2390.32 283.2 2385.62 283.2C2381.02 283.2 2377.37 284.6 2374.67 287.4C2372.07 290.2 2370.77 294.2 2370.77 299.4V351H2352.02ZM2466.26 352.5C2457.76 352.5 2451.06 350.25 2446.16 345.75C2441.26 341.25 2438.81 335.2 2438.81 327.6C2438.81 319.5 2441.51 313.25 2446.91 308.85C2452.31 304.45 2459.96 302.25 2469.86 302.25H2490.41V295.2C2490.41 291.2 2489.11 288.1 2486.51 285.9C2483.91 283.6 2480.36 282.45 2475.86 282.45C2471.76 282.45 2468.36 283.35 2465.66 285.15C2462.96 286.95 2461.36 289.4 2460.86 292.5H2442.56C2443.46 284.7 2446.96 278.5 2453.06 273.9C2459.16 269.3 2466.96 267 2476.46 267C2486.56 267 2494.51 269.55 2500.31 274.65C2506.21 279.65 2509.16 286.45 2509.16 295.05V351H2491.01V336.6H2488.01L2491.01 332.55C2491.01 338.65 2488.76 343.5 2484.26 347.1C2479.76 350.7 2473.76 352.5 2466.26 352.5ZM2472.41 338.4C2477.71 338.4 2482.01 337.05 2485.31 334.35C2488.71 331.65 2490.41 328.15 2490.41 323.85V313.8H2470.16C2466.36 313.8 2463.31 314.9 2461.01 317.1C2458.71 319.3 2457.56 322.2 2457.56 325.8C2457.56 329.7 2458.86 332.8 2461.46 335.1C2464.16 337.3 2467.81 338.4 2472.41 338.4ZM2574.35 351C2566.45 351 2560.25 348.8 2555.75 344.4C2551.35 340 2549.15 333.95 2549.15 326.25V285.45H2526.8V268.5H2549.15V245.25H2568.05V268.5H2599.7V285.45H2568.05V326.25C2568.05 331.45 2570.6 334.05 2575.7 334.05H2598.2V351H2574.35ZM2736.08 352.5C2727.58 352.5 2720.88 350.25 2715.98 345.75C2711.08 341.25 2708.63 335.2 2708.63 327.6C2708.63 319.5 2711.33 313.25 2716.73 308.85C2722.13 304.45 2729.78 302.25 2739.68 302.25H2760.23V295.2C2760.23 291.2 2758.93 288.1 2756.33 285.9C2753.73 283.6 2750.18 282.45 2745.68 282.45C2741.58 282.45 2738.18 283.35 2735.48 285.15C2732.78 286.95 2731.18 289.4 2730.68 292.5H2712.38C2713.28 284.7 2716.78 278.5 2722.88 273.9C2728.98 269.3 2736.78 267 2746.28 267C2756.38 267 2764.33 269.55 2770.13 274.65C2776.03 279.65 2778.98 286.45 2778.98 295.05V351H2760.83V336.6H2757.83L2760.83 332.55C2760.83 338.65 2758.58 343.5 2754.08 347.1C2749.58 350.7 2743.58 352.5 2736.08 352.5ZM2742.23 338.4C2747.53 338.4 2751.83 337.05 2755.13 334.35C2758.53 331.65 2760.23 328.15 2760.23 323.85V313.8H2739.98C2736.18 313.8 2733.13 314.9 2730.83 317.1C2728.53 319.3 2727.38 322.2 2727.38 325.8C2727.38 329.7 2728.68 332.8 2731.28 335.1C2733.98 337.3 2737.63 338.4 2742.23 338.4ZM2804.28 351V268.5H2821.98V284.25H2826.63L2821.08 293.85C2821.08 284.95 2823.08 278.25 2827.08 273.75C2831.08 269.25 2836.98 267 2844.78 267C2853.68 267 2860.68 269.75 2865.78 275.25C2870.88 280.75 2873.43 288.35 2873.43 298.05V304.05H2853.78V299.4C2853.78 294.1 2852.38 290 2849.58 287.1C2846.88 284.2 2843.13 282.75 2838.33 282.75C2833.43 282.75 2829.63 284.2 2826.93 287.1C2824.33 290 2823.03 294.1 2823.03 299.4V351H2804.28ZM2925.27 352.5C2918.27 352.5 2912.17 351.15 2906.97 348.45C2901.77 345.75 2897.72 342 2894.82 337.2C2892.02 332.3 2890.62 326.6 2890.62 320.1V299.4C2890.62 292.9 2892.02 287.25 2894.82 282.45C2897.72 277.55 2901.77 273.75 2906.97 271.05C2912.17 268.35 2918.27 267 2925.27 267C2932.17 267 2938.17 268.35 2943.27 271.05C2948.47 273.75 2952.47 277.55 2955.27 282.45C2958.17 287.25 2959.62 292.9 2959.62 299.4V314.25H2908.77V320.1C2908.77 325.9 2910.17 330.3 2912.97 333.3C2915.77 336.2 2919.92 337.65 2925.42 337.65C2929.62 337.65 2933.02 336.95 2935.62 335.55C2938.22 334.05 2939.87 331.9 2940.57 329.1H2959.02C2957.62 336.2 2953.82 341.9 2947.62 346.2C2941.52 350.4 2934.07 352.5 2925.27 352.5ZM2941.47 303.75V299.25C2941.47 293.55 2940.12 289.2 2937.42 286.2C2934.72 283.1 2930.67 281.55 2925.27 281.55C2919.87 281.55 2915.77 283.1 2912.97 286.2C2910.17 289.3 2908.77 293.7 2908.77 299.4V302.55L2942.82 302.25L2941.47 303.75ZM3005.91 352.5C2997.41 352.5 2990.71 350.25 2985.81 345.75C2980.91 341.25 2978.46 335.2 2978.46 327.6C2978.46 319.5 2981.16 313.25 2986.56 308.85C2991.96 304.45 2999.61 302.25 3009.51 302.25H3030.06V295.2C3030.06 291.2 3028.76 288.1 3026.16 285.9C3023.56 283.6 3020.01 282.45 3015.51 282.45C3011.41 282.45 3008.01 283.35 3005.31 285.15C3002.61 286.95 3001.01 289.4 3000.51 292.5H2982.21C2983.11 284.7 2986.61 278.5 2992.71 273.9C2998.81 269.3 3006.61 267 3016.11 267C3026.21 267 3034.16 269.55 3039.96 274.65C3045.86 279.65 3048.81 286.45 3048.81 295.05V351H3030.66V336.6H3027.66L3030.66 332.55C3030.66 338.65 3028.41 343.5 3023.91 347.1C3019.41 350.7 3013.41 352.5 3005.91 352.5ZM3012.06 338.4C3017.36 338.4 3021.66 337.05 3024.96 334.35C3028.36 331.65 3030.06 328.15 3030.06 323.85V313.8H3009.81C3006.01 313.8 3002.96 314.9 3000.66 317.1C2998.36 319.3 2997.21 322.2 2997.21 325.8C2997.21 329.7 2998.51 332.8 3001.11 335.1C3003.81 337.3 3007.46 338.4 3012.06 338.4ZM1207.08 550.5C1198.58 550.5 1191.88 548.25 1186.98 543.75C1182.08 539.25 1179.63 533.2 1179.63 525.6C1179.63 517.5 1182.33 511.25 1187.73 506.85C1193.13 502.45 1200.78 500.25 1210.68 500.25H1231.23V493.2C1231.23 489.2 1229.93 486.1 1227.33 483.9C1224.73 481.6 1221.18 480.45 1216.68 480.45C1212.58 480.45 1209.18 481.35 1206.48 483.15C1203.78 484.95 1202.18 487.4 1201.68 490.5H1183.38C1184.28 482.7 1187.78 476.5 1193.88 471.9C1199.98 467.3 1207.78 465 1217.28 465C1227.38 465 1235.33 467.55 1241.13 472.65C1247.03 477.65 1249.98 484.45 1249.98 493.05V549H1231.83V534.6H1228.83L1231.83 530.55C1231.83 536.65 1229.58 541.5 1225.08 545.1C1220.58 548.7 1214.58 550.5 1207.08 550.5ZM1213.23 536.4C1218.53 536.4 1222.83 535.05 1226.13 532.35C1229.53 529.65 1231.23 526.15 1231.23 521.85V511.8H1210.98C1207.18 511.8 1204.13 512.9 1201.83 515.1C1199.53 517.3 1198.38 520.2 1198.38 523.8C1198.38 527.7 1199.68 530.8 1202.28 533.1C1204.98 535.3 1208.63 536.4 1213.23 536.4ZM1272.72 549V466.5H1291.02V482.25H1296.12L1291.02 486.6C1291.02 479.8 1292.97 474.5 1296.87 470.7C1300.87 466.9 1306.32 465 1313.22 465C1321.32 465 1327.77 467.7 1332.57 473.1C1337.47 478.5 1339.92 485.75 1339.92 494.85V549H1321.17V496.8C1321.17 491.8 1319.87 487.95 1317.27 485.25C1314.67 482.55 1311.02 481.2 1306.32 481.2C1301.72 481.2 1298.07 482.6 1295.37 485.4C1292.77 488.2 1291.47 492.2 1291.47 497.4V549H1272.72ZM1389.06 550.5C1380.86 550.5 1374.21 547.65 1369.11 541.95C1364.11 536.25 1361.61 528.6 1361.61 519V496.65C1361.61 486.95 1364.11 479.25 1369.11 473.55C1374.11 467.85 1380.76 465 1389.06 465C1395.86 465 1401.26 466.95 1405.26 470.85C1409.26 474.65 1411.26 479.9 1411.26 486.6L1407.06 482.25H1411.41L1410.81 462.6V439.5H1429.56V549H1411.26V533.25H1407.06L1411.26 528.9C1411.26 535.6 1409.26 540.9 1405.26 544.8C1401.26 548.6 1395.86 550.5 1389.06 550.5ZM1395.66 534.3C1400.46 534.3 1404.16 532.9 1406.76 530.1C1409.46 527.2 1410.81 523.2 1410.81 518.1V497.4C1410.81 492.3 1409.46 488.35 1406.76 485.55C1404.16 482.65 1400.46 481.2 1395.66 481.2C1390.86 481.2 1387.11 482.6 1384.41 485.4C1381.71 488.2 1380.36 492.2 1380.36 497.4V518.1C1380.36 523.3 1381.71 527.3 1384.41 530.1C1387.11 532.9 1390.86 534.3 1395.66 534.3ZM1576.45 550.5C1569.45 550.5 1563.3 549.2 1558 546.6C1552.8 543.9 1548.75 540.15 1545.85 535.35C1542.95 530.45 1541.5 524.7 1541.5 518.1V497.4C1541.5 490.7 1542.95 484.95 1545.85 480.15C1548.75 475.35 1552.8 471.65 1558 469.05C1563.3 466.35 1569.45 465 1576.45 465C1586.85 465 1595.15 467.7 1601.35 473.1C1607.55 478.4 1610.8 485.65 1611.1 494.85H1592.35C1592.05 490.55 1590.5 487.25 1587.7 484.95C1585 482.55 1581.25 481.35 1576.45 481.35C1571.45 481.35 1567.5 482.75 1564.6 485.55C1561.7 488.25 1560.25 492.15 1560.25 497.25V518.1C1560.25 523.2 1561.7 527.15 1564.6 529.95C1567.5 532.75 1571.45 534.15 1576.45 534.15C1581.25 534.15 1585 533 1587.7 530.7C1590.5 528.3 1592.05 524.95 1592.35 520.65H1611.1C1610.8 529.85 1607.55 537.15 1601.35 542.55C1595.15 547.85 1586.85 550.5 1576.45 550.5ZM1632.49 549V439.5H1651.24V466.5L1650.79 482.25H1655.89L1650.79 486.6C1650.79 479.8 1652.74 474.5 1656.64 470.7C1660.64 466.9 1666.09 465 1672.99 465C1681.09 465 1687.54 467.7 1692.34 473.1C1697.24 478.5 1699.69 485.75 1699.69 494.85V549H1680.94V496.8C1680.94 491.8 1679.64 487.95 1677.04 485.25C1674.44 482.55 1670.79 481.2 1666.09 481.2C1661.49 481.2 1657.84 482.6 1655.14 485.4C1652.54 488.2 1651.24 492.2 1651.24 497.4V549H1632.49ZM1746.73 550.5C1738.23 550.5 1731.53 548.25 1726.63 543.75C1721.73 539.25 1719.28 533.2 1719.28 525.6C1719.28 517.5 1721.98 511.25 1727.38 506.85C1732.78 502.45 1740.43 500.25 1750.33 500.25H1770.88V493.2C1770.88 489.2 1769.58 486.1 1766.98 483.9C1764.38 481.6 1760.83 480.45 1756.33 480.45C1752.23 480.45 1748.83 481.35 1746.13 483.15C1743.43 484.95 1741.83 487.4 1741.33 490.5H1723.03C1723.93 482.7 1727.43 476.5 1733.53 471.9C1739.63 467.3 1747.43 465 1756.93 465C1767.03 465 1774.98 467.55 1780.78 472.65C1786.68 477.65 1789.63 484.45 1789.63 493.05V549H1771.48V534.6H1768.48L1771.48 530.55C1771.48 536.65 1769.23 541.5 1764.73 545.1C1760.23 548.7 1754.23 550.5 1746.73 550.5ZM1752.88 536.4C1758.18 536.4 1762.48 535.05 1765.78 532.35C1769.18 529.65 1770.88 526.15 1770.88 521.85V511.8H1750.63C1746.83 511.8 1743.78 512.9 1741.48 515.1C1739.18 517.3 1738.03 520.2 1738.03 523.8C1738.03 527.7 1739.33 530.8 1741.93 533.1C1744.63 535.3 1748.28 536.4 1752.88 536.4ZM1854.82 549C1846.92 549 1840.72 546.8 1836.22 542.4C1831.82 538 1829.62 531.95 1829.62 524.25V483.45H1807.27V466.5H1829.62V443.25H1848.52V466.5H1880.17V483.45H1848.52V524.25C1848.52 529.45 1851.07 532.05 1856.17 532.05H1878.67V549H1854.82ZM1992.25 549V439.5H2011V466.5L2010.55 482.25H2015.65L2010.55 486.6C2010.55 479.8 2012.5 474.5 2016.4 470.7C2020.4 466.9 2025.85 465 2032.75 465C2040.85 465 2047.3 467.7 2052.1 473.1C2057 478.5 2059.45 485.75 2059.45 494.85V549H2040.7V496.8C2040.7 491.8 2039.4 487.95 2036.8 485.25C2034.2 482.55 2030.55 481.2 2025.85 481.2C2021.25 481.2 2017.6 482.6 2014.9 485.4C2012.3 488.2 2011 492.2 2011 497.4V549H1992.25ZM2082.04 549V531.9H2110.84V483.45H2085.79V466.5H2128.84V531.9H2154.34V549H2082.04ZM2118.34 452.7C2114.54 452.7 2111.54 451.75 2109.34 449.85C2107.14 447.85 2106.04 445.2 2106.04 441.9C2106.04 438.6 2107.14 436 2109.34 434.1C2111.54 432.1 2114.54 431.1 2118.34 431.1C2122.14 431.1 2125.14 432.1 2127.34 434.1C2129.54 436 2130.64 438.6 2130.64 441.9C2130.64 445.2 2129.54 447.85 2127.34 449.85C2125.14 451.75 2122.14 452.7 2118.34 452.7ZM2202.44 550.35C2196.14 550.35 2190.64 549.35 2185.94 547.35C2181.24 545.35 2177.54 542.6 2174.84 539.1C2172.24 535.5 2170.84 531.3 2170.64 526.5H2189.39C2189.59 529.1 2190.84 531.2 2193.14 532.8C2195.54 534.4 2198.64 535.2 2202.44 535.2H2209.04C2213.64 535.2 2217.09 534.3 2219.39 532.5C2221.69 530.7 2222.84 528.25 2222.84 525.15C2222.84 522.25 2221.79 520 2219.69 518.4C2217.69 516.7 2214.54 515.6 2210.24 515.1L2200.04 513.6C2190.64 512.3 2183.74 509.8 2179.34 506.1C2174.94 502.4 2172.74 496.85 2172.74 489.45C2172.74 481.75 2175.34 475.8 2180.54 471.6C2185.74 467.3 2193.39 465.15 2203.49 465.15H2209.19C2218.39 465.15 2225.74 467.2 2231.24 471.3C2236.74 475.4 2239.69 480.9 2240.09 487.8H2221.34C2221.04 485.6 2219.79 483.8 2217.59 482.4C2215.49 481 2212.69 480.3 2209.19 480.3H2203.49C2199.19 480.3 2196.04 481.1 2194.04 482.7C2192.14 484.2 2191.19 486.45 2191.19 489.45C2191.19 492.25 2192.04 494.35 2193.74 495.75C2195.44 497.05 2198.19 498 2201.99 498.6L2212.64 500.1C2222.44 501.5 2229.64 504.15 2234.24 508.05C2238.94 511.85 2241.29 517.5 2241.29 525C2241.29 533 2238.54 539.25 2233.04 543.75C2227.64 548.15 2219.64 550.35 2209.04 550.35H2202.44ZM2304.53 549C2296.63 549 2290.43 546.8 2285.93 542.4C2281.53 538 2279.33 531.95 2279.33 524.25V483.45H2256.98V466.5H2279.33V443.25H2298.23V466.5H2329.88V483.45H2298.23V524.25C2298.23 529.45 2300.78 532.05 2305.88 532.05H2328.38V549H2304.53ZM2385.47 550.35C2378.47 550.35 2372.37 549.05 2367.17 546.45C2362.07 543.75 2358.07 540 2355.17 535.2C2352.37 530.3 2350.97 524.55 2350.97 517.95V497.55C2350.97 490.95 2352.37 485.25 2355.17 480.45C2358.07 475.55 2362.07 471.8 2367.17 469.2C2372.37 466.5 2378.47 465.15 2385.47 465.15C2392.57 465.15 2398.67 466.5 2403.77 469.2C2408.87 471.8 2412.82 475.55 2415.62 480.45C2418.52 485.25 2419.97 490.9 2419.97 497.4V517.95C2419.97 524.55 2418.52 530.3 2415.62 535.2C2412.82 540 2408.87 543.75 2403.77 546.45C2398.67 549.05 2392.57 550.35 2385.47 550.35ZM2385.47 534C2390.47 534 2394.32 532.65 2397.02 529.95C2399.82 527.15 2401.22 523.15 2401.22 517.95V497.55C2401.22 492.25 2399.82 488.25 2397.02 485.55C2394.32 482.85 2390.47 481.5 2385.47 481.5C2380.57 481.5 2376.72 482.85 2373.92 485.55C2371.12 488.25 2369.72 492.25 2369.72 497.55V517.95C2369.72 523.15 2371.12 527.15 2373.92 529.95C2376.72 532.65 2380.57 534 2385.47 534ZM2444.51 549V466.5H2462.21V482.25H2466.86L2461.31 491.85C2461.31 482.95 2463.31 476.25 2467.31 471.75C2471.31 467.25 2477.21 465 2485.01 465C2493.91 465 2500.91 467.75 2506.01 473.25C2511.11 478.75 2513.66 486.35 2513.66 496.05V502.05H2494.01V497.4C2494.01 492.1 2492.61 488 2489.81 485.1C2487.11 482.2 2483.36 480.75 2478.56 480.75C2473.66 480.75 2469.86 482.2 2467.16 485.1C2464.56 488 2463.26 492.1 2463.26 497.4V549H2444.51ZM2545.25 576L2556.8 544.5L2526.05 466.5H2546.6L2561.9 508.65C2562.7 510.95 2563.5 513.75 2564.3 517.05C2565.1 520.25 2565.7 522.9 2566.1 525C2566.6 522.9 2567.25 520.25 2568.05 517.05C2568.85 513.75 2569.65 510.95 2570.45 508.65L2584.85 466.5H2604.65L2564.9 576H2545.25ZM2754.23 549C2746.33 549 2740.13 546.8 2735.63 542.4C2731.23 538 2729.03 531.95 2729.03 524.25V483.45H2706.68V466.5H2729.03V443.25H2747.93V466.5H2779.58V483.45H2747.93V524.25C2747.93 529.45 2750.48 532.05 2755.58 532.05H2778.08V549H2754.23ZM2835.18 550.35C2828.18 550.35 2822.08 549.05 2816.88 546.45C2811.78 543.75 2807.78 540 2804.88 535.2C2802.08 530.3 2800.68 524.55 2800.68 517.95V497.55C2800.68 490.95 2802.08 485.25 2804.88 480.45C2807.78 475.55 2811.78 471.8 2816.88 469.2C2822.08 466.5 2828.18 465.15 2835.18 465.15C2842.28 465.15 2848.38 466.5 2853.48 469.2C2858.58 471.8 2862.53 475.55 2865.33 480.45C2868.23 485.25 2869.68 490.9 2869.68 497.4V517.95C2869.68 524.55 2868.23 530.3 2865.33 535.2C2862.53 540 2858.58 543.75 2853.48 546.45C2848.38 549.05 2842.28 550.35 2835.18 550.35ZM2835.18 534C2840.18 534 2844.03 532.65 2846.73 529.95C2849.53 527.15 2850.93 523.15 2850.93 517.95V497.55C2850.93 492.25 2849.53 488.25 2846.73 485.55C2844.03 482.85 2840.18 481.5 2835.18 481.5C2830.28 481.5 2826.43 482.85 2823.63 485.55C2820.83 488.25 2819.43 492.25 2819.43 497.55V517.95C2819.43 523.15 2820.83 527.15 2823.63 529.95C2826.43 532.65 2830.28 534 2835.18 534ZM2925.12 550.35C2918.12 550.35 2912.02 549.05 2906.82 546.45C2901.72 543.75 2897.72 540 2894.82 535.2C2892.02 530.3 2890.62 524.55 2890.62 517.95V497.55C2890.62 490.95 2892.02 485.25 2894.82 480.45C2897.72 475.55 2901.72 471.8 2906.82 469.2C2912.02 466.5 2918.12 465.15 2925.12 465.15C2932.22 465.15 2938.32 466.5 2943.42 469.2C2948.52 471.8 2952.47 475.55 2955.27 480.45C2958.17 485.25 2959.62 490.9 2959.62 497.4V517.95C2959.62 524.55 2958.17 530.3 2955.27 535.2C2952.47 540 2948.52 543.75 2943.42 546.45C2938.32 549.05 2932.22 550.35 2925.12 550.35ZM2925.12 534C2930.12 534 2933.97 532.65 2936.67 529.95C2939.47 527.15 2940.87 523.15 2940.87 517.95V497.55C2940.87 492.25 2939.47 488.25 2936.67 485.55C2933.97 482.85 2930.12 481.5 2925.12 481.5C2920.22 481.5 2916.37 482.85 2913.57 485.55C2910.77 488.25 2909.37 492.25 2909.37 497.55V517.95C2909.37 523.15 2910.77 527.15 2913.57 529.95C2916.37 532.65 2920.22 534 2925.12 534ZM3015.06 550.5C3010.76 550.5 3007.31 549.25 3004.71 546.75C3002.21 544.25 3000.96 540.85 3000.96 536.55C3000.96 532.25 3002.21 528.85 3004.71 526.35C3007.31 523.75 3010.76 522.45 3015.06 522.45C3019.36 522.45 3022.76 523.75 3025.26 526.35C3027.86 528.85 3029.16 532.25 3029.16 536.55C3029.16 540.85 3027.86 544.25 3025.26 546.75C3022.76 549.25 3019.36 550.5 3015.06 550.5Z" fill="black"/>
</svg>
