<svg width="1567" height="1231" viewBox="0 0 1567 1231" fill="none" xmlns="http://www.w3.org/2000/svg">
<path d="M1334.43 540.005C1334.43 542.359 1334.39 544.7 1334.34 547.041C1448.91 573.533 1534 671.918 1534 789.258V789.261C1534 926.918 1416.91 1038.51 1272.46 1038.51H1214V1198L924 1038.51H294.539C150.098 1038.51 33 926.918 33 789.261V789.258C33 665.678 127.376 563.123 251.18 543.433C252.865 426.149 353.097 331.553 476.562 331.553C531.478 331.553 581.788 350.282 620.897 381.379C682.307 262.968 810.302 181.52 958.283 181.52C1166.02 181.52 1334.43 342.018 1334.43 540.005Z" fill="#969595" stroke="black" stroke-width="65" stroke-miterlimit="10" stroke-linecap="round" stroke-linejoin="round"/>
<path d="M449.924 325.921L449.774 181.991" stroke="black" stroke-width="57" stroke-miterlimit="10" stroke-linecap="round" stroke-linejoin="round"/>
<path d="M379 99.5C379 138.987 411.013 171 450.5 171C489.987 171 522 138.987 522 99.5C522 60.0129 489.987 28 450.5 28C411.013 28 379 60.0129 379 99.5Z" fill="#BA0000" stroke="black" stroke-width="55" stroke-miterlimit="10" stroke-linecap="round" stroke-linejoin="round"/>
<path d="M1000 492.003H566C543.703 492.003 532.555 492.003 523.231 493.505C472.989 501.6 433.597 540.992 425.502 591.233C424 600.558 424 611.706 424 634.003C424 656.3 424 667.448 425.502 676.772C433.597 727.014 472.989 766.406 523.231 774.501C532.555 776.003 543.703 776.003 566 776.003H1000C1022.3 776.003 1033.44 776.003 1042.77 774.501C1093.01 766.406 1132.4 727.014 1140.5 676.772C1142 667.448 1142 656.3 1142 634.003C1142 611.706 1142 600.558 1140.5 591.233C1132.4 540.992 1093.01 501.6 1042.77 493.505C1033.44 492.003 1022.3 492.003 1000 492.003Z" fill="#55B7BD" stroke="black" stroke-width="60" stroke-linecap="round" stroke-linejoin="round"/>
<path d="M948.006 904.002L866.755 904.002L785.503 904.002L704.252 904.002L623 904.002" stroke="black" stroke-width="60" stroke-miterlimit="10" stroke-linecap="round" stroke-linejoin="round"/>
<circle cx="948.5" cy="633.502" r="72.5" fill="#151414"/>
<circle cx="623.5" cy="633.502" r="72.5" fill="#151414"/>
</svg>
