<svg width="1567" height="1235" viewBox="0 0 1567 1235" fill="none" xmlns="http://www.w3.org/2000/svg">
<circle cx="623.5" cy="637.5" r="72.5" fill="black"/>
<circle cx="948.5" cy="637.5" r="72.5" fill="black"/>
<path d="M1213 1043V1202L1070.5 1122.5L928 1043" stroke="black" stroke-width="65" stroke-miterlimit="10" stroke-linecap="round" stroke-linejoin="round"/>
<path d="M1214 1042.51H1272.46C1416.91 1042.51 1534 930.913 1534 793.256V793.253C1534 675.913 1448.91 577.528 1334.34 551.036C1334.39 548.695 1334.43 546.354 1334.43 544.001C1334.43 346.014 1166.02 185.515 958.283 185.515C810.302 185.515 682.307 266.963 620.897 385.375C581.788 354.278 531.478 335.549 476.562 335.549C353.097 335.549 252.865 430.145 251.18 547.428C127.376 567.119 33 669.673 33 793.253V793.256C33 930.913 150.098 1042.51 294.539 1042.51H924" stroke="black" stroke-width="65" stroke-miterlimit="10" stroke-linecap="round" stroke-linejoin="round"/>
<path d="M449.698 185.514L452 329.426" stroke="black" stroke-width="57" stroke-miterlimit="10" stroke-linecap="round" stroke-linejoin="round"/>
<path d="M379 96.5C379 134.33 411.181 165 450.876 165C490.57 165 522.751 134.33 522.751 96.5C522.751 58.6697 490.57 28 450.876 28C411.181 28 379 58.6697 379 96.5Z" stroke="black" stroke-width="55" stroke-miterlimit="10" stroke-linecap="round" stroke-linejoin="round"/>
<path d="M1000 496H566C543.703 496 532.555 496 523.231 497.502C472.989 505.597 433.597 544.989 425.502 595.231C424 604.555 424 615.703 424 638C424 660.297 424 671.445 425.502 680.77C433.597 731.011 472.989 770.403 523.231 778.498C532.555 780 543.703 780 566 780H1000C1022.3 780 1033.44 780 1042.77 778.498C1093.01 770.403 1132.4 731.011 1140.5 680.77C1142 671.445 1142 660.297 1142 638C1142 615.703 1142 604.555 1140.5 595.231C1132.4 544.989 1093.01 505.597 1042.77 497.502C1033.44 496 1022.3 496 1000 496Z" stroke="black" stroke-width="60" stroke-linecap="round" stroke-linejoin="round"/>
<path d="M948.006 908L866.755 908L785.503 908L704.252 908L623 908" stroke="black" stroke-width="60" stroke-miterlimit="10" stroke-linecap="round" stroke-linejoin="round"/>
</svg>
